<?xml version="1.0" encoding="UTF-8" standalone="no"?>
<!-- Created with Inkscape (http://www.inkscape.org/) -->

<svg
   xmlns:dc="http://purl.org/dc/elements/1.1/"
   xmlns:cc="http://creativecommons.org/ns#"
   xmlns:rdf="http://www.w3.org/1999/02/22-rdf-syntax-ns#"
   xmlns:svg="http://www.w3.org/2000/svg"
   xmlns="http://www.w3.org/2000/svg"
   xmlns:sodipodi="http://sodipodi.sourceforge.net/DTD/sodipodi-0.dtd"
   xmlns:inkscape="http://www.inkscape.org/namespaces/inkscape"
   width="80mm"
   height="80mm"
   viewBox="0 0 283.46457 283.46456"
   id="svg2"
   version="1.1"
   inkscape:version="0.91 r13725"
   sodipodi:docname="GreenHunt.svg">
  <defs
     id="defs4" />
  <sodipodi:namedview
     id="base"
     pagecolor="#ffffff"
     bordercolor="#666666"
     borderopacity="1.0"
     inkscape:pageopacity="0.0"
     inkscape:pageshadow="2"
     inkscape:zoom="1.575388"
     inkscape:cx="208.90322"
     inkscape:cy="122.2753"
     inkscape:document-units="px"
     inkscape:current-layer="layer1"
     showgrid="false"
     inkscape:window-width="1440"
     inkscape:window-height="837"
     inkscape:window-x="-8"
     inkscape:window-y="-8"
     inkscape:window-maximized="1" />
  <metadata
     id="metadata7">
    <rdf:RDF>
      <cc:Work
         rdf:about="">
        <dc:format>image/svg+xml</dc:format>
        <dc:type
           rdf:resource="http://purl.org/dc/dcmitype/StillImage" />
        <dc:title />
      </cc:Work>
    </rdf:RDF>
  </metadata>
  <g
     inkscape:label="Layer 1"
     inkscape:groupmode="layer"
     id="layer1"
     transform="translate(0,-768.89764)">
    <g
       style="font-style:normal;font-weight:normal;font-size:40px;line-height:125%;font-family:sans-serif;letter-spacing:0px;word-spacing:0px;fill:#000000;fill-opacity:1;stroke:none;stroke-width:1px;stroke-linecap:butt;stroke-linejoin:miter;stroke-opacity:1"
       id="text4346"
       transform="translate(-24.243661,0)" />
    <rect
       style="fill:#1a1a1a;fill-opacity:1;stroke-width:1.60000002;stroke-miterlimit:4;stroke-dasharray:none"
       id="rect4397"
       width="285.87317"
       height="287.40207"
       x="-1.0101526"
       y="766.98041"
       ry="0" />
    <rect
       ry="0"
       y="783.66168"
       x="22.223358"
       height="155.56349"
       width="241.42645"
       id="rect4645"
       style="fill:#1a1a1a;fill-opacity:1;stroke-width:1.60000002;stroke-miterlimit:4;stroke-dasharray:none" />
    <text
       xml:space="preserve"
       style="font-style:normal;font-weight:normal;font-size:19.18499184px;line-height:125%;font-family:sans-serif;letter-spacing:0px;word-spacing:0px;fill:#000000;fill-opacity:1;stroke:none;stroke-width:1px;stroke-linecap:butt;stroke-linejoin:miter;stroke-opacity:1"
       x="66.786263"
       y="973.34705"
       id="text4433"
       sodipodi:linespacing="125%"><tspan
         sodipodi:role="line"
         id="tspan4435"
         x="66.786263"
         y="973.34705"
         style="font-style:normal;font-variant:normal;font-weight:normal;font-stretch:normal;font-family:COCOGOOSE;-inkscape-font-specification:COCOGOOSE;fill:#ffffff">Code: 834331</tspan><tspan
         sodipodi:role="line"
         x="66.786263"
         y="997.32831"
         style="font-style:normal;font-variant:normal;font-weight:normal;font-stretch:normal;font-family:COCOGOOSE;-inkscape-font-specification:COCOGOOSE;fill:#ffffff"
         id="tspan4556" /></text>
    <text
       xml:space="preserve"
       style="font-style:normal;font-weight:normal;font-size:12.87350941px;line-height:125%;font-family:sans-serif;letter-spacing:0px;word-spacing:0px;fill:#000000;fill-opacity:1;stroke:none;stroke-width:1px;stroke-linecap:butt;stroke-linejoin:miter;stroke-opacity:1"
       x="97.240356"
       y="1016.0084"
       id="text4433-8"
       sodipodi:linespacing="125%"><tspan
         sodipodi:role="line"
         id="tspan4435-5"
         x="97.240356"
         y="1016.0084"
         style="font-style:normal;font-variant:normal;font-weight:normal;font-stretch:normal;font-family:COCOGOOSE;-inkscape-font-specification:COCOGOOSE;fill:#ffffff">Payout: $.50</tspan></text>
    <g
       id="g4679"
       transform="translate(56.620021,850.93293)">
      <g
         id="g4681">
        <path
           id="path4683"
           d="m 107.9,1.1 0,10.9 c 0,1.7 0.3,3.1 1,3.9 0.6,0.9 1.6,1.3 2.9,1.3 1.3,0 2.2,-0.4 2.9,-1.2 0.7,-0.8 1,-2 1,-3.5 l 0,-11.4 4.2,0 0,11.4 c 0,2.9 -0.7,5.1 -2.2,6.7 -1.5,1.6 -3.5,2.4 -6.1,2.4 -2.6,0 -4.7,-0.8 -6.1,-2.4 -1.5,-1.6 -2.2,-3.8 -2.2,-6.7 l 0,-11.4 4.6,0 z"
           inkscape:connector-curvature="0"
           style="fill:#ffffff" />
        <path
           id="path4685"
           d="m 123.8,20.9 0,-20.5 0.5,0 12.2,11.6 0,-10.9 4.4,0 0,20.5 -0.4,0 -12.4,-11.5 0,10.8 -4.3,0 z"
           inkscape:connector-curvature="0"
           style="fill:#ffffff" />
        <path
           id="path4687"
           d="m 149,20.9 0,-15.7 -6.3,0 0,-4.1 17.3,0 0,4.1 -6.3,0 0,15.7 -4.7,0 z"
           inkscape:connector-curvature="0"
           style="fill:#ffffff" />
        <polygon
           id="polygon4689"
           points="94.6,12.6 94.6,20.9 99.3,20.9 99.3,1.1 94.6,1.1 94.6,8.3 87,8.3 87,12.6 "
           style="fill:#ffffff" />
      </g>
      <path
         id="path4691"
         d="m 18,9.9 0,9.6 c -1.3,0.7 -2.6,1.2 -3.9,1.5 -1.3,0.3 -2.5,0.5 -3.7,0.5 -3,0 -5.5,-1 -7.5,-3 -2,-2 -3,-4.5 -3,-7.5 0,-3.1 1,-5.6 3,-7.6 2,-2 4.6,-3 7.6,-3 1.2,0 2.3,0.2 3.3,0.5 1.1,0.3 2.1,0.8 3,1.4 l -0.5,5 C 15.4,6.4 14.5,5.7 13.6,5.3 12.7,4.9 11.7,4.7 10.7,4.7 8.9,4.7 7.5,5.3 6.3,6.5 5.4,7.6 4.8,9 4.8,10.8 c 0,1.9 0.6,3.4 1.7,4.6 1.1,1.2 2.6,1.8 4.3,1.8 0.4,0 0.8,0 1.2,-0.1 0.4,-0.1 0.9,-0.2 1.3,-0.3 l 0,-2.9 4.7,-4 z"
         inkscape:connector-curvature="0"
         style="fill:#22b713" />
      <path
         id="path4693"
         d="m 21.5,20.9 0,-19.8 5.1,0 c 1.6,0 2.9,0.1 3.8,0.3 0.9,0.2 1.7,0.6 2.4,1.1 0.7,0.5 1.3,1.2 1.7,2 0.4,0.8 0.6,1.6 0.6,2.5 0,1.2 -0.3,2.3 -0.9,3.3 -0.6,0.9 -1.5,1.7 -2.7,2.2 l 6,8.5 -5.4,0 -5.3,-7.8 -0.7,0 0,7.8 -4.6,0 z m 5.4,-16.2 -0.8,0 0,5.5 1,0 c 1.2,0 2.1,-0.2 2.7,-0.7 C 30.4,9 30.7,8.3 30.7,7.4 30.7,6.5 30.4,5.8 29.8,5.3 29.3,4.9 28.3,4.7 26.9,4.7 Z"
         inkscape:connector-curvature="0"
         style="fill:#22b713" />
      <path
         id="path4695"
         d="m 38.9,20.9 0,-19.8 12.2,0 0,4.1 -7.6,0 0,3.6 6.5,0 0,4.1 -6.5,0 0,3.9 7.7,0 0,4.2 -12.3,0 z"
         inkscape:connector-curvature="0"
         style="fill:#22b713" />
      <path
         id="path4697"
         d="m 54.4,20.9 0,-19.8 12.2,0 0,4.1 -7.6,0 0,3.6 6.5,0 0,4.1 -6.5,0 0,3.9 7.7,0 0,4.2 -12.3,0 z"
         inkscape:connector-curvature="0"
         style="fill:#22b713" />
      <g
         id="g4699">
        <polygon
           id="polygon4701"
           points="74.2,20.9 74.2,10.1 79.5,14.9 79.5,9 70.3,0.4 69.9,0.4 69.9,20.9 "
           style="fill:#22b713" />
        <polygon
           id="polygon4703"
           points="86.6,21.6 87,21.6 87,1.1 82.6,1.1 82.6,12 82.6,12 82.6,17.9 "
           style="fill:#22b713" />
      </g>
    </g>
  </g>
</svg>
