<?xml version="1.0" encoding="UTF-8" standalone="no"?>
<!-- Created with Inkscape (http://www.inkscape.org/) -->

<svg
   xmlns:dc="http://purl.org/dc/elements/1.1/"
   xmlns:cc="http://creativecommons.org/ns#"
   xmlns:rdf="http://www.w3.org/1999/02/22-rdf-syntax-ns#"
   xmlns:svg="http://www.w3.org/2000/svg"
   xmlns="http://www.w3.org/2000/svg"
   xmlns:sodipodi="http://sodipodi.sourceforge.net/DTD/sodipodi-0.dtd"
   xmlns:inkscape="http://www.inkscape.org/namespaces/inkscape"
   width="80mm"
   height="80mm"
   viewBox="0 0 283.46457 283.46456"
   id="svg2"
   version="1.1"
   inkscape:version="0.91 r13725"
   sodipodi:docname="Skinhub.svg">
  <defs
     id="defs4" />
  <sodipodi:namedview
     id="base"
     pagecolor="#ffffff"
     bordercolor="#666666"
     borderopacity="1.0"
     inkscape:pageopacity="0.0"
     inkscape:pageshadow="2"
     inkscape:zoom="1.1139676"
     inkscape:cx="238.16553"
     inkscape:cy="127.09992"
     inkscape:document-units="px"
     inkscape:current-layer="layer1"
     showgrid="false"
     inkscape:window-width="1440"
     inkscape:window-height="837"
     inkscape:window-x="-8"
     inkscape:window-y="-8"
     inkscape:window-maximized="1" />
  <metadata
     id="metadata7">
    <rdf:RDF>
      <cc:Work
         rdf:about="">
        <dc:format>image/svg+xml</dc:format>
        <dc:type
           rdf:resource="http://purl.org/dc/dcmitype/StillImage" />
        <dc:title />
      </cc:Work>
    </rdf:RDF>
  </metadata>
  <g
     inkscape:label="Layer 1"
     inkscape:groupmode="layer"
     id="layer1"
     transform="translate(0,-768.89764)">
    <g
       style="font-style:normal;font-weight:normal;font-size:40px;line-height:125%;font-family:sans-serif;letter-spacing:0px;word-spacing:0px;fill:#000000;fill-opacity:1;stroke:none;stroke-width:1px;stroke-linecap:butt;stroke-linejoin:miter;stroke-opacity:1"
       id="text4346"
       transform="translate(-24.243661,0)" />
    <path
       style="fill:#1a1a1a;fill-opacity:1;stroke-width:1.60000002;stroke-miterlimit:4;stroke-dasharray:none"
       d="m -1.0101526,767.49966 285.8731726,0 0,286.88284 -285.8731726,0 z"
       id="rect4397"
       inkscape:connector-curvature="0" />
    <path
       style="fill:#1a1a1a;fill-opacity:1;stroke-width:1.60000002;stroke-miterlimit:4;stroke-dasharray:none"
       d="m 22.223358,783.66168 241.426452,0 0,155.56349 -241.426452,0 z"
       id="rect4645" />
    <g
       style="font-style:normal;font-weight:normal;font-size:19.18499184px;line-height:125%;font-family:sans-serif;letter-spacing:0px;word-spacing:0px;fill:#000000;fill-opacity:1;stroke:none;stroke-width:1px;stroke-linecap:butt;stroke-linejoin:miter;stroke-opacity:1"
       id="text4433">
      <path
         d="m 79.198952,960.13818 q 0.163073,0.0959 0.239813,0.2494 0.07674,0.15348 -0.02878,0.36452 l -1.621132,2.3022 q -0.105517,0.16307 -0.23022,0.19185 -0.11511,0.0192 -0.287774,-0.0863 -0.470033,-0.35493 -1.03599,-0.54678 -0.565957,-0.19185 -1.199062,-0.19185 -0.786585,0 -1.448467,0.29737 -0.661882,0.29737 -1.141507,0.81536 -0.479625,0.518 -0.748215,1.20866 -0.268589,0.69066 -0.268589,1.47724 0,0.78659 0.268589,1.47725 0.26859,0.68106 0.748215,1.19906 0.479625,0.5084 1.141507,0.80577 0.661882,0.29736 1.448467,0.29736 0.633105,0 1.208654,-0.19185 0.57555,-0.20144 1.045583,-0.55636 0.172664,-0.10552 0.287774,-0.0863 0.11511,0.0192 0.23022,0.17266 l 1.640317,2.35976 q 0.105518,0.21103 0.02878,0.35492 -0.07674,0.14389 -0.239813,0.23981 -0.901694,0.60433 -1.947276,0.94007 -1.03599,0.32614 -2.18709,0.32614 -1.016804,0 -1.956869,-0.259 -0.930472,-0.25899 -1.745834,-0.73862 -0.815362,-0.47962 -1.486837,-1.14151 -0.661882,-0.67147 -1.141507,-1.47724 -0.479625,-0.81536 -0.738622,-1.74583 -0.258997,-0.94007 -0.258997,-1.95687 0,-1.01681 0.258997,-1.94728 0.258997,-0.94006 0.738622,-1.75543 0.479625,-0.82495 1.141507,-1.49643 0.671475,-0.67147 1.486837,-1.1415 0.815362,-0.47963 1.745834,-0.73863 0.940065,-0.26859 1.956869,-0.26859 1.1511,0 2.167905,0.32615 1.026397,0.31655 1.928091,0.92088 z"
         style="font-style:normal;font-variant:normal;font-weight:normal;font-stretch:normal;font-family:COCOGOOSE;-inkscape-font-specification:COCOGOOSE;fill:#ffffff"
         id="path3540" />
      <path
         d="m 81.090173,967.2654 q 0,-0.88251 0.220627,-1.69787 0.23022,-0.81536 0.633105,-1.50602 0.412478,-0.70025 0.978435,-1.26621 0.57555,-0.57555 1.275802,-0.97843 0.700252,-0.40289 1.506022,-0.62352 0.815362,-0.22062 1.697871,-0.22062 1.30458,0 2.446087,0.48921 1.151099,0.47963 1.995239,1.33336 0.853732,0.84414 1.342949,1.99524 0.49881,1.14151 0.49881,2.47486 0,0.88251 -0.23022,1.69788 -0.220627,0.80576 -0.633104,1.50602 -0.402885,0.70025 -0.978435,1.2758 -0.565957,0.56596 -1.266209,0.97843 -0.700253,0.40289 -1.506022,0.62352 -0.796177,0.22062 -1.669095,0.22062 -0.882509,0 -1.697871,-0.22062 -0.80577,-0.22063 -1.506022,-0.62352 -0.700252,-0.41247 -1.275802,-0.97843 -0.565957,-0.57555 -0.978435,-1.2758 -0.402885,-0.70026 -0.633105,-1.50602 -0.220627,-0.81537 -0.220627,-1.69788 z m 3.501261,0 q 0,0.63311 0.19185,1.18947 0.201442,0.54678 0.556365,0.94966 0.364515,0.40288 0.872917,0.6427 0.517995,0.23022 1.160692,0.23022 0.623512,0 1.122322,-0.23022 0.508402,-0.23982 0.853732,-0.6427 0.354922,-0.40288 0.53718,-0.94966 0.19185,-0.55636 0.19185,-1.18947 0,-0.61392 -0.19185,-1.17028 -0.182258,-0.55637 -0.53718,-0.97844 -0.34533,-0.42207 -0.853732,-0.66188 -0.49881,-0.2494 -1.122322,-0.2494 -0.642697,0 -1.160692,0.2494 -0.508402,0.23981 -0.872917,0.66188 -0.354923,0.42207 -0.556365,0.97844 -0.19185,0.55636 -0.19185,1.17028 z"
         style="font-style:normal;font-variant:normal;font-weight:normal;font-stretch:normal;font-family:COCOGOOSE;-inkscape-font-specification:COCOGOOSE;fill:#ffffff"
         id="path3542" />
      <path
         d="m 104.17601,971.86021 q -0.259,0.259 -0.57555,0.55636 -0.30696,0.29737 -0.68107,0.55637 -0.3741,0.259 -0.80576,0.42207 -0.43167,0.17266 -0.93048,0.17266 -1.304576,0 -2.407713,-0.48921 -1.093545,-0.48922 -1.889722,-1.33336 -0.786585,-0.85373 -1.237432,-2.00483 -0.441255,-1.1511 -0.441255,-2.47487 0,-1.33335 0.441255,-2.47486 0.450847,-1.1511 1.237432,-1.99524 0.796177,-0.85373 1.889722,-1.33336 1.103137,-0.48921 2.407713,-0.48921 0.52759,0 0.95925,0.15348 0.44126,0.15348 0.79618,0.39329 0.36451,0.23981 0.66188,0.54677 0.30696,0.29737 0.57555,0.58514 l 0,-4.38377 q 0,-0.30696 0.18226,-0.51799 0.19185,-0.21104 0.56596,-0.21104 l 2.15831,0 q 0.1247,0 0.259,0.0576 0.14388,0.048 0.25899,0.14389 0.11511,0.0959 0.18226,0.23021 0.0767,0.1343 0.0767,0.29737 l 0,14.34078 q 0,0.73863 -0.77699,0.73863 l -1.88013,0 q -0.19185,0 -0.29737,-0.048 -0.10552,-0.048 -0.18226,-0.13429 -0.0671,-0.0959 -0.1247,-0.23022 -0.0575,-0.14389 -0.14389,-0.32615 l -0.27818,-0.74821 z m -5.515683,-4.59481 q 0,0.63311 0.19185,1.18947 0.201442,0.54678 0.565957,0.94966 0.364515,0.40288 0.872916,0.6427 0.518,0.23022 1.14151,0.23022 0.61392,0 1.1511,-0.22063 0.54677,-0.22063 0.94965,-0.60433 0.40289,-0.39329 0.6427,-0.92088 0.24941,-0.52758 0.27818,-1.13191 l 0,-0.1343 q 0,-0.61392 -0.23022,-1.17028 -0.23022,-0.55637 -0.64269,-0.97844 -0.40289,-0.42207 -0.95925,-0.66188 -0.54677,-0.2494 -1.18947,-0.2494 -0.62351,0 -1.14151,0.2494 -0.508401,0.23981 -0.872916,0.66188 -0.364515,0.42207 -0.565957,0.97844 -0.19185,0.55636 -0.19185,1.17028 z"
         style="font-style:normal;font-variant:normal;font-weight:normal;font-stretch:normal;font-family:COCOGOOSE;-inkscape-font-specification:COCOGOOSE;fill:#ffffff"
         id="path3544" />
      <path
         d="m 120.63554,971.88899 q -0.84414,0.77699 -1.89932,1.21824 -1.05517,0.43167 -2.23505,0.43167 -1.31417,0 -2.48445,-0.47963 -1.17029,-0.47962 -2.0528,-1.32376 -0.88251,-0.85374 -1.4005,-2.00484 -0.518,-1.15109 -0.518,-2.50364 0,-0.84414 0.20144,-1.63072 0.21104,-0.79618 0.58515,-1.48684 0.3837,-0.69066 0.92088,-1.26621 0.54677,-0.58514 1.21824,-0.99762 0.67148,-0.41247 1.45806,-0.64269 0.78659,-0.23022 1.6595,-0.23022 0.79618,0 1.5444,0.21103 0.74821,0.21104 1.4005,0.59474 0.66188,0.3837 1.20866,0.92088 0.54677,0.53718 0.94006,1.17987 0.39329,0.63311 0.60433,1.36214 0.22062,0.71943 0.22062,1.48683 0,0.49881 -0.0192,0.81537 -0.01,0.31655 -0.14389,0.5084 -0.13429,0.18226 -0.45084,0.259 -0.30696,0.0671 -0.91129,0.0671 l -6.9066,0 q 0.0959,0.61392 0.3837,1.0264 0.29737,0.41248 0.68107,0.66188 0.3837,0.23981 0.81536,0.34533 0.43166,0.10552 0.81536,0.10552 0.34533,0 0.70985,-0.0671 0.36451,-0.0767 0.70025,-0.19185 0.34533,-0.1247 0.62351,-0.27818 0.28778,-0.16307 0.46044,-0.33574 0.15348,-0.1247 0.259,-0.18225 0.11511,-0.0671 0.23981,-0.0671 0.1247,0 0.24941,0.0863 0.13429,0.0863 0.29736,0.2494 l 1.01681,1.1511 q 0.10552,0.12471 0.13429,0.23022 0.0288,0.0959 0.0288,0.20145 0,0.19185 -0.10552,0.33573 -0.10551,0.1343 -0.2494,0.23982 z m -4.61399,-7.99055 q -0.37411,0 -0.72903,0.15348 -0.34533,0.14388 -0.65229,0.39329 -0.30696,0.2494 -0.55637,0.56596 -0.23981,0.31655 -0.39329,0.64269 l 4.90177,0 q -0.20145,-0.3741 -0.44126,-0.69066 -0.23022,-0.31655 -0.53718,-0.55636 -0.29737,-0.23981 -0.69066,-0.37411 -0.3837,-0.13429 -0.90169,-0.13429 z"
         style="font-style:normal;font-variant:normal;font-weight:normal;font-stretch:normal;font-family:COCOGOOSE;-inkscape-font-specification:COCOGOOSE;fill:#ffffff"
         id="path3546" />
      <path
         d="m 124.18446,962.95837 q 0,-0.19185 0.10552,-0.30696 0.10552,-0.11511 0.31655,-0.11511 l 2.53242,0 q 0.16307,0 0.29737,0.11511 0.14389,0.11511 0.14389,0.30696 l 0,2.32139 q 0,0.17266 -0.11511,0.30696 -0.10552,0.13429 -0.32615,0.13429 l -2.53242,0 q -0.42207,0 -0.42207,-0.44125 l 0,-2.32139 z m 0,7.62604 q 0,-0.19185 0.10552,-0.30696 0.10552,-0.11511 0.31655,-0.11511 l 2.53242,0 q 0.16307,0 0.29737,0.11511 0.14389,0.11511 0.14389,0.30696 l 0,2.32138 q 0,0.17267 -0.11511,0.30696 -0.10552,0.1343 -0.32615,0.1343 l -2.53242,0 q -0.42207,0 -0.42207,-0.44126 l 0,-2.32138 z"
         style="font-style:normal;font-variant:normal;font-weight:normal;font-stretch:normal;font-family:COCOGOOSE;-inkscape-font-specification:COCOGOOSE;fill:#ffffff"
         id="path3548" />
      <path
         d="m 136.37832,959.52426 q 0.01,-0.16307 0.11511,-0.28778 0.11511,-0.13429 0.29737,-0.13429 l 2.84897,0 q 0.14389,0 0.29737,0.1247 0.15348,0.11511 0.15348,0.29737 l 0,4.54684 4.76747,0 0,-4.54684 q 0,-0.17267 0.11511,-0.29737 0.1247,-0.1247 0.31655,-0.1247 l 2.8106,0 q 0.19185,0 0.33574,0.0959 0.14389,0.0959 0.14389,0.30696 l 0,13.41991 q 0,0.21103 -0.1247,0.31655 -0.12471,0.10552 -0.32615,0.10552 l -2.83938,0 q -0.19185,0 -0.31655,-0.10552 -0.11511,-0.10552 -0.11511,-0.31655 l 0,-5.44854 -4.76747,0 0,5.44854 q 0,0.20144 -0.13429,0.31655 -0.12471,0.10552 -0.34533,0.10552 l -2.8202,0 q -0.40288,0 -0.41248,-0.37411 l 0,-13.44868 z"
         style="font-style:normal;font-variant:normal;font-weight:normal;font-stretch:normal;font-family:COCOGOOSE;-inkscape-font-specification:COCOGOOSE;fill:#ffffff"
         id="path3550" />
      <path
         d="m 163.84703,972.6372 q 0,0.16307 -0.0575,0.31655 -0.0576,0.14389 -0.19185,0.23022 -0.10552,0.10552 -0.24941,0.1343 -0.14389,0.0288 -0.2494,0.0288 l -1.88973,0 q -0.20144,0 -0.32614,-0.048 -0.1247,-0.0575 -0.20144,-0.15348 -0.0767,-0.0959 -0.1343,-0.23022 -0.048,-0.14388 -0.10552,-0.30696 l -0.27818,-0.71943 q -0.259,0.25899 -0.56596,0.55636 -0.30696,0.28778 -0.68106,0.53718 -0.36452,0.24941 -0.79618,0.41248 -0.43166,0.17266 -0.92088,0.17266 -0.87292,0 -1.67869,-0.22062 -0.79617,-0.22063 -1.49643,-0.62352 -0.69066,-0.41247 -1.25661,-0.97843 -0.56596,-0.57555 -0.97844,-1.2758 -0.40288,-0.70026 -0.62351,-1.50602 -0.22063,-0.81537 -0.22063,-1.69788 0,-1.33335 0.48922,-2.47486 0.48922,-1.1511 1.33336,-1.99524 0.84414,-0.85373 1.98564,-1.33336 1.14151,-0.48921 2.44609,-0.48921 0.59474,0 1.09355,0.18225 0.49881,0.17267 0.90169,0.46044 0.41248,0.28778 0.73862,0.65229 0.33574,0.36452 0.59474,0.73863 l 0.3741,-1.1607 q 0.0959,-0.23981 0.15348,-0.3837 0.0671,-0.15348 0.1343,-0.22062 0.0767,-0.0767 0.18226,-0.0959 0.10551,-0.0288 0.29736,-0.0288 l 1.42929,0 q 0.10551,0 0.2494,0.0288 0.14389,0.0288 0.24941,0.1343 0.13429,0.10551 0.19185,0.23981 0.0575,0.13429 0.0575,0.30696 l 0,10.81074 z m -9.44861,-5.3718 q 0,0.63311 0.19185,1.18947 0.20144,0.54678 0.56596,0.94966 0.36451,0.40288 0.87292,0.6427 0.51799,0.23022 1.1415,0.23022 0.6427,0 1.18947,-0.23022 0.55637,-0.23982 0.95925,-0.6427 0.41248,-0.40288 0.6427,-0.94966 0.23022,-0.55636 0.23022,-1.18947 0,-0.61392 -0.23022,-1.17028 -0.23022,-0.55637 -0.6427,-0.97844 -0.40288,-0.42207 -0.95925,-0.66188 -0.54677,-0.2494 -1.18947,-0.2494 -0.62351,0 -1.1415,0.2494 -0.50841,0.23981 -0.87292,0.66188 -0.36452,0.42207 -0.56596,0.97844 -0.19185,0.55636 -0.19185,1.17028 z"
         style="font-style:normal;font-variant:normal;font-weight:normal;font-stretch:normal;font-family:COCOGOOSE;-inkscape-font-specification:COCOGOOSE;fill:#ffffff"
         id="path3552" />
      <path
         d="m 167.97061,969.55801 q 0.25899,0.259 0.55636,0.44125 0.30696,0.17267 0.58514,0.28778 0.27819,0.10552 0.48922,0.15348 0.21104,0.048 0.28778,0.048 0.18225,0 0.46044,-0.01 0.28777,-0.0192 0.54677,-0.0863 0.259,-0.0767 0.44125,-0.23982 0.19185,-0.16307 0.19185,-0.46044 0,-0.26858 -0.10551,-0.42206 -0.10552,-0.16308 -0.30696,-0.26859 -0.20145,-0.11511 -0.49881,-0.20145 -0.28778,-0.0863 -0.65229,-0.20144 -1.1511,-0.30696 -1.89932,-0.73862 -0.74821,-0.43166 -1.18947,-0.95925 -0.43166,-0.53718 -0.60433,-1.1511 -0.17266,-0.61392 -0.17266,-1.29499 0,-0.79617 0.31655,-1.44846 0.31655,-0.65229 0.9017,-1.11273 0.58514,-0.47004 1.4005,-0.71944 0.81536,-0.259 1.81298,-0.259 0.60433,0 1.13192,0.10552 0.52758,0.0959 1.00721,0.31655 0.47962,0.21104 0.93047,0.55637 0.46044,0.33573 0.91129,0.80577 0.16307,0.19185 0.16307,0.36451 0.01,0.16307 -0.21103,0.35492 -0.37411,0.30696 -0.71944,0.60433 -0.33574,0.29737 -0.70025,0.66188 -0.11511,0.0959 -0.23022,0.1247 -0.11511,0.0192 -0.22063,-0.01 -0.10552,-0.0288 -0.20144,-0.0959 -0.0959,-0.0671 -0.17267,-0.16308 -0.33573,-0.3741 -0.7674,-0.49881 -0.43166,-0.13429 -0.80577,-0.13429 -0.47003,0 -0.74821,0.16307 -0.27818,0.16307 -0.259,0.49881 0.0192,0.24941 0.18226,0.39329 0.17266,0.1343 0.41248,0.22063 0.2494,0.0863 0.51799,0.14389 0.27818,0.048 0.5084,0.11511 0.86333,0.27818 1.58276,0.60433 0.71944,0.32614 1.24703,0.80577 0.52759,0.47003 0.81536,1.13191 0.29737,0.66188 0.29737,1.61154 0,0.94966 -0.3837,1.69787 -0.37411,0.74822 -1.03599,1.25662 -0.66188,0.5084 -1.57317,0.77699 -0.90169,0.26859 -1.94728,0.26859 -0.59473,0 -1.20865,-0.10552 -0.61392,-0.10551 -1.18947,-0.33573 -0.57555,-0.23982 -1.09355,-0.60433 -0.51799,-0.37411 -0.92087,-0.9017 -0.10552,-0.13429 -0.16308,-0.27818 -0.048,-0.15348 -0.048,-0.29737 0.01,-0.14388 0.0576,-0.25899 0.0575,-0.12471 0.17266,-0.21104 l 1.23743,-1.23743 q 0.23022,-0.19185 0.40289,-0.13429 0.18225,0.0575 0.46044,0.32614 z"
         style="font-style:normal;font-variant:normal;font-weight:normal;font-stretch:normal;font-family:COCOGOOSE;-inkscape-font-specification:COCOGOOSE;fill:#ffffff"
         id="path3554" />
      <path
         d="m 180.92287,962.44038 q 0.18226,-0.26859 0.44126,-0.52759 0.259,-0.26859 0.60433,-0.47003 0.35492,-0.21104 0.79617,-0.33574 0.45085,-0.13429 1.01681,-0.13429 1.09354,0 1.94728,0.42207 0.86332,0.42207 1.45805,1.1511 0.60433,0.72903 0.91129,1.70746 0.31655,0.96884 0.31655,2.07198 l 0,6.28308 q 0,0.36452 -0.16307,0.55637 -0.15348,0.18226 -0.49881,0.18226 l -2.21586,0 q -0.41248,0 -0.56596,-0.1343 -0.15348,-0.14389 -0.15348,-0.54677 l 0,-6.34064 q 0,-0.41248 -0.16307,-0.7674 -0.15348,-0.35492 -0.42207,-0.61392 -0.26859,-0.26859 -0.63311,-0.41248 -0.35492,-0.15348 -0.75781,-0.15348 -0.34533,0 -0.68106,0.14389 -0.32615,0.13429 -0.59474,0.39329 -0.259,0.24941 -0.44125,0.60433 -0.17267,0.35492 -0.20145,0.78658 l 0,6.33105 q 0,0.16307 -0.0671,0.32615 -0.0576,0.16307 -0.18226,0.2494 -0.1247,0.0767 -0.23981,0.10552 -0.10552,0.0288 -0.24941,0.0288 l -2.1679,0 q -0.41248,0 -0.59474,-0.20145 -0.18225,-0.20144 -0.18225,-0.53718 l 0,-7.80829 0,-0.0671 0,-2.85856 0,-0.048 0,-3.55882 q 0,-0.32614 0.18225,-0.52758 0.18226,-0.20145 0.59474,-0.20145 l 2.1679,0 q 0.22063,0 0.48922,0.15348 0.1247,0.0863 0.18226,0.24941 0.0671,0.16307 0.0671,0.30696 l 0,4.19192 z"
         style="font-style:normal;font-variant:normal;font-weight:normal;font-stretch:normal;font-family:COCOGOOSE;-inkscape-font-specification:COCOGOOSE;fill:#ffffff"
         id="path3556" />
      <path
         d="m 200.93522,971.88899 q -0.84414,0.77699 -1.89931,1.21824 -1.05518,0.43167 -2.23506,0.43167 -1.31417,0 -2.48445,-0.47963 -1.17029,-0.47962 -2.0528,-1.32376 -0.88251,-0.85374 -1.4005,-2.00484 -0.51799,-1.15109 -0.51799,-2.50364 0,-0.84414 0.20144,-1.63072 0.21103,-0.79618 0.58514,-1.48684 0.3837,-0.69066 0.92088,-1.26621 0.54677,-0.58514 1.21825,-0.99762 0.67147,-0.41247 1.45806,-0.64269 0.78658,-0.23022 1.6595,-0.23022 0.79617,0 1.54439,0.21103 0.74821,0.21104 1.4005,0.59474 0.66189,0.3837 1.20866,0.92088 0.54677,0.53718 0.94006,1.17987 0.3933,0.63311 0.60433,1.36214 0.22063,0.71943 0.22063,1.48683 0,0.49881 -0.0192,0.81537 -0.01,0.31655 -0.14388,0.5084 -0.1343,0.18226 -0.45085,0.259 -0.30696,0.0671 -0.91129,0.0671 l -6.9066,0 q 0.0959,0.61392 0.3837,1.0264 0.29737,0.41248 0.68107,0.66188 0.3837,0.23981 0.81536,0.34533 0.43167,0.10552 0.81536,0.10552 0.34533,0 0.70985,-0.0671 0.36451,-0.0767 0.70025,-0.19185 0.34533,-0.1247 0.62351,-0.27818 0.28778,-0.16307 0.46044,-0.33574 0.15348,-0.1247 0.259,-0.18225 0.11511,-0.0671 0.23981,-0.0671 0.12471,0 0.24941,0.0863 0.13429,0.0863 0.29737,0.2494 l 1.0168,1.1511 q 0.10552,0.12471 0.1343,0.23022 0.0288,0.0959 0.0288,0.20145 0,0.19185 -0.10551,0.33573 -0.10552,0.1343 -0.24941,0.23982 z m -4.61399,-7.99055 q -0.37411,0 -0.72903,0.15348 -0.34533,0.14388 -0.65229,0.39329 -0.30696,0.2494 -0.55636,0.56596 -0.23982,0.31655 -0.3933,0.64269 l 4.90177,0 q -0.20144,-0.3741 -0.44126,-0.69066 -0.23022,-0.31655 -0.53718,-0.55636 -0.29736,-0.23981 -0.69066,-0.37411 -0.3837,-0.13429 -0.90169,-0.13429 z"
         style="font-style:normal;font-variant:normal;font-weight:normal;font-stretch:normal;font-family:COCOGOOSE;-inkscape-font-specification:COCOGOOSE;fill:#ffffff"
         id="path3558" />
      <path
         d="m 204.33066,961.87442 q 0,-0.16307 0.0671,-0.30696 0.0767,-0.15348 0.18226,-0.23981 0.24941,-0.16307 0.518,-0.16307 l 1.44846,0 q 0.18226,0 0.28778,0.0671 0.10552,0.0671 0.17266,0.17267 0.0767,0.10552 0.12471,0.23981 0.0575,0.1343 0.13429,0.26859 0.0192,0.0384 0.0767,0.19185 0.0576,0.14389 0.1247,0.32615 0.0671,0.17266 0.12471,0.33573 0.0671,0.15348 0.0863,0.20145 0.28777,-0.31656 0.54677,-0.66189 0.26859,-0.35492 0.56596,-0.65229 0.29737,-0.29736 0.66188,-0.48921 0.36451,-0.19185 0.86332,-0.19185 0.518,0 0.92088,0.0767 0.41248,0.0767 0.777,0.23022 0.36451,0.14388 0.71943,0.3741 0.36452,0.23022 0.78659,0.53718 0.66188,0.35493 0.2494,1.05518 l -0.87291,1.48683 q -0.19185,0.28778 -0.47004,0.35493 -0.27818,0.0671 -0.60432,-0.0863 -0.41248,-0.40288 -0.84414,-0.59473 -0.42207,-0.20144 -0.96885,-0.20144 -0.3741,0 -0.66188,0.10551 -0.27818,0.10552 -0.5084,0.29737 -0.23022,0.19185 -0.43166,0.46044 -0.20144,0.26859 -0.40289,0.59474 l 0,6.94496 q 0,0.36452 -0.18225,0.55637 -0.17267,0.18226 -0.58515,0.18226 l -2.15831,0 q -0.74821,0 -0.74821,-0.73863 l 0,-10.734 z"
         style="font-style:normal;font-variant:normal;font-weight:normal;font-stretch:normal;font-family:COCOGOOSE;-inkscape-font-specification:COCOGOOSE;fill:#ffffff"
         id="path3560" />
    </g>
    <g
       style="font-style:normal;font-weight:normal;font-size:12.87350941px;line-height:125%;font-family:sans-serif;letter-spacing:0px;word-spacing:0px;fill:#000000;fill-opacity:1;stroke:none;stroke-width:1px;stroke-linecap:butt;stroke-linejoin:miter;stroke-opacity:1"
       id="text4433-8">
      <path
         d="m 98.154376,1006.7459 q 0,-0.1351 0.0708,-0.2124 0.0708,-0.084 0.212413,-0.084 l 4.113087,0 q 0.44414,0 0.83678,0.1223 0.39264,0.1223 0.72091,0.3412 0.32828,0.2124 0.59219,0.5149 0.2639,0.2961 0.44413,0.6437 0.18667,0.3476 0.28322,0.7338 0.0966,0.3798 0.0966,0.7724 0,0.5793 -0.21241,1.1329 -0.20598,0.5535 -0.59218,0.9848 -0.38621,0.4313 -0.9269,0.7016 -0.54068,0.2639 -1.19723,0.2703 l -1.95034,0 0,3.0639 q 0,0.2768 -0.29609,0.2768 l -1.911717,0 q -0.128735,0 -0.205976,-0.064 -0.07724,-0.071 -0.07724,-0.2125 l 0,-8.9857 z m 4.846874,2.8193 q 0,-0.1931 -0.0708,-0.3862 -0.0644,-0.1931 -0.19311,-0.3411 -0.12873,-0.1545 -0.3154,-0.2511 -0.18023,-0.096 -0.41195,-0.096 l -1.36459,0 0,2.1499 1.36459,0 q 0.23172,0 0.41839,-0.09 0.18667,-0.097 0.30896,-0.2446 0.12874,-0.1481 0.19311,-0.3412 0.0708,-0.1931 0.0708,-0.3991 z"
         style="font-style:normal;font-variant:normal;font-weight:normal;font-stretch:normal;font-family:COCOGOOSE;-inkscape-font-specification:COCOGOOSE;fill:#ffffff"
         id="path3515" />
      <path
         d="m 114.8487,1015.5321 q 0,0.1094 -0.0386,0.2124 -0.0386,0.097 -0.12873,0.1545 -0.0708,0.071 -0.16736,0.09 -0.0966,0.019 -0.16735,0.019 l -1.26805,0 q -0.13517,0 -0.21885,-0.032 -0.0837,-0.039 -0.13517,-0.1029 -0.0515,-0.064 -0.0901,-0.1545 -0.0322,-0.097 -0.0708,-0.206 l -0.18666,-0.4828 q -0.17379,0.1738 -0.37977,0.3734 -0.20598,0.1931 -0.45701,0.3604 -0.2446,0.1674 -0.53425,0.2768 -0.28965,0.1159 -0.61793,0.1159 -0.58574,0 -1.12643,-0.1481 -0.53425,-0.148 -1.00413,-0.4184 -0.46345,-0.2767 -0.84322,-0.6565 -0.37977,-0.3862 -0.65655,-0.8561 -0.27034,-0.4699 -0.41839,-1.0106 -0.14804,-0.5471 -0.14804,-1.1393 0,-0.8947 0.32827,-1.6607 0.32828,-0.7724 0.89471,-1.3388 0.56643,-0.5729 1.33241,-0.8947 0.76597,-0.3283 1.64137,-0.3283 0.39908,0 0.73379,0.1223 0.33471,0.1159 0.60506,0.309 0.27678,0.1931 0.49563,0.4377 0.22528,0.2446 0.39907,0.4956 l 0.25104,-0.7788 q 0.0644,-0.161 0.10299,-0.2575 0.0451,-0.103 0.0901,-0.1481 0.0515,-0.052 0.1223,-0.064 0.0708,-0.019 0.19954,-0.019 l 0.95908,0 q 0.0708,0 0.16735,0.019 0.0965,0.019 0.16736,0.09 0.0901,0.071 0.12873,0.1609 0.0386,0.09 0.0386,0.206 l 0,7.2542 z m -6.3402,-3.6046 q 0,0.4248 0.12873,0.7982 0.13518,0.3669 0.37977,0.6372 0.2446,0.2704 0.58575,0.4313 0.34758,0.1545 0.76597,0.1545 0.43126,0 0.79816,-0.1545 0.37333,-0.1609 0.64367,-0.4313 0.27678,-0.2703 0.43127,-0.6372 0.15448,-0.3734 0.15448,-0.7982 0,-0.4119 -0.15448,-0.7853 -0.15449,-0.3733 -0.43127,-0.6565 -0.27034,-0.2832 -0.64367,-0.4441 -0.3669,-0.1674 -0.79816,-0.1674 -0.41839,0 -0.76597,0.1674 -0.34115,0.1609 -0.58575,0.4441 -0.24459,0.2832 -0.37977,0.6565 -0.12873,0.3734 -0.12873,0.7853 z"
         style="font-style:normal;font-variant:normal;font-weight:normal;font-stretch:normal;font-family:COCOGOOSE;-inkscape-font-specification:COCOGOOSE;fill:#ffffff"
         id="path3517" />
      <path
         d="m 115.89709,1008.4517 q -0.10299,-0.2575 -0.006,-0.4377 0.10299,-0.1867 0.44414,-0.1867 l 1.58988,0 q 0.16091,0 0.2639,0.103 0.10299,0.096 0.15449,0.2446 l 1.8216,5.1816 1.78298,-5.1816 q 0.0708,-0.206 0.18023,-0.2768 0.10942,-0.071 0.30252,-0.071 l 1.65425,0 q 0.18023,0 0.28322,0.051 0.10299,0.045 0.14161,0.1287 0.0451,0.077 0.0322,0.1803 -0.0129,0.096 -0.0515,0.1931 -0.2446,0.605 -0.53425,1.3259 -0.28966,0.7145 -0.60506,1.4934 -0.30896,0.7724 -0.6308,1.577 -0.32184,0.7981 -0.6308,1.5705 -0.30253,0.7725 -0.58575,1.4869 -0.28322,0.7081 -0.52138,1.3003 -0.23172,0.5986 -0.40551,1.0491 -0.17379,0.4506 -0.26391,0.6952 l 0.0193,-0.032 q -0.0451,0.1738 -0.16092,0.2768 -0.11586,0.1094 -0.28321,0.1094 l -1.48689,0 q -0.28966,0 -0.39908,-0.1158 -0.10299,-0.1094 -0.10299,-0.3283 0,-0.084 0.0193,-0.1287 0.0258,-0.045 0.0386,-0.058 l 1.01057,-2.6262 -3.07033,-7.5245 z"
         style="font-style:normal;font-variant:normal;font-weight:normal;font-stretch:normal;font-family:COCOGOOSE;-inkscape-font-specification:COCOGOOSE;fill:#ffffff"
         id="path3519" />
      <path
         d="m 124.81622,1011.9275 q 0,-0.5922 0.14804,-1.1393 0.15448,-0.5471 0.42483,-1.0106 0.27678,-0.4698 0.65655,-0.8496 0.3862,-0.3862 0.85609,-0.6566 0.46988,-0.2703 1.01057,-0.4183 0.54712,-0.1481 1.1393,-0.1481 0.8754,0 1.64137,0.3283 0.77241,0.3218 1.33885,0.8947 0.57287,0.5664 0.90114,1.3388 0.33472,0.766 0.33472,1.6607 0,0.5922 -0.15449,1.1393 -0.14804,0.5407 -0.42482,1.0106 -0.27035,0.4699 -0.65655,0.8561 -0.37977,0.3798 -0.84965,0.6565 -0.46989,0.2704 -1.01057,0.4184 -0.53425,0.1481 -1.12,0.1481 -0.59218,0 -1.1393,-0.1481 -0.54069,-0.148 -1.01057,-0.4184 -0.46989,-0.2767 -0.85609,-0.6565 -0.37977,-0.3862 -0.65655,-0.8561 -0.27035,-0.4699 -0.42483,-1.0106 -0.14804,-0.5471 -0.14804,-1.1393 z m 2.34941,0 q 0,0.4248 0.12874,0.7982 0.13517,0.3669 0.37333,0.6372 0.2446,0.2704 0.58574,0.4313 0.34759,0.1545 0.77885,0.1545 0.41839,0 0.7531,-0.1545 0.34115,-0.1609 0.57287,-0.4313 0.23816,-0.2703 0.36046,-0.6372 0.12874,-0.3734 0.12874,-0.7982 0,-0.4119 -0.12874,-0.7853 -0.1223,-0.3733 -0.36046,-0.6565 -0.23172,-0.2832 -0.57287,-0.4441 -0.33471,-0.1674 -0.7531,-0.1674 -0.43126,0 -0.77885,0.1674 -0.34114,0.1609 -0.58574,0.4441 -0.23816,0.2832 -0.37333,0.6565 -0.12874,0.3734 -0.12874,0.7853 z"
         style="font-style:normal;font-variant:normal;font-weight:normal;font-stretch:normal;font-family:COCOGOOSE;-inkscape-font-specification:COCOGOOSE;fill:#ffffff"
         id="path3521" />
      <path
         d="m 142.13531,1015.899 q -0.0837,0.071 -0.18023,0.09 -0.0901,0.019 -0.17379,0.019 l -0.97195,0 q -0.11586,0 -0.19954,-0.039 -0.0837,-0.045 -0.14161,-0.1159 -0.0579,-0.071 -0.0965,-0.1609 -0.0386,-0.09 -0.0644,-0.1866 l -0.19954,-0.8239 q -0.0966,0.1995 -0.28321,0.457 -0.18023,0.251 -0.46345,0.4763 -0.28322,0.2188 -0.67586,0.3733 -0.39264,0.1481 -0.90114,0.1481 -0.73379,0 -1.33241,-0.2833 -0.59862,-0.2832 -1.02345,-0.7724 -0.41839,-0.4892 -0.65011,-1.1393 -0.23172,-0.6565 -0.23172,-1.3968 l 0,-4.216 q 0,-0.2446 0.10299,-0.3669 0.10942,-0.1288 0.34114,-0.1288 l 1.48689,0 q 0.27679,0 0.37977,0.097 0.10299,0.09 0.10299,0.3605 l 0,4.1903 q 0,0.2768 0.1223,0.5278 0.12873,0.2446 0.33471,0.4377 0.20598,0.1867 0.46345,0.2961 0.2639,0.1094 0.53425,0.1094 0.23172,0 0.47632,-0.1094 0.25103,-0.1094 0.45701,-0.2897 0.21241,-0.1866 0.34758,-0.4312 0.13517,-0.2511 0.13517,-0.5278 l 0,-4.1839 q 0,-0.1095 0.0386,-0.2189 0.0451,-0.1094 0.12874,-0.1673 0.0837,-0.052 0.15448,-0.071 0.0772,-0.019 0.17379,-0.019 l 1.45471,0 q 0.27678,0 0.39908,0.1352 0.1223,0.1352 0.1223,0.3605 l 0,7.2027 q 0,0.1223 -0.0579,0.2253 -0.0515,0.103 -0.14805,0.1609 l 0.0386,-0.019 z"
         style="font-style:normal;font-variant:normal;font-weight:normal;font-stretch:normal;font-family:COCOGOOSE;-inkscape-font-specification:COCOGOOSE;fill:#ffffff"
         id="path3523" />
      <path
         d="m 144.34513,1006.5593 q 0,-0.1996 0.12873,-0.2961 0.13518,-0.103 0.37977,-0.1931 l 1.46115,-0.5085 q 0.0322,-0.01 0.0579,-0.01 0.0322,0 0.0579,0 0.23816,0 0.3154,0.1416 0.0837,0.1352 0.0837,0.3605 l -0.006,2.0276 1.07494,0 q 0.20597,0 0.33471,0.1223 0.12873,0.1223 0.12873,0.3669 l 0,1.2423 q 0,0.2703 -0.12873,0.399 -0.12874,0.1223 -0.33471,0.1223 l -1.07494,0 0.006,5.1752 q 0,0.2446 -0.14161,0.3733 -0.14161,0.1223 -0.39265,0.1223 l -1.4547,0 q -0.49563,0 -0.49563,-0.4956 l -0.006,-5.1752 -0.46988,0 q -0.49563,0 -0.49563,-0.5213 l 0,-1.2423 q 0,-0.4892 0.49563,-0.4892 l 0.46988,0 0.006,-1.5255 z"
         style="font-style:normal;font-variant:normal;font-weight:normal;font-stretch:normal;font-family:COCOGOOSE;-inkscape-font-specification:COCOGOOSE;fill:#ffffff"
         id="path3525" />
      <path
         d="m 149.48408,1009.0374 q 0,-0.1287 0.0708,-0.206 0.0708,-0.077 0.21241,-0.077 l 1.69931,0 q 0.10942,0 0.19954,0.077 0.0965,0.077 0.0965,0.206 l 0,1.5577 q 0,0.1159 -0.0772,0.206 -0.0708,0.09 -0.21885,0.09 l -1.69931,0 q -0.28321,0 -0.28321,-0.2961 l 0,-1.5577 z m 0,5.1172 q 0,-0.1287 0.0708,-0.2059 0.0708,-0.077 0.21241,-0.077 l 1.69931,0 q 0.10942,0 0.19954,0.077 0.0965,0.077 0.0965,0.2059 l 0,1.5577 q 0,0.1159 -0.0772,0.206 -0.0708,0.09 -0.21885,0.09 l -1.69931,0 q -0.28321,0 -0.28321,-0.2961 l 0,-1.5577 z"
         style="font-style:normal;font-variant:normal;font-weight:normal;font-stretch:normal;font-family:COCOGOOSE;-inkscape-font-specification:COCOGOOSE;fill:#ffffff"
         id="path3527" />
      <path
         d="m 158.77996,1012.9252 q 0.10942,0.09 0.27678,0.2446 0.17379,0.1481 0.39264,0.2961 0.32827,0.2189 0.65011,0.3412 0.32184,0.1223 0.67586,0.1223 0.32827,0 0.54712,-0.071 0.22529,-0.077 0.35402,-0.1995 0.12874,-0.1223 0.18023,-0.2832 0.0579,-0.1609 0.0579,-0.3412 0,-0.1995 -0.15448,-0.354 -0.14804,-0.1609 -0.36689,-0.2832 -0.21885,-0.1223 -0.45701,-0.206 -0.23816,-0.09 -0.41195,-0.148 -0.77241,-0.2704 -1.35172,-0.5793 -0.57931,-0.3154 -0.96552,-0.6952 -0.3862,-0.3862 -0.5793,-0.8432 -0.19311,-0.4635 -0.19311,-1.0299 0,-0.4956 0.16736,-0.914 0.16735,-0.4184 0.47632,-0.7467 0.30896,-0.3282 0.7531,-0.5535 0.45057,-0.2318 1.01057,-0.3412 l 0,-0.8947 q 0,-0.1159 0.0708,-0.1995 0.0708,-0.084 0.21242,-0.084 l 1.21011,0 q 0.0966,0 0.19954,0.077 0.10942,0.077 0.10942,0.206 l 0,0.8625 q 0.36046,0.064 0.70161,0.1867 0.34758,0.1159 0.68873,0.3025 0.21885,0.1288 0.41195,0.2704 0.19954,0.1351 0.34759,0.2639 0.14804,0.1287 0.23172,0.2446 0.0901,0.1158 0.0901,0.1995 0,0.084 -0.0451,0.1545 -0.0386,0.071 -0.1223,0.1609 l -0.98482,1.0492 q -0.10943,0.1094 -0.21885,0.1094 -0.0901,0 -0.16736,-0.052 -0.0708,-0.052 -0.16092,-0.1287 l -0.0579,-0.052 q -0.12873,-0.1094 -0.28965,-0.2253 -0.15449,-0.1158 -0.33471,-0.206 -0.18023,-0.096 -0.37977,-0.1544 -0.19954,-0.064 -0.40552,-0.064 -0.21241,0 -0.39908,0.039 -0.18666,0.032 -0.32827,0.1094 -0.14161,0.077 -0.22529,0.206 -0.0837,0.1223 -0.0837,0.3025 0,0.1803 0.0901,0.3154 0.0901,0.1288 0.27034,0.2446 0.18023,0.1095 0.44414,0.2125 0.27034,0.096 0.62436,0.2124 0.6823,0.2253 1.25517,0.4763 0.57931,0.2446 0.9977,0.5857 0.41839,0.3347 0.65011,0.8046 0.23816,0.4699 0.23816,1.1393 0,0.6051 -0.21241,1.1136 -0.21242,0.5021 -0.59218,0.8947 -0.37977,0.3926 -0.90115,0.6565 -0.51494,0.2575 -1.13287,0.3669 l 0,0.9205 q 0,0.2832 -0.30896,0.2832 l -1.21011,0 q -0.28322,0 -0.28322,-0.2832 l 0,-0.9398 q -0.5085,-0.1094 -0.98482,-0.3347 -0.47632,-0.2253 -0.90115,-0.5342 -0.25747,-0.1867 -0.4377,-0.3669 -0.17379,-0.1803 -0.27678,-0.2897 l -0.0193,-0.019 q -0.006,-0.013 -0.0129,-0.013 -0.006,-0.01 -0.0129,-0.013 -0.006,-0.013 -0.0129,-0.013 -0.006,-0.01 -0.0129,-0.013 -0.14805,-0.1609 -0.14805,-0.2575 0,-0.1094 0.14805,-0.2445 l 1.11355,-1.0621 q 0.13518,-0.097 0.21885,-0.097 0.0579,0 0.1223,0.039 0.0644,0.039 0.15449,0.1158 z"
         style="font-style:normal;font-variant:normal;font-weight:normal;font-stretch:normal;font-family:COCOGOOSE;-inkscape-font-specification:COCOGOOSE;fill:#ffffff"
         id="path3529" />
      <path
         d="m 165.23059,1007.4282 q 0,-0.2446 0.28321,-0.399 l 0.8754,-0.4313 q 0.16736,-0.1094 0.32828,-0.1287 0.16091,-0.019 0.41195,-0.019 l 1.4547,0 q 0.12874,0 0.21885,0.077 0.0901,0.077 0.0901,0.206 l 0,8.9921 q 0,0.2832 -0.30253,0.2832 l -1.82804,0 q -0.16092,0 -0.22528,-0.084 -0.0579,-0.09 -0.0579,-0.1866 l 0,-7.0933 -0.88184,0.4377 q -0.0322,0.013 -0.0644,0.013 -0.0322,-0.01 -0.0451,0.019 -0.1223,0 -0.19311,-0.09 -0.0644,-0.09 -0.0644,-0.2124 l 0,-1.3839 z"
         style="font-style:normal;font-variant:normal;font-weight:normal;font-stretch:normal;font-family:COCOGOOSE;-inkscape-font-specification:COCOGOOSE;fill:#ffffff"
         id="path3531" />
      <path
         d="m 170.60468,1014.1546 q 0,-0.1287 0.0708,-0.2059 0.0708,-0.077 0.21241,-0.077 l 1.69931,0 q 0.10942,0 0.19954,0.077 0.0965,0.077 0.0965,0.2059 l 0,1.5577 q 0,0.1159 -0.0772,0.206 -0.0708,0.09 -0.21885,0.09 l -1.69931,0 q -0.28321,0 -0.28321,-0.2961 l 0,-1.5577 z"
         style="font-style:normal;font-variant:normal;font-weight:normal;font-stretch:normal;font-family:COCOGOOSE;-inkscape-font-specification:COCOGOOSE;fill:#ffffff"
         id="path3533" />
      <path
         d="m 174.1467,1013.3372 q 0.006,-0.1609 0.20598,-0.1803 l 1.55126,-0.3733 q 0.0193,-0.01 0.0708,-0.01 0.0708,0 0.0966,0.032 0.0257,0.032 0.0708,0.077 0.006,0.1674 0.11586,0.3669 0.11586,0.1931 0.28321,0.3669 0.1738,0.1738 0.38621,0.2896 0.21241,0.1159 0.42483,0.1159 0.21885,0 0.43126,-0.064 0.21885,-0.064 0.3862,-0.1995 0.16736,-0.1416 0.27035,-0.3605 0.10299,-0.2252 0.10299,-0.5407 0,-0.2574 -0.10943,-0.4827 -0.10299,-0.2317 -0.28965,-0.3991 -0.18023,-0.1738 -0.41839,-0.2703 -0.23816,-0.097 -0.50851,-0.097 -0.0901,0 -0.16735,0.013 -0.0708,0.013 -0.12874,0.032 -0.25747,0.039 -0.48919,0.077 -0.22529,0.039 -0.51494,0.019 l -1.12,0 q -0.16735,0 -0.2639,-0.071 -0.0965,-0.071 -0.10943,-0.2768 0.11586,-1.1779 0.23173,-2.3236 0.11586,-1.1458 0.22528,-2.3173 0,-0.3282 0.30897,-0.3282 l 4.28687,0 q 0.0129,0 0.0258,0.01 0.0129,0 0.0322,0 l 0.51494,0 q 0.30896,0 0.30896,0.3218 0,0.3862 -0.006,0.766 0,0.3733 0,0.7596 0,0.1287 -0.0837,0.2252 -0.0837,0.097 -0.23816,0.097 l -3.16689,0 -0.0966,1.0427 q 0.18023,-0.032 0.37977,-0.045 0.19954,-0.019 0.37977,-0.019 0.74022,0 1.33884,0.2768 0.60506,0.2703 1.02988,0.7209 0.43127,0.4441 0.66299,1.0234 0.23172,0.5793 0.23172,1.1973 0,0.708 -0.28321,1.3195 -0.28322,0.605 -0.7531,1.0556 -0.46989,0.4506 -1.08782,0.7081 -0.61792,0.251 -1.28091,0.251 l 0,-0.01 q -0.60506,0 -1.12643,-0.1996 -0.52138,-0.206 -0.93333,-0.5535 -0.40552,-0.3476 -0.69517,-0.8111 -0.28966,-0.4634 -0.4377,-0.9848 -0.0193,-0.064 -0.0322,-0.1287 -0.0129,-0.064 -0.0129,-0.1223 z"
         style="font-style:normal;font-variant:normal;font-weight:normal;font-stretch:normal;font-family:COCOGOOSE;-inkscape-font-specification:COCOGOOSE;fill:#ffffff"
         id="path3535" />
      <path
         d="m 184.56097,1011.2324 q 0,0.5406 0.18667,1.0105 0.1931,0.4635 0.52781,0.8111 0.33471,0.3475 0.78528,0.5471 0.45701,0.1995 0.99127,0.1995 0.52781,0 0.98482,-0.1995 0.46344,-0.1996 0.79816,-0.5471 0.33471,-0.3476 0.52781,-0.8111 0.1931,-0.4699 0.1931,-1.0105 0,-0.5343 -0.1931,-1.0042 -0.1931,-0.4763 -0.52781,-0.8239 -0.33472,-0.354 -0.79816,-0.5535 -0.45701,-0.206 -0.98482,-0.206 -0.53426,0 -0.99127,0.206 -0.45057,0.1995 -0.78528,0.5535 -0.33471,0.3476 -0.52781,0.8239 -0.18667,0.4699 -0.18667,1.0042 z m -2.43309,0.01 q 0,-0.6759 0.17379,-1.3067 0.17379,-0.6308 0.49563,-1.1779 0.32184,-0.5471 0.76597,-0.9977 0.45058,-0.4506 0.9977,-0.766 0.54713,-0.3218 1.17149,-0.4956 0.6308,-0.1802 1.3131,-0.1802 0.67586,0 1.30666,0.1802 0.6308,0.1738 1.17793,0.4956 0.54712,0.3154 0.99126,0.766 0.45057,0.4506 0.76597,0.9977 0.32184,0.5471 0.49563,1.1779 0.18023,0.6308 0.18023,1.3067 0,0.6823 -0.18023,1.3131 -0.17379,0.6244 -0.49563,1.1715 -0.3154,0.5407 -0.76597,0.9912 -0.44414,0.4442 -0.99126,0.766 -0.54713,0.3218 -1.17793,0.4956 -0.6308,0.1738 -1.30666,0.1738 -0.6823,0 -1.3131,-0.1738 -0.62436,-0.1738 -1.17149,-0.4956 -0.54712,-0.3218 -0.9977,-0.766 -0.44413,-0.4505 -0.76597,-0.9912 -0.32184,-0.5471 -0.49563,-1.1715 -0.17379,-0.6308 -0.17379,-1.3131 z"
         style="font-style:normal;font-variant:normal;font-weight:normal;font-stretch:normal;font-family:COCOGOOSE;-inkscape-font-specification:COCOGOOSE;fill:#ffffff"
         id="path3537" />
    </g>
    <g
       id="Page-1"
       transform="translate(85.095139,836.73439)"
       style="fill:none;fill-rule:evenodd;stroke:none;stroke-width:1">
      <g
         transform="translate(-941,-24)"
         id="Artboard-4-Copy">
        <g
           transform="translate(941,24)"
           id="static-logo">
          <g
             transform="translate(26,0)"
             id="crown2">
            <path
               style="fill:#fdcb42"
               d="M 0.00456238,3.9425964 14.565216,16.291667 l -13.58219903,0 z"
               id="Rectangle-33" />
            <path
               style="fill:#fcca50"
               d="m 21.952291,16.291667 -5.927816,0 L 6.6705475,7.5593923 11.376465,0.09159851 Z"
               id="Rectangle" />
            <path
               style="fill:#fdcb42"
               d="m 17.973078,7.5533091 4.874024,-3.74735 -0.935989,10.8515569 z"
               id="Rectangle-2" />
          </g>
          <g
             transform="translate(0,12)"
             id="logo-1-copy"
             style="fill:#fecc2f">
            <path
               id="skinhub-copy"
               d="m 0.48,20.016 c 1.632,1.44 4.48,2.368 7.232,2.368 4.448,0 7.04,-2.176 7.04,-5.12 0,-4.096 -3.904,-4.736 -6.528,-5.184 C 6.592,11.792 5.76,11.536 5.76,10.832 c 0,-0.672 0.8,-1.056 1.952,-1.056 1.856,0 3.616,0.8 4.544,1.696 L 14.144,8.208 C 12.48,6.992 10.272,6.16 7.68,6.16 c -4.288,0 -6.624,2.368 -6.624,5.088 0,3.936 3.712,4.48 6.336,4.928 1.6,0.256 2.656,0.544 2.656,1.344 0,0.672 -0.608,1.152 -2.08,1.152 -1.824,0 -4.288,-1.024 -5.44,-2.048 L 0.48,20.016 Z M 27.072,22 l 6.08,0 -5.984,-8.416 5.511993,-7.04 -5.767993,0 -4.704,6.176 0,-12.064 -4.928,0 0,21.344 4.928,0 0,-3.712 1.472,-1.76 3.392,5.472 z m 7.68,0 4.928,0 0,-15.456 -4.928,0 0,15.456 z m 18.976,0 4.928,0 0,-10.944 c 0,-2.848 -1.6,-4.896 -5.12,-4.896 -2.592,0 -4.416,1.184 -5.344,2.272 l 0,-1.888 -4.928,0 0,15.456 4.928,0 0,-9.984 c 0.576,-0.704 1.536,-1.504 3.008,-1.504 1.536,0 2.528,0.672 2.528,2.56 l 0,8.928 z m 19.008,0 4.928,0 0,-11.008 c 0,-2.848 -1.6,-4.832 -5.12,-4.832 -2.592,0 -4.416,1.184 -5.344,2.272 l 0,-7.776 -4.928,0 0,21.344 4.928,0 0,-9.984 c 0.576,-0.704 1.536,-1.504 2.976,-1.504 1.568,0 2.56,0.608 2.56,2.496 l 0,8.992 z m 18.944,0 4.928,0 0,-15.456 -4.928,0 0,9.984 c -0.576,0.736 -1.536,1.504 -2.944,1.504 -1.6,0 -2.56,-0.64 -2.56,-2.496 l 0,-8.992 -4.928,0 0,11.008 c 0,2.848 1.568,4.832 5.088,4.832 2.592,0 4.384,-1.152 5.344,-2.24 l 0,1.856 z m 8.512,0 4.928,0 0,-1.792 c 1.28,1.472 2.848,2.176 4.576,2.176 3.808,0 6.816,-2.88 6.816,-8.128 0,-5.056 -2.976,-8.096 -6.816,-8.096 -1.696,0 -3.36,0.672 -4.576,2.208 l 0,-7.712 -4.928,0 0,21.344 z m 4.928,-5.344 0,-4.736 c 0.608,-0.832 1.888,-1.408 2.944,-1.408 1.952,0 3.424,1.44 3.424,3.744 0,2.336 -1.472,3.776 -3.424,3.776 -1.056,0 -2.336,-0.544 -2.944,-1.376 l 0,0 z"
               inkscape:connector-curvature="0" />
          </g>
        </g>
      </g>
    </g>
  </g>
</svg>
