<?xml version="1.0" encoding="UTF-8" standalone="no"?>
<!-- Created with Inkscape (http://www.inkscape.org/) -->

<svg
   xmlns:dc="http://purl.org/dc/elements/1.1/"
   xmlns:cc="http://creativecommons.org/ns#"
   xmlns:rdf="http://www.w3.org/1999/02/22-rdf-syntax-ns#"
   xmlns:svg="http://www.w3.org/2000/svg"
   xmlns="http://www.w3.org/2000/svg"
   xmlns:sodipodi="http://sodipodi.sourceforge.net/DTD/sodipodi-0.dtd"
   xmlns:inkscape="http://www.inkscape.org/namespaces/inkscape"
   width="400mm"
   height="120mm"
   viewBox="0 0 1417.3228 425.19685"
   id="svg2"
   version="1.1"
   inkscape:version="0.91 r13725"
   sodipodi:docname="text.svg">
  <defs
     id="defs4" />
  <sodipodi:namedview
     id="base"
     pagecolor="#ffffff"
     bordercolor="#666666"
     borderopacity="1.0"
     inkscape:pageopacity="0.0"
     inkscape:pageshadow="2"
     inkscape:zoom="0.49497475"
     inkscape:cx="967.65311"
     inkscape:cy="245.15502"
     inkscape:document-units="px"
     inkscape:current-layer="layer1"
     showgrid="false"
     inkscape:window-width="1440"
     inkscape:window-height="837"
     inkscape:window-x="-8"
     inkscape:window-y="-8"
     inkscape:window-maximized="1" />
  <metadata
     id="metadata7">
    <rdf:RDF>
      <cc:Work
         rdf:about="">
        <dc:format>image/svg+xml</dc:format>
        <dc:type
           rdf:resource="http://purl.org/dc/dcmitype/StillImage" />
        <dc:title></dc:title>
      </cc:Work>
    </rdf:RDF>
  </metadata>
  <g
     inkscape:label="Layer 1"
     inkscape:groupmode="layer"
     id="layer1"
     transform="translate(0,-627.16536)">
    <rect
       style="fill:#1a1a1a;fill-opacity:1;stroke-width:1.60000002;stroke-miterlimit:4;stroke-dasharray:none"
       id="rect5315"
       width="1329.3607"
       height="347.49246"
       x="44.446651"
       y="648.30121"
       ry="98.994926" />
    <g
       style="font-style:normal;font-variant:normal;font-weight:normal;font-stretch:normal;font-size:104.56150818px;line-height:125%;font-family:COCOGOOSE;-inkscape-font-specification:COCOGOOSE;letter-spacing:0px;word-spacing:0px;fill:#d45500;fill-opacity:1;stroke:none;stroke-width:1px;stroke-linecap:butt;stroke-linejoin:miter;stroke-opacity:1"
       id="text4138"
       transform="matrix(1.8890772,0,0,1.8890772,164.97786,-546.63579)">
      <path
         d="m 91.667371,667.90715 q 0.05228,-0.88878 0.627369,-1.56843 0.627369,-0.73193 1.620703,-0.73193 l 15.527387,0 q 0.78421,0 1.6207,0.67965 0.83649,0.62737 0.83649,1.62071 l 0,24.78107 25.98354,0 0,-24.78107 q 0,-0.94106 0.62737,-1.62071 0.67965,-0.67965 1.72526,-0.67965 l 15.31826,0 q 1.04562,0 1.82983,0.52281 0.78421,0.52281 0.78421,1.67299 l 0,73.14077 q 0,1.15018 -0.67965,1.72527 -0.67965,0.57508 -1.77755,0.57508 l -15.4751,0 q -1.04561,0 -1.72526,-0.57508 -0.62737,-0.57509 -0.62737,-1.72527 l 0,-29.69547 -25.98354,0 0,29.69547 q 0,1.0979 -0.73193,1.72527 -0.67965,0.57508 -1.88211,0.57508 l -15.370537,0 q -2.195792,0 -2.248072,-2.03895 l 0,-73.29761 z"
         style="font-style:normal;font-variant:normal;font-weight:normal;font-stretch:normal;font-family:COCOGOOSE;-inkscape-font-specification:COCOGOOSE;fill:#d45500"
         id="path4333"
         inkscape:connector-curvature="0" />
      <path
         d="m 241.37658,739.37494 q 0,0.88877 -0.31369,1.72526 -0.31368,0.78421 -1.04561,1.25474 -0.57509,0.57509 -1.3593,0.73193 -0.78421,0.15684 -1.3593,0.15684 l -10.29931,0 q -1.09789,0 -1.77754,-0.2614 -0.67965,-0.31368 -1.0979,-0.83649 -0.41825,-0.52281 -0.73193,-1.25474 -0.2614,-0.78421 -0.57509,-1.67298 l -1.51614,-3.92106 q -1.41158,1.41158 -3.08457,3.03228 -1.67298,1.56843 -3.71193,2.92772 -1.98667,1.3593 -4.3393,2.24808 -2.35264,0.94105 -5.01895,0.94105 -4.75755,0 -9.14914,-1.20246 -4.3393,-1.20245 -8.15579,-3.39825 -3.76422,-2.24807 -6.84878,-5.33263 -3.08457,-3.13685 -5.33264,-6.95334 -2.19579,-3.8165 -3.39825,-8.20808 -1.20246,-4.44387 -1.20246,-9.25369 0,-7.26703 2.66632,-13.48844 2.66632,-6.27369 7.26703,-10.8744 4.6007,-4.65298 10.82211,-7.26702 6.22141,-2.66632 13.3316,-2.66632 3.2414,0 5.96,0.99333 2.7186,0.94106 4.91439,2.50948 2.24807,1.56842 4.02562,3.55509 1.82983,1.98667 3.24141,4.02562 l 2.03895,-6.32597 q 0.5228,-1.30702 0.83649,-2.09123 0.36596,-0.83649 0.73193,-1.20246 0.41825,-0.41824 0.99333,-0.52281 0.57509,-0.15684 1.62071,-0.15684 l 7.78983,0 q 0.57509,0 1.3593,0.15684 0.78421,0.15685 1.3593,0.73193 0.73193,0.57509 1.04561,1.30702 0.31369,0.73193 0.31369,1.67299 l 0,58.92041 z m -51.49654,-29.27722 q 0,3.45053 1.04561,6.48281 1.0979,2.98 3.08457,5.17579 1.98666,2.1958 4.75754,3.50281 2.82316,1.25474 6.22141,1.25474 3.50281,0 6.48282,-1.25474 3.03228,-1.30701 5.22807,-3.50281 2.24807,-2.19579 3.50281,-5.17579 1.25474,-3.03228 1.25474,-6.48281 0,-3.34597 -1.25474,-6.37826 -1.25474,-3.03228 -3.50281,-5.33263 -2.19579,-2.30036 -5.22807,-3.60738 -2.98001,-1.3593 -6.48282,-1.3593 -3.39825,0 -6.22141,1.3593 -2.77088,1.30702 -4.75754,3.60738 -1.98667,2.30035 -3.08457,5.33263 -1.04561,3.03229 -1.04561,6.37826 z"
         style="font-style:normal;font-variant:normal;font-weight:normal;font-stretch:normal;font-family:COCOGOOSE;-inkscape-font-specification:COCOGOOSE;fill:#d45500"
         id="path4335"
         inkscape:connector-curvature="0" />
      <path
         d="m 263.85077,722.59282 q 1.41158,1.41158 3.03229,2.40491 1.67298,0.94105 3.18912,1.56842 1.51614,0.57509 2.66632,0.83649 1.15018,0.26141 1.56842,0.26141 0.99334,0 2.50948,-0.0523 1.56842,-0.10456 2.98,-0.47053 1.41158,-0.41824 2.40492,-1.30702 1.04561,-0.88877 1.04561,-2.50947 0,-1.46387 -0.57509,-2.30036 -0.57509,-0.88877 -1.67298,-1.46386 -1.0979,-0.62737 -2.7186,-1.09789 -1.56842,-0.47053 -3.55509,-1.0979 -6.27369,-1.67298 -10.35159,-4.02562 -4.0779,-2.35263 -6.48281,-5.22807 -2.35264,-2.92773 -3.29369,-6.27369 -0.94106,-3.34597 -0.94106,-7.05791 0,-4.3393 1.72527,-7.89439 1.72526,-3.55509 4.91439,-6.06457 3.18913,-2.56175 7.63299,-3.92105 4.44386,-1.41158 9.88106,-1.41158 3.29369,0 6.16913,0.57508 2.87544,0.52281 5.48948,1.72527 2.61404,1.15018 5.07123,3.03228 2.50948,1.82983 4.96668,4.39159 0.88877,1.04561 0.88877,1.98666 0.0523,0.88878 -1.15018,1.93439 -2.03895,1.67299 -3.92105,3.29369 -1.82983,1.6207 -3.8165,3.60737 -0.62737,0.52281 -1.25474,0.67965 -0.62737,0.10456 -1.20245,-0.0523 -0.57509,-0.15684 -1.0979,-0.52281 -0.52281,-0.36596 -0.94105,-0.88877 -1.82983,-2.03895 -4.18246,-2.7186 -2.35264,-0.73193 -4.39159,-0.73193 -2.56175,0 -4.0779,0.88877 -1.51614,0.88878 -1.41158,2.7186 0.10456,1.3593 0.99334,2.14351 0.94105,0.73193 2.24807,1.20246 1.3593,0.47053 2.82316,0.78421 1.51614,0.26141 2.77088,0.62737 4.70527,1.51614 8.62632,3.29369 3.92106,1.77755 6.7965,4.39158 2.87544,2.56176 4.44387,6.16913 1.6207,3.60737 1.6207,8.78317 0,5.17579 -2.09123,9.25369 -2.03895,4.0779 -5.64632,6.84878 -3.60737,2.77088 -8.57405,4.23474 -4.91439,1.46386 -10.61299,1.46386 -3.2414,0 -6.58737,-0.57509 -3.34597,-0.57508 -6.48282,-1.82982 -3.13684,-1.30702 -5.96,-3.29369 -2.82316,-2.03895 -5.01896,-4.91439 -0.57508,-0.73193 -0.88877,-1.51614 -0.2614,-0.83649 -0.2614,-1.62071 0.0523,-0.78421 0.31368,-1.41158 0.31369,-0.67965 0.94106,-1.15017 l 6.74421,-6.74422 q 1.25474,-1.04561 2.1958,-0.73193 0.99333,0.31368 2.50947,1.77755 z"
         style="font-style:normal;font-variant:normal;font-weight:normal;font-stretch:normal;font-family:COCOGOOSE;-inkscape-font-specification:COCOGOOSE;fill:#d45500"
         id="path4337"
         inkscape:connector-curvature="0" />
      <path
         d="m 334.44285,683.8005 q 0.99334,-1.46387 2.40492,-2.87545 1.41158,-1.46386 3.29369,-2.56175 1.93438,-1.15018 4.3393,-1.82983 2.45719,-0.73193 5.54176,-0.73193 5.96,0 10.61299,2.30035 4.70527,2.30036 7.94668,6.27369 3.29368,3.97334 4.96667,9.30598 1.72526,5.28035 1.72526,11.29264 l 0,34.2439 q 0,1.98666 -0.88877,3.03228 -0.83649,0.99333 -2.7186,0.99333 l -12.07685,0 q -2.24808,0 -3.08457,-0.73193 -0.83649,-0.78421 -0.83649,-2.98 l 0,-34.55758 q 0,-2.24807 -0.88877,-4.18246 -0.8365,-1.93439 -2.30036,-3.34597 -1.46386,-1.46386 -3.45053,-2.24807 -1.93438,-0.83649 -4.13018,-0.83649 -1.8821,0 -3.71193,0.78421 -1.77755,0.73193 -3.24141,2.14351 -1.41158,1.3593 -2.40491,3.29369 -0.94105,1.93439 -1.0979,4.28702 l 0,34.5053 q 0,0.88877 -0.36596,1.77754 -0.31369,0.88878 -0.99334,1.3593 -0.67965,0.41825 -1.30702,0.57509 -0.57508,0.15684 -1.35929,0.15684 l -11.81546,0 q -2.24807,0 -3.2414,-1.09789 -0.99334,-1.0979 -0.99334,-2.92772 l 0,-42.55654 0,-0.36596 0,-15.57967 0,-0.2614 0,-19.39616 q 0,-1.77755 0.99334,-2.87544 0.99333,-1.0979 3.2414,-1.0979 l 11.81546,0 q 1.20245,0 2.66631,0.83649 0.67965,0.47053 0.99334,1.3593 0.36596,0.88878 0.36596,1.67299 l 0,22.84669 z"
         style="font-style:normal;font-variant:normal;font-weight:normal;font-stretch:normal;font-family:COCOGOOSE;-inkscape-font-specification:COCOGOOSE;fill:#d45500"
         id="path4339"
         inkscape:connector-curvature="0" />
      <path
         d="m 443.51357,735.29704 q -4.6007,4.23474 -10.35159,6.63965 -5.75088,2.35264 -12.18141,2.35264 -7.16247,0 -13.54072,-2.61404 -6.37825,-2.61404 -11.18808,-7.21474 -4.80983,-4.65299 -7.63299,-10.92668 -2.82316,-6.27369 -2.82316,-13.64528 0,-4.6007 1.0979,-8.88773 1.15017,-4.3393 3.18912,-8.10351 2.09123,-3.76422 5.01895,-6.90106 2.98001,-3.18913 6.63966,-5.4372 3.65965,-2.24807 7.94667,-3.50281 4.28703,-1.25474 9.04457,-1.25474 4.33931,0 8.41721,1.15018 4.07789,1.15017 7.63299,3.2414 3.60737,2.09123 6.58737,5.01896 2.98,2.92772 5.12352,6.43053 2.14351,3.45053 3.29368,7.42387 1.20246,3.92105 1.20246,8.10351 0,2.7186 -0.10456,4.44387 -0.0523,1.72526 -0.78421,2.77088 -0.73193,0.99333 -2.4572,1.41158 -1.67298,0.36596 -4.96667,0.36596 l -37.64214,0 q 0.5228,3.34597 2.09123,5.59404 1.6207,2.24808 3.71193,3.60738 2.09123,1.30701 4.44386,1.8821 2.35264,0.57509 4.44387,0.57509 1.88211,0 3.86877,-0.36596 1.98667,-0.41825 3.8165,-1.04562 1.88211,-0.67965 3.39825,-1.51614 1.56842,-0.88877 2.50947,-1.82983 0.8365,-0.67965 1.41159,-0.99333 0.62736,-0.36597 1.30701,-0.36597 0.67965,0 1.3593,0.47053 0.73193,0.47053 1.62071,1.3593 l 5.54176,6.27369 q 0.57509,0.67965 0.73193,1.25474 0.15684,0.52281 0.15684,1.09789 0,1.04562 -0.57509,1.82983 -0.57509,0.73193 -1.3593,1.30702 z m -25.14704,-43.54987 q -2.03895,0 -3.97334,0.83649 -1.88211,0.78421 -3.55509,2.14351 -1.67298,1.3593 -3.03228,3.08457 -1.30702,1.72526 -2.14351,3.50281 l 26.71546,0 q -1.09789,-2.03895 -2.40491,-3.76422 -1.25474,-1.72526 -2.92773,-3.03228 -1.6207,-1.30702 -3.76421,-2.03895 -2.09123,-0.73193 -4.91439,-0.73193 z"
         style="font-style:normal;font-variant:normal;font-weight:normal;font-stretch:normal;font-family:COCOGOOSE;-inkscape-font-specification:COCOGOOSE;fill:#d45500"
         id="path4341"
         inkscape:connector-curvature="0" />
      <path
         d="m 462.01933,680.71593 q 0,-0.88877 0.36596,-1.67298 0.41825,-0.83649 0.99334,-1.30702 1.3593,-0.88877 2.82316,-0.88877 l 7.89439,0 q 0.99333,0 1.56842,0.36596 0.57509,0.36597 0.94106,0.94105 0.41824,0.57509 0.67965,1.30702 0.31368,0.73193 0.73193,1.46386 0.10456,0.20913 0.41824,1.04562 0.31369,0.78421 0.67965,1.77755 0.36597,0.94105 0.67965,1.82982 0.36597,0.83649 0.47053,1.0979 1.56842,-1.72527 2.98,-3.60737 1.46386,-1.93439 3.08457,-3.5551 1.6207,-1.6207 3.60737,-2.66631 1.98667,-1.04562 4.70527,-1.04562 2.82316,0 5.01895,0.41825 2.24807,0.41824 4.23474,1.25473 1.98667,0.78422 3.92106,2.03895 1.98667,1.25474 4.28702,2.92773 3.60737,1.93438 1.3593,5.75088 l -4.75755,8.10352 q -1.04562,1.56842 -2.56176,1.93438 -1.51614,0.36597 -3.29368,-0.47052 -2.24808,-2.19579 -4.60071,-3.24141 -2.30035,-1.0979 -5.28036,-1.0979 -2.03895,0 -3.60737,0.57509 -1.51614,0.57509 -2.77088,1.62071 -1.25474,1.04561 -2.35263,2.50947 -1.0979,1.46386 -2.19579,3.24141 l 0,37.85127 q 0,1.98666 -0.99334,3.03228 -0.94105,0.99333 -3.18913,0.99333 l -11.76316,0 q -4.0779,0 -4.0779,-4.02561 l 0,-58.50217 z"
         style="font-style:normal;font-variant:normal;font-weight:normal;font-stretch:normal;font-family:COCOGOOSE;-inkscape-font-specification:COCOGOOSE;fill:#d45500"
         id="path4343"
         inkscape:connector-curvature="0" />
    </g>
    <g
       style="font-style:normal;font-weight:normal;font-size:40px;line-height:125%;font-family:sans-serif;letter-spacing:0px;word-spacing:0px;fill:#000000;fill-opacity:1;stroke:none;stroke-width:1px;stroke-linecap:butt;stroke-linejoin:miter;stroke-opacity:1"
       id="text4346"
       transform="translate(177.78685,-113.13707)">
      <path
         d="m 274.03998,1022.7599 q 0,-0.42 0.22,-0.66 0.24,-0.24 0.56,-0.26 l 19.14,0 q 0.46,0 0.68,0.26 0.24,0.26 0.24,0.7 l 0,4.96 q 0,0.34 -0.24,0.66 -0.24,0.3 -0.7,0.3 l -12.16,0 0,6.18 8.98,0 q 0.38,0 0.64,0.22 0.26,0.2 0.26,0.66 l 0,4.78 q 0,0.34 -0.24,0.66 -0.22,0.3 -0.62,0.3 l -9.02,0 0,9.16 q 0,0.86 -0.92,0.86 l -6.1,0 q -0.72,-0.1 -0.72,-0.84 l 0,-27.94 z"
         style="font-style:normal;font-variant:normal;font-weight:normal;font-stretch:normal;font-family:COCOGOOSE;-inkscape-font-specification:COCOGOOSE;fill:#ffffff"
         id="path4351"
         inkscape:connector-curvature="0" />
      <path
         d="m 298.99748,1027.6199 q 0,-0.34 0.14,-0.64 0.16,-0.32 0.38,-0.5 0.52,-0.34 1.08,-0.34 l 3.02,0 q 0.38,0 0.6,0.14 0.22,0.14 0.36,0.36 0.16,0.22 0.26,0.5 0.12,0.28 0.28,0.56 0.04,0.08 0.16,0.4 0.12,0.3 0.26,0.68 0.14,0.36 0.26,0.7 0.14,0.32 0.18,0.42 0.6,-0.66 1.14,-1.38 0.56,-0.74 1.18,-1.36 0.62,-0.62 1.38,-1.02 0.76,-0.4 1.8,-0.4 1.08,0 1.92,0.16 0.86,0.16 1.62,0.48 0.76,0.3 1.5,0.78 0.76,0.48 1.64,1.12 1.38,0.74 0.52,2.2 l -1.82,3.1 q -0.4,0.6 -0.98,0.74 -0.58,0.14 -1.26,-0.18 -0.86,-0.84 -1.76,-1.24 -0.88,-0.42 -2.02,-0.42 -0.78,0 -1.38,0.22 -0.58,0.22 -1.06,0.62 -0.48,0.4 -0.9,0.96 -0.42,0.56 -0.84,1.24 l 0,14.48 q 0,0.76 -0.38,1.16 -0.36,0.38 -1.22,0.38 l -4.5,0 q -1.56,0 -1.56,-1.54 l 0,-22.38 z"
         style="font-style:normal;font-variant:normal;font-weight:normal;font-stretch:normal;font-family:COCOGOOSE;-inkscape-font-specification:COCOGOOSE;fill:#ffffff"
         id="path4353"
         inkscape:connector-curvature="0" />
      <path
         d="m 341.41029,1048.4999 q -1.76,1.62 -3.96,2.54 -2.2,0.9 -4.66,0.9 -2.74,0 -5.18,-1 -2.44,-1 -4.28,-2.76 -1.84,-1.78 -2.92,-4.18 -1.08,-2.4 -1.08,-5.22 0,-1.76 0.42,-3.4 0.44,-1.66 1.22,-3.1 0.8,-1.44 1.92,-2.64 1.14,-1.22 2.54,-2.08 1.4,-0.86 3.04,-1.34 1.64,-0.48 3.46,-0.48 1.66,0 3.22,0.44 1.56,0.44 2.92,1.24 1.38,0.8 2.52,1.92 1.14,1.12 1.96,2.46 0.82,1.32 1.26,2.84 0.46,1.5 0.46,3.1 0,1.04 -0.04,1.7 -0.02,0.66 -0.3,1.06 -0.28,0.38 -0.94,0.54 -0.64,0.14 -1.9,0.14 l -14.4,0 q 0.2,1.28 0.8,2.14 0.62,0.86 1.42,1.38 0.8,0.5 1.7,0.72 0.9,0.22 1.7,0.22 0.72,0 1.48,-0.14 0.76,-0.16 1.46,-0.4 0.72,-0.26 1.3,-0.58 0.6,-0.34 0.96,-0.7 0.32,-0.26 0.54,-0.38 0.24,-0.14 0.5,-0.14 0.26,0 0.52,0.18 0.28,0.18 0.62,0.52 l 2.12,2.4 q 0.22,0.26 0.28,0.48 0.06,0.2 0.06,0.42 0,0.4 -0.22,0.7 -0.22,0.28 -0.52,0.5 z m -9.62,-16.66 q -0.78,0 -1.52,0.32 -0.72,0.3 -1.36,0.82 -0.64,0.52 -1.16,1.18 -0.5,0.66 -0.82,1.34 l 10.22,0 q -0.42,-0.78 -0.92,-1.44 -0.48,-0.66 -1.12,-1.16 -0.62,-0.5 -1.44,-0.78 -0.8,-0.28 -1.88,-0.28 z"
         style="font-style:normal;font-variant:normal;font-weight:normal;font-stretch:normal;font-family:COCOGOOSE;-inkscape-font-specification:COCOGOOSE;fill:#ffffff"
         id="path4355"
         inkscape:connector-curvature="0" />
      <path
         d="m 369.80873,1048.4999 q -1.76,1.62 -3.96,2.54 -2.2,0.9 -4.66,0.9 -2.74,0 -5.18,-1 -2.44,-1 -4.28,-2.76 -1.84,-1.78 -2.92,-4.18 -1.08,-2.4 -1.08,-5.22 0,-1.76 0.42,-3.4 0.44,-1.66 1.22,-3.1 0.8,-1.44 1.92,-2.64 1.14,-1.22 2.54,-2.08 1.4,-0.86 3.04,-1.34 1.64,-0.48 3.46,-0.48 1.66,0 3.22,0.44 1.56,0.44 2.92,1.24 1.38,0.8 2.52,1.92 1.14,1.12 1.96,2.46 0.82,1.32 1.26,2.84 0.46,1.5 0.46,3.1 0,1.04 -0.04,1.7 -0.02,0.66 -0.3,1.06 -0.28,0.38 -0.94,0.54 -0.64,0.14 -1.9,0.14 l -14.4,0 q 0.2,1.28 0.8,2.14 0.62,0.86 1.42,1.38 0.8,0.5 1.7,0.72 0.9,0.22 1.7,0.22 0.72,0 1.48,-0.14 0.76,-0.16 1.46,-0.4 0.72,-0.26 1.3,-0.58 0.6,-0.34 0.96,-0.7 0.32,-0.26 0.54,-0.38 0.24,-0.14 0.5,-0.14 0.26,0 0.52,0.18 0.28,0.18 0.62,0.52 l 2.12,2.4 q 0.22,0.26 0.28,0.48 0.06,0.2 0.06,0.42 0,0.4 -0.22,0.7 -0.22,0.28 -0.52,0.5 z m -9.62,-16.66 q -0.78,0 -1.52,0.32 -0.72,0.3 -1.36,0.82 -0.64,0.52 -1.16,1.18 -0.5,0.66 -0.82,1.34 l 10.22,0 q -0.42,-0.78 -0.92,-1.44 -0.48,-0.66 -1.12,-1.16 -0.62,-0.5 -1.44,-0.78 -0.8,-0.28 -1.88,-0.28 z"
         style="font-style:normal;font-variant:normal;font-weight:normal;font-stretch:normal;font-family:COCOGOOSE;-inkscape-font-specification:COCOGOOSE;fill:#ffffff"
         id="path4357"
         inkscape:connector-curvature="0" />
      <path
         d="m 405.72623,1043.7199 q 0.28,-0.2 0.52,-0.24 0.26,-0.06 0.4,-0.06 0.34,0 0.62,0.14 0.28,0.14 0.58,0.6 l 2.24,3.38 q 0.1,0.16 0.18,0.36 0.1,0.2 0.1,0.32 0,0.46 -0.3,0.76 -0.28,0.28 -0.62,0.5 -1.64,1.14 -3.6,1.84 -1.94,0.68 -4.12,0.68 -1.8,0 -3.48,-0.46 -1.66,-0.46 -3.1,-1.3 -1.44,-0.86 -2.64,-2.04 -1.2,-1.2 -2.04,-2.66 -0.84,-1.46 -1.32,-3.14 -0.46,-1.7 -0.46,-3.54 0,-1.84 0.46,-3.54 0.48,-1.7 1.32,-3.14 0.84,-1.46 2.04,-2.64 1.2,-1.2 2.64,-2.04 1.44,-0.84 3.1,-1.3 1.68,-0.46 3.48,-0.46 2.18,0 4.02,0.58 1.86,0.58 3.48,1.72 l -0.06,-0.06 q 0.44,0.26 0.7,0.62 0.26,0.34 0.26,0.86 0,0.36 -0.24,0.74 l -1.78,3.02 q -0.56,0.98 -1.36,0.98 -0.18,0 -0.44,-0.08 -0.26,-0.1 -0.58,-0.32 -0.88,-0.58 -1.9,-0.94 -1,-0.38 -2.14,-0.38 -1.26,0 -2.32,0.52 -1.06,0.5 -1.82,1.38 -0.74,0.88 -1.16,2.04 -0.42,1.16 -0.42,2.44 0,1.32 0.42,2.48 0.42,1.14 1.16,1.98 0.76,0.84 1.82,1.34 1.06,0.48 2.32,0.48 1.14,0 2.14,-0.4 1,-0.4 1.9,-1.02 z"
         style="font-style:normal;font-variant:normal;font-weight:normal;font-stretch:normal;font-family:COCOGOOSE;-inkscape-font-specification:COCOGOOSE;fill:#ffffff"
         id="path4359"
         inkscape:connector-curvature="0" />
      <path
         d="m 412.55342,1038.8599 q 0,-1.84 0.46,-3.54 0.48,-1.7 1.32,-3.14 0.86,-1.46 2.04,-2.64 1.2,-1.2 2.66,-2.04 1.46,-0.84 3.14,-1.3 1.7,-0.46 3.54,-0.46 2.72,0 5.1,1.02 2.4,1 4.16,2.78 1.78,1.76 2.8,4.16 1.04,2.38 1.04,5.16 0,1.84 -0.48,3.54 -0.46,1.68 -1.32,3.14 -0.84,1.46 -2.04,2.66 -1.18,1.18 -2.64,2.04 -1.46,0.84 -3.14,1.3 -1.66,0.46 -3.48,0.46 -1.84,0 -3.54,-0.46 -1.68,-0.46 -3.14,-1.3 -1.46,-0.86 -2.66,-2.04 -1.18,-1.2 -2.04,-2.66 -0.84,-1.46 -1.32,-3.14 -0.46,-1.7 -0.46,-3.54 z m 7.3,0 q 0,1.32 0.4,2.48 0.42,1.14 1.16,1.98 0.76,0.84 1.82,1.34 1.08,0.48 2.42,0.48 1.3,0 2.34,-0.48 1.06,-0.5 1.78,-1.34 0.74,-0.84 1.12,-1.98 0.4,-1.16 0.4,-2.48 0,-1.28 -0.4,-2.44 -0.38,-1.16 -1.12,-2.04 -0.72,-0.88 -1.78,-1.38 -1.04,-0.52 -2.34,-0.52 -1.34,0 -2.42,0.52 -1.06,0.5 -1.82,1.38 -0.74,0.88 -1.16,2.04 -0.4,1.16 -0.4,2.44 z"
         style="font-style:normal;font-variant:normal;font-weight:normal;font-stretch:normal;font-family:COCOGOOSE;-inkscape-font-specification:COCOGOOSE;fill:#ffffff"
         id="path4361"
         inkscape:connector-curvature="0" />
      <path
         d="m 460.7256,1048.4399 q -0.54,0.54 -1.2,1.16 -0.64,0.62 -1.42,1.16 -0.78,0.54 -1.68,0.88 -0.9,0.36 -1.94,0.36 -2.72,0 -5.02,-1.02 -2.28,-1.02 -3.94,-2.78 -1.64,-1.78 -2.58,-4.18 -0.92,-2.4 -0.92,-5.16 0,-2.78 0.92,-5.16 0.94,-2.4 2.58,-4.16 1.66,-1.78 3.94,-2.78 2.3,-1.02 5.02,-1.02 1.1,0 2,0.32 0.92,0.32 1.66,0.82 0.76,0.5 1.38,1.14 0.64,0.62 1.2,1.22 l 0,-9.14 q 0,-0.64 0.38,-1.08 0.4,-0.44 1.18,-0.44 l 4.5,0 q 0.26,0 0.54,0.12 0.3,0.1 0.54,0.3 0.24,0.2 0.38,0.48 0.16,0.28 0.16,0.62 l 0,29.9 q 0,1.54 -1.62,1.54 l -3.92,0 q -0.4,0 -0.62,-0.1 -0.22,-0.1 -0.38,-0.28 -0.14,-0.2 -0.26,-0.48 -0.12,-0.3 -0.3,-0.68 l -0.58,-1.56 z m -11.5,-9.58 q 0,1.32 0.4,2.48 0.42,1.14 1.18,1.98 0.76,0.84 1.82,1.34 1.08,0.48 2.38,0.48 1.28,0 2.4,-0.46 1.14,-0.46 1.98,-1.26 0.84,-0.82 1.34,-1.92 0.52,-1.1 0.58,-2.36 l 0,-0.28 q 0,-1.28 -0.48,-2.44 -0.48,-1.16 -1.34,-2.04 -0.84,-0.88 -2,-1.38 -1.14,-0.52 -2.48,-0.52 -1.3,0 -2.38,0.52 -1.06,0.5 -1.82,1.38 -0.76,0.88 -1.18,2.04 -0.4,1.16 -0.4,2.44 z"
         style="font-style:normal;font-variant:normal;font-weight:normal;font-stretch:normal;font-family:COCOGOOSE;-inkscape-font-specification:COCOGOOSE;fill:#ffffff"
         id="path4363"
         inkscape:connector-curvature="0" />
      <path
         d="m 495.0431,1048.4999 q -1.76,1.62 -3.96,2.54 -2.2,0.9 -4.66,0.9 -2.74,0 -5.18,-1 -2.44,-1 -4.28,-2.76 -1.84,-1.78 -2.92,-4.18 -1.08,-2.4 -1.08,-5.22 0,-1.76 0.42,-3.4 0.44,-1.66 1.22,-3.1 0.8,-1.44 1.92,-2.64 1.14,-1.22 2.54,-2.08 1.4,-0.86 3.04,-1.34 1.64,-0.48 3.46,-0.48 1.66,0 3.22,0.44 1.56,0.44 2.92,1.24 1.38,0.8 2.52,1.92 1.14,1.12 1.96,2.46 0.82,1.32 1.26,2.84 0.46,1.5 0.46,3.1 0,1.04 -0.04,1.7 -0.02,0.66 -0.3,1.06 -0.28,0.38 -0.94,0.54 -0.64,0.14 -1.9,0.14 l -14.4,0 q 0.2,1.28 0.8,2.14 0.62,0.86 1.42,1.38 0.8,0.5 1.7,0.72 0.9,0.22 1.7,0.22 0.72,0 1.48,-0.14 0.76,-0.16 1.46,-0.4 0.72,-0.26 1.3,-0.58 0.6,-0.34 0.96,-0.7 0.32,-0.26 0.54,-0.38 0.24,-0.14 0.5,-0.14 0.26,0 0.52,0.18 0.28,0.18 0.62,0.52 l 2.12,2.4 q 0.22,0.26 0.28,0.48 0.06,0.2 0.06,0.42 0,0.4 -0.22,0.7 -0.22,0.28 -0.52,0.5 z m -9.62,-16.66 q -0.78,0 -1.52,0.32 -0.72,0.3 -1.36,0.82 -0.64,0.52 -1.16,1.18 -0.5,0.66 -0.82,1.34 l 10.22,0 q -0.42,-0.78 -0.92,-1.44 -0.48,-0.66 -1.12,-1.16 -0.62,-0.5 -1.44,-0.78 -0.8,-0.28 -1.88,-0.28 z"
         style="font-style:normal;font-variant:normal;font-weight:normal;font-stretch:normal;font-family:COCOGOOSE;-inkscape-font-specification:COCOGOOSE;fill:#ffffff"
         id="path4365"
         inkscape:connector-curvature="0" />
      <path
         d="m 505.92248,1043.6399 q 0.54,0.54 1.16,0.92 0.64,0.36 1.22,0.6 0.58,0.22 1.02,0.32 0.44,0.1 0.6,0.1 0.38,0 0.96,-0.02 0.6,-0.04 1.14,-0.18 0.54,-0.16 0.92,-0.5 0.4,-0.34 0.4,-0.96 0,-0.56 -0.22,-0.88 -0.22,-0.34 -0.64,-0.56 -0.42,-0.24 -1.04,-0.42 -0.6,-0.18 -1.36,-0.42 -2.4,-0.64 -3.96,-1.54 -1.56,-0.9 -2.48,-2 -0.9,-1.12 -1.26,-2.4 -0.36,-1.28 -0.36,-2.7 0,-1.66 0.66,-3.02 0.66,-1.36 1.88,-2.32 1.22,-0.98 2.92,-1.5 1.7,-0.54 3.78,-0.54 1.26,0 2.36,0.22 1.1,0.2 2.1,0.66 1,0.44 1.94,1.16 0.96,0.7 1.9,1.68 0.34,0.4 0.34,0.76 0.02,0.34 -0.44,0.74 -0.78,0.64 -1.5,1.26 -0.7,0.62 -1.46,1.38 -0.24,0.2 -0.48,0.26 -0.24,0.04 -0.46,-0.02 -0.22,-0.06 -0.42,-0.2 -0.2,-0.14 -0.36,-0.34 -0.7,-0.78 -1.6,-1.04 -0.9,-0.28 -1.68,-0.28 -0.98,0 -1.56,0.34 -0.58,0.34 -0.54,1.04 0.04,0.52 0.38,0.82 0.36,0.28 0.86,0.46 0.52,0.18 1.08,0.3 0.58,0.1 1.06,0.24 1.8,0.58 3.3,1.26 1.5,0.68 2.6,1.68 1.1,0.98 1.7,2.36 0.62,1.38 0.62,3.36 0,1.98 -0.8,3.54 -0.78,1.56 -2.16,2.62 -1.38,1.06 -3.28,1.62 -1.88,0.56 -4.06,0.56 -1.24,0 -2.52,-0.22 -1.28,-0.22 -2.48,-0.7 -1.2,-0.5 -2.28,-1.26 -1.08,-0.78 -1.92,-1.88 -0.22,-0.28 -0.34,-0.58 -0.1,-0.32 -0.1,-0.62 0.02,-0.3 0.12,-0.54 0.12,-0.26 0.36,-0.44 l 2.58,-2.58 q 0.48,-0.4 0.84,-0.28 0.38,0.12 0.96,0.68 z"
         style="font-style:normal;font-variant:normal;font-weight:normal;font-stretch:normal;font-family:COCOGOOSE;-inkscape-font-specification:COCOGOOSE;fill:#ffffff"
         id="path4367"
         inkscape:connector-curvature="0" />
      <path
         d="m 540.2456,1026.4999 q 0,-1.86 0.8,-3.5 0.8,-1.64 2.14,-2.86 1.34,-1.24 3.08,-1.94 1.74,-0.72 3.64,-0.72 l 0.4,0 q 0.68,0 1.04,0.42 0.38,0.4 0.38,1.12 l 0,3.82 q 0,0.74 -0.4,1.24 -0.38,0.48 -1.02,0.48 l -0.4,0 q -0.42,0 -0.8,0.16 -0.38,0.14 -0.68,0.4 -0.3,0.26 -0.48,0.62 -0.18,0.34 -0.18,0.76 l 0,2.3 3.14,0 q 0.68,0 1.04,0.38 0.38,0.36 0.38,1.16 l 0,3.66 q 0,0.86 -0.38,1.26 -0.36,0.4 -1.04,0.4 l -3.14,0 0,14.34 q 0,0.76 -0.52,1.16 -0.5,0.38 -1.1,0.38 l -4.32,0 q -0.72,0 -1.16,-0.44 -0.42,-0.46 -0.42,-1.1 l 0,-14.34 -2.06,0 q -0.7,0 -1.14,-0.4 -0.42,-0.4 -0.42,-1.26 l 0,-3.66 q 0,-0.8 0.42,-1.16 0.44,-0.38 1.14,-0.38 l 2.06,0 0,-2.3 z"
         style="font-style:normal;font-variant:normal;font-weight:normal;font-stretch:normal;font-family:COCOGOOSE;-inkscape-font-specification:COCOGOOSE;fill:#ffffff"
         id="path4369"
         inkscape:connector-curvature="0" />
      <path
         d="m 554.38935,1038.8599 q 0,-1.84 0.46,-3.54 0.48,-1.7 1.32,-3.14 0.86,-1.46 2.04,-2.64 1.2,-1.2 2.66,-2.04 1.46,-0.84 3.14,-1.3 1.7,-0.46 3.54,-0.46 2.72,0 5.1,1.02 2.4,1 4.16,2.78 1.78,1.76 2.8,4.16 1.04,2.38 1.04,5.16 0,1.84 -0.48,3.54 -0.46,1.68 -1.32,3.14 -0.84,1.46 -2.04,2.66 -1.18,1.18 -2.64,2.04 -1.46,0.84 -3.14,1.3 -1.66,0.46 -3.48,0.46 -1.84,0 -3.54,-0.46 -1.68,-0.46 -3.14,-1.3 -1.46,-0.86 -2.66,-2.04 -1.18,-1.2 -2.04,-2.66 -0.84,-1.46 -1.32,-3.14 -0.46,-1.7 -0.46,-3.54 z m 7.3,0 q 0,1.32 0.4,2.48 0.42,1.14 1.16,1.98 0.76,0.84 1.82,1.34 1.08,0.48 2.42,0.48 1.3,0 2.34,-0.48 1.06,-0.5 1.78,-1.34 0.74,-0.84 1.12,-1.98 0.4,-1.16 0.4,-2.48 0,-1.28 -0.4,-2.44 -0.38,-1.16 -1.12,-2.04 -0.72,-0.88 -1.78,-1.38 -1.04,-0.52 -2.34,-0.52 -1.34,0 -2.42,0.52 -1.06,0.5 -1.82,1.38 -0.74,0.88 -1.16,2.04 -0.4,1.16 -0.4,2.44 z"
         style="font-style:normal;font-variant:normal;font-weight:normal;font-stretch:normal;font-family:COCOGOOSE;-inkscape-font-specification:COCOGOOSE;fill:#ffffff"
         id="path4371"
         inkscape:connector-curvature="0" />
      <path
         d="m 584.62248,1027.6199 q 0,-0.34 0.14,-0.64 0.16,-0.32 0.38,-0.5 0.52,-0.34 1.08,-0.34 l 3.02,0 q 0.38,0 0.6,0.14 0.22,0.14 0.36,0.36 0.16,0.22 0.26,0.5 0.12,0.28 0.28,0.56 0.04,0.08 0.16,0.4 0.12,0.3 0.26,0.68 0.14,0.36 0.26,0.7 0.14,0.32 0.18,0.42 0.6,-0.66 1.14,-1.38 0.56,-0.74 1.18,-1.36 0.62,-0.62 1.38,-1.02 0.76,-0.4 1.8,-0.4 1.08,0 1.92,0.16 0.86,0.16 1.62,0.48 0.76,0.3 1.5,0.78 0.76,0.48 1.64,1.12 1.38,0.74 0.52,2.2 l -1.82,3.1 q -0.4,0.6 -0.98,0.74 -0.58,0.14 -1.26,-0.18 -0.86,-0.84 -1.76,-1.24 -0.88,-0.42 -2.02,-0.42 -0.78,0 -1.38,0.22 -0.58,0.22 -1.06,0.62 -0.48,0.4 -0.9,0.96 -0.42,0.56 -0.84,1.24 l 0,14.48 q 0,0.76 -0.38,1.16 -0.36,0.38 -1.22,0.38 l -4.5,0 q -1.56,0 -1.56,-1.54 l 0,-22.38 z"
         style="font-style:normal;font-variant:normal;font-weight:normal;font-stretch:normal;font-family:COCOGOOSE;-inkscape-font-specification:COCOGOOSE;fill:#ffffff"
         id="path4373"
         inkscape:connector-curvature="0" />
      <path
         d="m 622.66748,1026.4999 q 0,-1.86 0.8,-3.5 0.8,-1.64 2.14,-2.86 1.34,-1.24 3.08,-1.94 1.74,-0.72 3.64,-0.72 l 0.4,0 q 0.68,0 1.04,0.42 0.38,0.4 0.38,1.12 l 0,3.82 q 0,0.74 -0.4,1.24 -0.38,0.48 -1.02,0.48 l -0.4,0 q -0.42,0 -0.8,0.16 -0.38,0.14 -0.68,0.4 -0.3,0.26 -0.48,0.62 -0.18,0.34 -0.18,0.76 l 0,2.3 3.14,0 q 0.68,0 1.04,0.38 0.38,0.36 0.38,1.16 l 0,3.66 q 0,0.86 -0.38,1.26 -0.36,0.4 -1.04,0.4 l -3.14,0 0,14.34 q 0,0.76 -0.52,1.16 -0.5,0.38 -1.1,0.38 l -4.32,0 q -0.72,0 -1.16,-0.44 -0.42,-0.46 -0.42,-1.1 l 0,-14.34 -2.06,0 q -0.7,0 -1.14,-0.4 -0.42,-0.4 -0.42,-1.26 l 0,-3.66 q 0,-0.8 0.42,-1.16 0.44,-0.38 1.14,-0.38 l 2.06,0 0,-2.3 z"
         style="font-style:normal;font-variant:normal;font-weight:normal;font-stretch:normal;font-family:COCOGOOSE;-inkscape-font-specification:COCOGOOSE;fill:#ffffff"
         id="path4375"
         inkscape:connector-curvature="0" />
      <path
         d="m 637.59123,1027.6199 q 0,-0.34 0.14,-0.64 0.16,-0.32 0.38,-0.5 0.52,-0.34 1.08,-0.34 l 3.02,0 q 0.38,0 0.6,0.14 0.22,0.14 0.36,0.36 0.16,0.22 0.26,0.5 0.12,0.28 0.28,0.56 0.04,0.08 0.16,0.4 0.12,0.3 0.26,0.68 0.14,0.36 0.26,0.7 0.14,0.32 0.18,0.42 0.6,-0.66 1.14,-1.38 0.56,-0.74 1.18,-1.36 0.62,-0.62 1.38,-1.02 0.76,-0.4 1.8,-0.4 1.08,0 1.92,0.16 0.86,0.16 1.62,0.48 0.76,0.3 1.5,0.78 0.76,0.48 1.64,1.12 1.38,0.74 0.52,2.2 l -1.82,3.1 q -0.4,0.6 -0.98,0.74 -0.58,0.14 -1.26,-0.18 -0.86,-0.84 -1.76,-1.24 -0.88,-0.42 -2.02,-0.42 -0.78,0 -1.38,0.22 -0.58,0.22 -1.06,0.62 -0.48,0.4 -0.9,0.96 -0.42,0.56 -0.84,1.24 l 0,14.48 q 0,0.76 -0.38,1.16 -0.36,0.38 -1.22,0.38 l -4.5,0 q -1.56,0 -1.56,-1.54 l 0,-22.38 z"
         style="font-style:normal;font-variant:normal;font-weight:normal;font-stretch:normal;font-family:COCOGOOSE;-inkscape-font-specification:COCOGOOSE;fill:#ffffff"
         id="path4377"
         inkscape:connector-curvature="0" />
      <path
         d="m 680.00404,1048.4999 q -1.76,1.62 -3.96,2.54 -2.2,0.9 -4.66,0.9 -2.74,0 -5.18,-1 -2.44,-1 -4.28,-2.76 -1.84,-1.78 -2.92,-4.18 -1.08,-2.4 -1.08,-5.22 0,-1.76 0.42,-3.4 0.44,-1.66 1.22,-3.1 0.8,-1.44 1.92,-2.64 1.14,-1.22 2.54,-2.08 1.4,-0.86 3.04,-1.34 1.64,-0.48 3.46,-0.48 1.66,0 3.22,0.44 1.56,0.44 2.92,1.24 1.38,0.8 2.52,1.92 1.14,1.12 1.96,2.46 0.82,1.32 1.26,2.84 0.46,1.5 0.46,3.1 0,1.04 -0.04,1.7 -0.02,0.66 -0.3,1.06 -0.28,0.38 -0.94,0.54 -0.64,0.14 -1.9,0.14 l -14.4,0 q 0.2,1.28 0.8,2.14 0.62,0.86 1.42,1.38 0.8,0.5 1.7,0.72 0.9,0.22 1.7,0.22 0.72,0 1.48,-0.14 0.76,-0.16 1.46,-0.4 0.72,-0.26 1.3,-0.58 0.6,-0.34 0.96,-0.7 0.32,-0.26 0.54,-0.38 0.24,-0.14 0.5,-0.14 0.26,0 0.52,0.18 0.28,0.18 0.62,0.52 l 2.12,2.4 q 0.22,0.26 0.28,0.48 0.06,0.2 0.06,0.42 0,0.4 -0.22,0.7 -0.22,0.28 -0.52,0.5 z m -9.62,-16.66 q -0.78,0 -1.52,0.32 -0.72,0.3 -1.36,0.82 -0.64,0.52 -1.16,1.18 -0.5,0.66 -0.82,1.34 l 10.22,0 q -0.42,-0.78 -0.92,-1.44 -0.48,-0.66 -1.12,-1.16 -0.62,-0.5 -1.44,-0.78 -0.8,-0.28 -1.88,-0.28 z"
         style="font-style:normal;font-variant:normal;font-weight:normal;font-stretch:normal;font-family:COCOGOOSE;-inkscape-font-specification:COCOGOOSE;fill:#ffffff"
         id="path4379"
         inkscape:connector-curvature="0" />
      <path
         d="m 708.40248,1048.4999 q -1.76,1.62 -3.96,2.54 -2.2,0.9 -4.66,0.9 -2.74,0 -5.18,-1 -2.44,-1 -4.28,-2.76 -1.84,-1.78 -2.92,-4.18 -1.08,-2.4 -1.08,-5.22 0,-1.76 0.42,-3.4 0.44,-1.66 1.22,-3.1 0.8,-1.44 1.92,-2.64 1.14,-1.22 2.54,-2.08 1.4,-0.86 3.04,-1.34 1.64,-0.48 3.46,-0.48 1.66,0 3.22,0.44 1.56,0.44 2.92,1.24 1.38,0.8 2.52,1.92 1.14,1.12 1.96,2.46 0.82,1.32 1.26,2.84 0.46,1.5 0.46,3.1 0,1.04 -0.04,1.7 -0.02,0.66 -0.3,1.06 -0.28,0.38 -0.94,0.54 -0.64,0.14 -1.9,0.14 l -14.4,0 q 0.2,1.28 0.8,2.14 0.62,0.86 1.42,1.38 0.8,0.5 1.7,0.72 0.9,0.22 1.7,0.22 0.72,0 1.48,-0.14 0.76,-0.16 1.46,-0.4 0.72,-0.26 1.3,-0.58 0.6,-0.34 0.96,-0.7 0.32,-0.26 0.54,-0.38 0.24,-0.14 0.5,-0.14 0.26,0 0.52,0.18 0.28,0.18 0.62,0.52 l 2.12,2.4 q 0.22,0.26 0.28,0.48 0.06,0.2 0.06,0.42 0,0.4 -0.22,0.7 -0.22,0.28 -0.52,0.5 z m -9.62,-16.66 q -0.78,0 -1.52,0.32 -0.72,0.3 -1.36,0.82 -0.64,0.52 -1.16,1.18 -0.5,0.66 -0.82,1.34 l 10.22,0 q -0.42,-0.78 -0.92,-1.44 -0.48,-0.66 -1.12,-1.16 -0.62,-0.5 -1.44,-0.78 -0.8,-0.28 -1.88,-0.28 z"
         style="font-style:normal;font-variant:normal;font-weight:normal;font-stretch:normal;font-family:COCOGOOSE;-inkscape-font-specification:COCOGOOSE;fill:#ffffff"
         id="path4381"
         inkscape:connector-curvature="0" />
      <path
         d="m 731.85998,1043.6399 q 0.54,0.54 1.16,0.92 0.64,0.36 1.22,0.6 0.58,0.22 1.02,0.32 0.44,0.1 0.6,0.1 0.38,0 0.96,-0.02 0.6,-0.04 1.14,-0.18 0.54,-0.16 0.92,-0.5 0.4,-0.34 0.4,-0.96 0,-0.56 -0.22,-0.88 -0.22,-0.34 -0.64,-0.56 -0.42,-0.24 -1.04,-0.42 -0.6,-0.18 -1.36,-0.42 -2.4,-0.64 -3.96,-1.54 -1.56,-0.9 -2.48,-2 -0.9,-1.12 -1.26,-2.4 -0.36,-1.28 -0.36,-2.7 0,-1.66 0.66,-3.02 0.66,-1.36 1.88,-2.32 1.22,-0.98 2.92,-1.5 1.7,-0.54 3.78,-0.54 1.26,0 2.36,0.22 1.1,0.2 2.1,0.66 1,0.44 1.94,1.16 0.96,0.7 1.9,1.68 0.34,0.4 0.34,0.76 0.02,0.34 -0.44,0.74 -0.78,0.64 -1.5,1.26 -0.7,0.62 -1.46,1.38 -0.24,0.2 -0.48,0.26 -0.24,0.04 -0.46,-0.02 -0.22,-0.06 -0.42,-0.2 -0.2,-0.14 -0.36,-0.34 -0.7,-0.78 -1.6,-1.04 -0.9,-0.28 -1.68,-0.28 -0.98,0 -1.56,0.34 -0.58,0.34 -0.54,1.04 0.04,0.52 0.38,0.82 0.36,0.28 0.86,0.46 0.52,0.18 1.08,0.3 0.58,0.1 1.06,0.24 1.8,0.58 3.3,1.26 1.5,0.68 2.6,1.68 1.1,0.98 1.7,2.36 0.62,1.38 0.62,3.36 0,1.98 -0.8,3.54 -0.78,1.56 -2.16,2.62 -1.38,1.06 -3.28,1.62 -1.88,0.56 -4.06,0.56 -1.24,0 -2.52,-0.22 -1.28,-0.22 -2.48,-0.7 -1.2,-0.5 -2.28,-1.26 -1.08,-0.78 -1.92,-1.88 -0.22,-0.28 -0.34,-0.58 -0.1,-0.32 -0.1,-0.62 0.02,-0.3 0.12,-0.54 0.12,-0.26 0.36,-0.44 l 2.58,-2.58 q 0.48,-0.4 0.84,-0.28 0.38,0.12 0.96,0.68 z"
         style="font-style:normal;font-variant:normal;font-weight:normal;font-stretch:normal;font-family:COCOGOOSE;-inkscape-font-specification:COCOGOOSE;fill:#ffffff"
         id="path4383"
         inkscape:connector-curvature="0" />
      <path
         d="m 751.18498,1020.1199 q 0,-0.34 0.02,-0.62 0.02,-0.28 0.16,-0.48 0.16,-0.2 0.48,-0.3 0.32,-0.12 0.9,-0.12 l 4.78,0 q 0.38,0 0.62,0.14 0.26,0.12 0.4,0.32 0.16,0.2 0.2,0.44 0.06,0.22 0.06,0.42 l 0,14.8 7.2,-8 q 0.52,-0.58 1.24,-0.58 l 6.14,0 q 1.1,0 1.1,0.86 0,0.22 -0.08,0.36 -0.06,0.14 -0.28,0.4 l -8.22,8.68 10.34,13.28 -0.04,0 q 0.26,0.26 0.36,0.54 0.12,0.26 0.12,0.48 0,0.46 -0.26,0.64 -0.24,0.16 -0.74,0.16 l -6.76,0 q -0.34,0 -0.64,-0.26 -0.3,-0.26 -0.66,-0.78 l -6.54,-9.26 -2.22,2.3 0,6.46 q 0,0.16 -0.06,0.42 -0.04,0.26 -0.2,0.52 -0.14,0.24 -0.4,0.42 -0.26,0.18 -0.68,0.18 l -5.02,0 q -0.36,0 -0.62,-0.18 -0.26,-0.2 -0.42,-0.44 -0.14,-0.24 -0.22,-0.44 -0.06,-0.22 -0.06,-0.26 l 0,-30.1 z"
         style="font-style:normal;font-variant:normal;font-weight:normal;font-stretch:normal;font-family:COCOGOOSE;-inkscape-font-specification:COCOGOOSE;fill:#ffffff"
         id="path4385"
         inkscape:connector-curvature="0" />
      <path
         d="m 779.44623,1027.6999 q 0,-0.64 0.36,-1.1 0.36,-0.46 1.12,-0.46 l 4.58,0 q 0.24,0 0.52,0.12 0.28,0.1 0.52,0.32 0.24,0.2 0.4,0.48 0.18,0.28 0.18,0.64 l 0,22.3 q 0,0.76 -0.42,1.16 -0.42,0.38 -1.2,0.38 l -4.58,0 q -1.48,0 -1.48,-1.54 l 0,-22.3 z m 0,-10.12 q 0,-0.84 0.36,-1.18 0.36,-0.36 1.12,-0.36 l 4.64,0 q 0.7,0 1.12,0.36 0.44,0.34 0.44,1.18 l 0,3.9 q 0,0.24 -0.12,0.52 -0.1,0.28 -0.3,0.54 -0.2,0.26 -0.5,0.44 -0.28,0.16 -0.64,0.16 l -4.64,0 q -1.48,0 -1.48,-1.66 l 0,-3.9 z"
         style="font-style:normal;font-variant:normal;font-weight:normal;font-stretch:normal;font-family:COCOGOOSE;-inkscape-font-specification:COCOGOOSE;fill:#ffffff"
         id="path4387"
         inkscape:connector-curvature="0" />
      <path
         d="m 792.4081,1026.4799 q 0.26,-0.22 0.54,-0.28 0.3,-0.06 0.56,-0.06 l 3.02,0 q 0.36,0 0.62,0.14 0.26,0.12 0.44,0.34 0.18,0.22 0.28,0.5 0.12,0.28 0.22,0.58 l 0.62,2.56 q 0.3,-0.62 0.86,-1.4 0.58,-0.8 1.46,-1.48 0.88,-0.7 2.08,-1.16 1.22,-0.48 2.82,-0.48 2.28,0 4.14,0.88 1.86,0.88 3.16,2.4 1.32,1.52 2.04,3.56 0.72,2.02 0.72,4.32 l 0,13.1 q 0,0.76 -0.34,1.16 -0.32,0.38 -1.04,0.38 l -4.62,0 q -0.86,0 -1.18,-0.28 -0.32,-0.3 -0.32,-1.14 l 0,-13.02 q 0,-0.86 -0.4,-1.62 -0.38,-0.78 -1.02,-1.36 -0.64,-0.6 -1.46,-0.94 -0.8,-0.34 -1.64,-0.34 -0.72,0 -1.48,0.32 -0.74,0.32 -1.38,0.9 -0.62,0.56 -1.06,1.34 -0.42,0.76 -0.48,1.66 l 0,13 q 0,0.34 -0.14,0.68 -0.12,0.34 -0.38,0.52 -0.26,0.16 -0.5,0.22 -0.22,0.06 -0.52,0.06 l -4.52,0 q -0.86,0 -1.24,-0.42 -0.38,-0.42 -0.38,-1.12 l 0,-22.38 q 0,-0.38 0.16,-0.7 0.18,-0.32 0.48,-0.5 l -0.12,0.06 z"
         style="font-style:normal;font-variant:normal;font-weight:normal;font-stretch:normal;font-family:COCOGOOSE;-inkscape-font-specification:COCOGOOSE;fill:#ffffff"
         id="path4389"
         inkscape:connector-curvature="0" />
      <path
         d="m 824.59435,1043.6399 q 0.54,0.54 1.16,0.92 0.64,0.36 1.22,0.6 0.58,0.22 1.02,0.32 0.44,0.1 0.6,0.1 0.38,0 0.96,-0.02 0.6,-0.04 1.14,-0.18 0.54,-0.16 0.92,-0.5 0.4,-0.34 0.4,-0.96 0,-0.56 -0.22,-0.88 -0.22,-0.34 -0.64,-0.56 -0.42,-0.24 -1.04,-0.42 -0.6,-0.18 -1.36,-0.42 -2.4,-0.64 -3.96,-1.54 -1.56,-0.9 -2.48,-2 -0.9,-1.12 -1.26,-2.4 -0.36,-1.28 -0.36,-2.7 0,-1.66 0.66,-3.02 0.66,-1.36 1.88,-2.32 1.22,-0.98 2.92,-1.5 1.7,-0.54 3.78,-0.54 1.26,0 2.36,0.22 1.1,0.2 2.1,0.66 1,0.44 1.94,1.16 0.96,0.7 1.9,1.68 0.34,0.4 0.34,0.76 0.02,0.34 -0.44,0.74 -0.78,0.64 -1.5,1.26 -0.7,0.62 -1.46,1.38 -0.24,0.2 -0.48,0.26 -0.24,0.04 -0.46,-0.02 -0.22,-0.06 -0.42,-0.2 -0.2,-0.14 -0.36,-0.34 -0.7,-0.78 -1.6,-1.04 -0.9,-0.28 -1.68,-0.28 -0.98,0 -1.56,0.34 -0.58,0.34 -0.54,1.04 0.04,0.52 0.38,0.82 0.36,0.28 0.86,0.46 0.52,0.18 1.08,0.3 0.58,0.1 1.06,0.24 1.8,0.58 3.3,1.26 1.5,0.68 2.6,1.68 1.1,0.98 1.7,2.36 0.62,1.38 0.62,3.36 0,1.98 -0.8,3.54 -0.78,1.56 -2.16,2.62 -1.38,1.06 -3.28,1.62 -1.88,0.56 -4.06,0.56 -1.24,0 -2.52,-0.22 -1.28,-0.22 -2.48,-0.7 -1.2,-0.5 -2.28,-1.26 -1.08,-0.78 -1.92,-1.88 -0.22,-0.28 -0.34,-0.58 -0.1,-0.32 -0.1,-0.62 0.02,-0.3 0.12,-0.54 0.12,-0.26 0.36,-0.44 l 2.58,-2.58 q 0.48,-0.4 0.84,-0.28 0.38,0.12 0.96,0.68 z"
         style="font-style:normal;font-variant:normal;font-weight:normal;font-stretch:normal;font-family:COCOGOOSE;-inkscape-font-specification:COCOGOOSE;fill:#ffffff"
         id="path4391"
         inkscape:connector-curvature="0" />
    </g>
  </g>
</svg>
