<?xml version="1.0" encoding="UTF-8" standalone="no"?>
<!-- Created with Inkscape (http://www.inkscape.org/) -->

<svg
   xmlns:dc="http://purl.org/dc/elements/1.1/"
   xmlns:cc="http://creativecommons.org/ns#"
   xmlns:rdf="http://www.w3.org/1999/02/22-rdf-syntax-ns#"
   xmlns:svg="http://www.w3.org/2000/svg"
   xmlns="http://www.w3.org/2000/svg"
   xmlns:xlink="http://www.w3.org/1999/xlink"
   xmlns:sodipodi="http://sodipodi.sourceforge.net/DTD/sodipodi-0.dtd"
   xmlns:inkscape="http://www.inkscape.org/namespaces/inkscape"
   width="80mm"
   height="80mm"
   viewBox="0 0 283.46457 283.46456"
   id="svg2"
   version="1.1"
   inkscape:version="0.91 r13725"
   sodipodi:docname="Wildcase.svg">
  <defs
     id="defs4">
    <linearGradient
       id="linearGradient-1"
       y2="100%"
       x2="50%"
       y1="0%"
       x1="50%">
      <stop
         id="stop4816"
         offset="0%"
         stop-color="#FFBA68" />
      <stop
         id="stop4818"
         offset="100%"
         stop-color="#F64B6A" />
    </linearGradient>
    <path
       id="path-2"
       d="M20.8380925,2.3948969 C20.4954312,3.05711319 15.5696745,13.6525738 14.8415191,14.9983682 L14.6487721,14.9983682 C13.5779555,13.631212 11.0936608,10.1065124 10.3655054,9.08114523 C9.14477441,10.7900905 6.81039406,14.2293428 5.91090805,15.4683281 L5.71816105,15.4683281 C4.96858938,14.0157247 1.07081668,4.36018395 0.149914335,2.15991693 L4.24043404,0.664589823 C4.90434038,2.86485685 6.36065106,7.5430945 6.66047973,8.39756713 C6.9603084,7.84215992 8.60936608,5.27874203 10.3655054,2.35217327 L10.5582524,2.35217327 C12.2501428,4.95831479 13.7278698,6.94496366 14.4131925,8.03441626 L14.4774415,8.03441626 C14.8843518,6.98768729 16.4905768,1.94629877 16.8974872,0.83548435 L20.8380925,2.3948969 Z" />
    <mask
       height="18.8037383"
       width="24.6881782"
       y="-2"
       x="-2"
       maskUnits="objectBoundingBox"
       maskContentUnits="userSpaceOnUse"
       id="mask-3">
      <rect
         id="rect4822"
         fill="white"
         height="18.8037383"
         width="24.6881782"
         y="-1.33541018"
         x="-1.85008567" />
      <use
         id="use4824"
         fill="black"
         xlink:href="#path-2" />
    </mask>
    <path
       id="path-4"
       d="M26.5134209,8.69663255 C26.5134209,10.619196 26.5776699,14.0584483 26.5990862,14.5070464 L22.1230725,14.5070464 C22.1659052,13.6525738 22.1873215,9.16659249 22.1873215,8.65390892 L22.1873215,6.58181279 C22.1873215,6.26138555 22.1230725,1.3054443 22.1230725,0.856846165 L26.5990862,0.856846165 C26.5776699,1.19863522 26.5134209,4.31746032 26.5134209,6.62453642 L26.5134209,8.69663255 Z" />
    <mask
       height="17.6502003"
       width="8.47601371"
       y="-2"
       x="-2"
       maskUnits="objectBoundingBox"
       maskContentUnits="userSpaceOnUse"
       id="mask-5">
      <rect
         id="rect4828"
         fill="white"
         height="17.6502003"
         width="8.47601371"
         y="-1.14315383"
         x="20.1230725" />
      <use
         id="use4830"
         fill="black"
         xlink:href="#path-4" />
    </mask>
    <path
       id="path-6"
       d="M33.4094803,0.856846165 C33.388064,1.3054443 33.3023986,5.25738021 33.3023986,7.67126539 L33.3023986,11.195965 C33.773558,11.195965 36.0436893,11.195965 37.5856653,11.1105177 L37.6070817,14.677941 C37.1359223,14.677941 30.4540263,14.4856846 28.9120503,14.4856846 C28.9762993,13.4603175 28.9762993,9.35884884 28.9762993,8.88888889 L28.9762993,6.325471 C28.9762993,6.02640558 28.9334666,1.19863522 28.8906339,0.83548435 L33.4094803,0.83548435 L33.4094803,0.856846165 Z" />
    <mask
       height="17.8424566"
       width="12.7164477"
       y="-2"
       x="-2"
       maskUnits="objectBoundingBox"
       maskContentUnits="userSpaceOnUse"
       id="mask-7">
      <rect
         id="rect4834"
         fill="white"
         height="17.8424566"
         width="12.7164477"
         y="-1.16451565"
         x="26.8906339" />
      <use
         id="use4836"
         fill="black"
         xlink:href="#path-6" />
    </mask>
    <path
       id="path-8"
       d="M40.2327242,6.04776739 C40.2327242,5.64189289 40.2113078,1.39089156 40.1256425,0.856846165 C43.6807539,0.856846165 45.7367219,0.963655244 47.5356939,1.19863522 C52.5899486,1.88221332 53.5536836,4.50971666 53.5536836,6.06912921 C53.5536836,12.1145231 46.3363792,14.6138555 40.1256425,14.6138555 C40.2113078,13.7380211 40.2327242,8.95297434 40.2327242,8.44029076 L40.2327242,6.04776739 L40.2327242,6.04776739 Z M44.4731582,11.1105177 C46.3577955,10.8114523 48.9705882,9.4442961 48.9705882,6.75270731 C48.9705882,4.48835484 46.6576242,3.95430945 44.4731582,3.95430945 L44.4731582,11.1105177 Z" />
    <mask
       height="17.7570093"
       width="17.4280411"
       y="-2"
       x="-2"
       maskUnits="objectBoundingBox"
       maskContentUnits="userSpaceOnUse"
       id="mask-9">
      <rect
         id="rect4840"
         fill="white"
         height="17.7570093"
         width="17.4280411"
         y="-1.14315383"
         x="38.1256425" />
      <use
         id="use4842"
         fill="black"
         xlink:href="#path-8" />
    </mask>
    <path
       id="path-10"
       d="M68.656482,13.0758048 C69.234723,12.0931613 74.5673901,3.078475 76.4520274,0.13054443 L76.6447744,0.13054443 C78.9577384,3.6125204 84.1404911,11.7513722 84.9543118,12.8408248 L81.1422045,15.0838155 C80.5853798,14.1438956 79.6002284,12.4349503 79.4074814,12.1145231 L73.6036551,12.4349503 C73.4537407,12.7126539 72.7470017,14.207981 72.3400914,15.1051773 L68.656482,13.0758048 Z M78.0796688,9.42293428 C77.5442604,8.33348168 76.8161051,6.96632547 76.4520274,6.17593829 C75.9808681,7.09449637 75.3169617,8.52573802 74.8243861,9.59382881 L78.0796688,9.42293428 Z" />
    <mask
       height="18.9746328"
       width="20.2978298"
       y="-2"
       x="-2"
       maskUnits="objectBoundingBox"
       maskContentUnits="userSpaceOnUse"
       id="mask-11">
      <rect
         id="rect4846"
         fill="white"
         height="18.9746328"
         width="20.2978298"
         y="-1.86945557"
         x="66.656482" />
      <use
         id="use4848"
         fill="black"
         xlink:href="#path-10" />
    </mask>
    <path
       id="path-12"
       d="M86.0251285,11.5591159 C87.8883495,11.6232013 89.9443175,11.0891559 89.9443175,10.1919596 C89.9443175,9.80744697 89.6230725,9.57246699 88.0596802,8.69663255 C86.8389492,8.01305444 85.4468875,7.05177273 85.4468875,5.42827474 C85.4468875,3.27073135 88.3166762,0.920931613 93.1996002,0.515057113 L93.7135922,3.71932948 C91.3149629,3.71932948 90.0942319,4.12520398 90.0942319,4.91559116 C90.0942319,5.38555111 90.7153055,5.66325471 91.9574529,6.28274737 C92.9854369,6.77406913 94.6344946,7.64990358 94.6344946,9.38021065 C94.6344946,11.4950304 92.4286122,14.1866192 86.5605368,14.8488355 L86.0251285,11.5591159 Z" />
    <mask
       height="18.3337784"
       width="13.1876071"
       y="-2"
       x="-2"
       maskUnits="objectBoundingBox"
       maskContentUnits="userSpaceOnUse"
       id="mask-13">
      <rect
         id="rect4852"
         fill="white"
         height="18.3337784"
         width="13.1876071"
         y="-1.48494289"
         x="83.4468875" />
      <use
         id="use4854"
         fill="black"
         xlink:href="#path-12" />
    </mask>
    <path
       id="path-14"
       d="M104.978584,14.6993028 C104.293261,14.6993028 97.3329526,14.5070464 96.3263849,14.5070464 C96.3906339,13.4816793 96.3906339,9.38021065 96.3906339,8.93161252 L96.3906339,6.34683281 C96.3906339,6.04776739 96.3478013,1.41225337 96.3263849,0.856846165 C97.3972016,0.856846165 103.886351,0.557780745 104.59309,0.515057113 L104.678755,3.67660584 C103.972016,3.67660584 100.930897,3.78341492 100.588235,3.78341492 L100.588235,6.325471 C100.973729,6.325471 103.179612,6.21866192 104.036265,6.15457647 L104.100514,9.23067794 C103.586522,9.23067794 101.016562,9.14523068 100.588235,9.14523068 L100.588235,11.430945 C101.080811,11.430945 103.993432,11.4736686 104.914335,11.3882213 L104.978584,14.6993028 Z" />
    <mask
       height="18.1842457"
       width="12.6521987"
       y="-2"
       x="-2"
       maskUnits="objectBoundingBox"
       maskContentUnits="userSpaceOnUse"
       id="mask-15">
      <rect
         id="rect4858"
         fill="white"
         height="18.1842457"
         width="12.6521987"
         y="-1.48494289"
         x="94.3263849" />
      <use
         id="use4860"
         fill="black"
         xlink:href="#path-14" />
    </mask>
    <path
       id="path-16"
       d="M66.5662479,14.6565791 C65.9023415,14.7420264 65.1956025,14.8061119 64.2961165,14.8061119 C57.9782981,14.8061119 55.6439178,11.6018395 55.6439178,9.01705978 C55.6439178,5.83414924 58.5565391,1.96766058 65.1956025,0.536418929 L66.0522559,4.23201305 C61.9831525,4.95831479 60.3555111,6.7313455 60.3555111,8.54709984 C60.3555111,10.0210651 61.9831525,11.2386886 64.5316962,11.2386886 C65.3026842,11.2386886 65.9237579,11.1746032 66.3735009,11.1318795 L66.5662479,14.6565791 Z" />
    <mask
       height="18.2696929"
       width="14.9223301"
       y="-2"
       x="-2"
       maskUnits="objectBoundingBox"
       maskContentUnits="userSpaceOnUse"
       id="mask-17">
      <rect
         id="rect4864"
         fill="white"
         height="18.2696929"
         width="14.9223301"
         y="-1.46358107"
         x="53.6439178" />
      <use
         id="use4866"
         fill="black"
         xlink:href="#path-16" />
    </mask>
    <linearGradient
       inkscape:collect="always"
       xlink:href="#linearGradient-1"
       id="linearGradient4992"
       x1="13.075624"
       y1="4.8392293"
       x2="13.075624"
       y2="30.990477"
       gradientTransform="scale(0.80653868,1.2398661)"
       gradientUnits="userSpaceOnUse" />
    <linearGradient
       inkscape:collect="always"
       xlink:href="#linearGradient-1"
       id="linearGradient4994"
       x1="27.93082"
       y1="-1.5034776e-006"
       x2="27.93082"
       y2="35.226744"
       gradientTransform="scale(0.78761862,1.26965)"
       gradientUnits="userSpaceOnUse" />
    <linearGradient
       inkscape:collect="always"
       xlink:href="#linearGradient-1"
       id="linearGradient4996"
       x1="40.893355"
       y1="4.8946922"
       x2="40.893355"
       y2="31.894667"
       gradientTransform="scale(0.81578454,1.2258139)"
       gradientUnits="userSpaceOnUse" />
    <linearGradient
       inkscape:collect="always"
       xlink:href="#linearGradient-1"
       id="linearGradient4998"
       x1="22.274548"
       y1="-1.9013555e-006"
       x2="22.274548"
       y2="44.549093"
       gradientTransform="scale(0.99605274,1.0039629)"
       gradientUnits="userSpaceOnUse" />
  </defs>
  <sodipodi:namedview
     id="base"
     pagecolor="#ffffff"
     bordercolor="#666666"
     borderopacity="1.0"
     inkscape:pageopacity="0.0"
     inkscape:pageshadow="2"
     inkscape:zoom="1.1139676"
     inkscape:cx="22.684546"
     inkscape:cy="215.02722"
     inkscape:document-units="px"
     inkscape:current-layer="layer1"
     showgrid="false"
     inkscape:window-width="1440"
     inkscape:window-height="837"
     inkscape:window-x="-8"
     inkscape:window-y="-8"
     inkscape:window-maximized="1" />
  <metadata
     id="metadata7">
    <rdf:RDF>
      <cc:Work
         rdf:about="">
        <dc:format>image/svg+xml</dc:format>
        <dc:type
           rdf:resource="http://purl.org/dc/dcmitype/StillImage" />
        <dc:title />
      </cc:Work>
    </rdf:RDF>
  </metadata>
  <g
     inkscape:label="Layer 1"
     inkscape:groupmode="layer"
     id="layer1"
     transform="translate(0,-768.89764)">
    <g
       style="font-style:normal;font-weight:normal;font-size:40px;line-height:125%;font-family:sans-serif;letter-spacing:0px;word-spacing:0px;fill:#000000;fill-opacity:1;stroke:none;stroke-width:1px;stroke-linecap:butt;stroke-linejoin:miter;stroke-opacity:1"
       id="text4346"
       transform="translate(-24.243661,0)" />
    <path
       style="fill:#1a1a1a;fill-opacity:1;stroke-width:1.60000002;stroke-miterlimit:4;stroke-dasharray:none"
       d="m -1.0101526,767.27524 285.8731726,0 0,287.10726 -285.8731726,0 z"
       id="rect4397"
       inkscape:connector-curvature="0" />
    <rect
       ry="0"
       y="783.66168"
       x="22.223358"
       height="155.56349"
       width="241.42645"
       id="rect4588"
       style="fill:#1a1a1a;fill-opacity:1;stroke-width:1.60000002;stroke-miterlimit:4;stroke-dasharray:none" />
    <g
       style="font-style:normal;font-weight:normal;font-size:19.18499184px;line-height:125%;font-family:sans-serif;letter-spacing:0px;word-spacing:0px;fill:#000000;fill-opacity:1;stroke:none;stroke-width:1px;stroke-linecap:butt;stroke-linejoin:miter;stroke-opacity:1"
       id="text4433">
      <path
         d="m 79.198952,960.13818 q 0.163073,0.0959 0.239813,0.2494 0.07674,0.15348 -0.02878,0.36452 l -1.621132,2.3022 q -0.105517,0.16307 -0.23022,0.19185 -0.11511,0.0192 -0.287774,-0.0863 -0.470033,-0.35493 -1.03599,-0.54678 -0.565957,-0.19185 -1.199062,-0.19185 -0.786585,0 -1.448467,0.29737 -0.661882,0.29737 -1.141507,0.81536 -0.479625,0.518 -0.748215,1.20866 -0.268589,0.69066 -0.268589,1.47724 0,0.78659 0.268589,1.47725 0.26859,0.68106 0.748215,1.19906 0.479625,0.5084 1.141507,0.80577 0.661882,0.29736 1.448467,0.29736 0.633105,0 1.208654,-0.19185 0.57555,-0.20144 1.045583,-0.55636 0.172664,-0.10552 0.287774,-0.0863 0.11511,0.0192 0.23022,0.17266 l 1.640317,2.35976 q 0.105518,0.21103 0.02878,0.35492 -0.07674,0.14389 -0.239813,0.23981 -0.901694,0.60433 -1.947276,0.94007 -1.03599,0.32614 -2.18709,0.32614 -1.016804,0 -1.956869,-0.259 -0.930472,-0.25899 -1.745834,-0.73862 -0.815362,-0.47962 -1.486837,-1.14151 -0.661882,-0.67147 -1.141507,-1.47724 -0.479625,-0.81536 -0.738622,-1.74583 -0.258997,-0.94007 -0.258997,-1.95687 0,-1.01681 0.258997,-1.94728 0.258997,-0.94006 0.738622,-1.75543 0.479625,-0.82495 1.141507,-1.49643 0.671475,-0.67147 1.486837,-1.1415 0.815362,-0.47963 1.745834,-0.73863 0.940065,-0.26859 1.956869,-0.26859 1.1511,0 2.167905,0.32615 1.026397,0.31655 1.928091,0.92088 z"
         style="font-style:normal;font-variant:normal;font-weight:normal;font-stretch:normal;font-family:COCOGOOSE;-inkscape-font-specification:COCOGOOSE;fill:#ffffff"
         id="path3753" />
      <path
         d="m 81.090173,967.2654 q 0,-0.88251 0.220627,-1.69787 0.23022,-0.81536 0.633105,-1.50602 0.412478,-0.70025 0.978435,-1.26621 0.57555,-0.57555 1.275802,-0.97843 0.700252,-0.40289 1.506022,-0.62352 0.815362,-0.22062 1.697871,-0.22062 1.30458,0 2.446087,0.48921 1.151099,0.47963 1.995239,1.33336 0.853732,0.84414 1.342949,1.99524 0.49881,1.14151 0.49881,2.47486 0,0.88251 -0.23022,1.69788 -0.220627,0.80576 -0.633104,1.50602 -0.402885,0.70025 -0.978435,1.2758 -0.565957,0.56596 -1.266209,0.97843 -0.700253,0.40289 -1.506022,0.62352 -0.796177,0.22062 -1.669095,0.22062 -0.882509,0 -1.697871,-0.22062 -0.80577,-0.22063 -1.506022,-0.62352 -0.700252,-0.41247 -1.275802,-0.97843 -0.565957,-0.57555 -0.978435,-1.2758 -0.402885,-0.70026 -0.633105,-1.50602 -0.220627,-0.81537 -0.220627,-1.69788 z m 3.501261,0 q 0,0.63311 0.19185,1.18947 0.201442,0.54678 0.556365,0.94966 0.364515,0.40288 0.872917,0.6427 0.517995,0.23022 1.160692,0.23022 0.623512,0 1.122322,-0.23022 0.508402,-0.23982 0.853732,-0.6427 0.354922,-0.40288 0.53718,-0.94966 0.19185,-0.55636 0.19185,-1.18947 0,-0.61392 -0.19185,-1.17028 -0.182258,-0.55637 -0.53718,-0.97844 -0.34533,-0.42207 -0.853732,-0.66188 -0.49881,-0.2494 -1.122322,-0.2494 -0.642697,0 -1.160692,0.2494 -0.508402,0.23981 -0.872917,0.66188 -0.354923,0.42207 -0.556365,0.97844 -0.19185,0.55636 -0.19185,1.17028 z"
         style="font-style:normal;font-variant:normal;font-weight:normal;font-stretch:normal;font-family:COCOGOOSE;-inkscape-font-specification:COCOGOOSE;fill:#ffffff"
         id="path3755" />
      <path
         d="m 104.17601,971.86021 q -0.259,0.259 -0.57555,0.55636 -0.30696,0.29737 -0.68107,0.55637 -0.3741,0.259 -0.80576,0.42207 -0.43167,0.17266 -0.93048,0.17266 -1.304576,0 -2.407713,-0.48921 -1.093545,-0.48922 -1.889722,-1.33336 -0.786585,-0.85373 -1.237432,-2.00483 -0.441255,-1.1511 -0.441255,-2.47487 0,-1.33335 0.441255,-2.47486 0.450847,-1.1511 1.237432,-1.99524 0.796177,-0.85373 1.889722,-1.33336 1.103137,-0.48921 2.407713,-0.48921 0.52759,0 0.95925,0.15348 0.44126,0.15348 0.79618,0.39329 0.36451,0.23981 0.66188,0.54677 0.30696,0.29737 0.57555,0.58514 l 0,-4.38377 q 0,-0.30696 0.18226,-0.51799 0.19185,-0.21104 0.56596,-0.21104 l 2.15831,0 q 0.1247,0 0.259,0.0576 0.14388,0.048 0.25899,0.14389 0.11511,0.0959 0.18226,0.23021 0.0767,0.1343 0.0767,0.29737 l 0,14.34078 q 0,0.73863 -0.77699,0.73863 l -1.88013,0 q -0.19185,0 -0.29737,-0.048 -0.10552,-0.048 -0.18226,-0.13429 -0.0671,-0.0959 -0.1247,-0.23022 -0.0575,-0.14389 -0.14389,-0.32615 l -0.27818,-0.74821 z m -5.515683,-4.59481 q 0,0.63311 0.19185,1.18947 0.201442,0.54678 0.565957,0.94966 0.364515,0.40288 0.872916,0.6427 0.518,0.23022 1.14151,0.23022 0.61392,0 1.1511,-0.22063 0.54677,-0.22063 0.94965,-0.60433 0.40289,-0.39329 0.6427,-0.92088 0.24941,-0.52758 0.27818,-1.13191 l 0,-0.1343 q 0,-0.61392 -0.23022,-1.17028 -0.23022,-0.55637 -0.64269,-0.97844 -0.40289,-0.42207 -0.95925,-0.66188 -0.54677,-0.2494 -1.18947,-0.2494 -0.62351,0 -1.14151,0.2494 -0.508401,0.23981 -0.872916,0.66188 -0.364515,0.42207 -0.565957,0.97844 -0.19185,0.55636 -0.19185,1.17028 z"
         style="font-style:normal;font-variant:normal;font-weight:normal;font-stretch:normal;font-family:COCOGOOSE;-inkscape-font-specification:COCOGOOSE;fill:#ffffff"
         id="path3757" />
      <path
         d="m 120.63554,971.88899 q -0.84414,0.77699 -1.89932,1.21824 -1.05517,0.43167 -2.23505,0.43167 -1.31417,0 -2.48445,-0.47963 -1.17029,-0.47962 -2.0528,-1.32376 -0.88251,-0.85374 -1.4005,-2.00484 -0.518,-1.15109 -0.518,-2.50364 0,-0.84414 0.20144,-1.63072 0.21104,-0.79618 0.58515,-1.48684 0.3837,-0.69066 0.92088,-1.26621 0.54677,-0.58514 1.21824,-0.99762 0.67148,-0.41247 1.45806,-0.64269 0.78659,-0.23022 1.6595,-0.23022 0.79618,0 1.5444,0.21103 0.74821,0.21104 1.4005,0.59474 0.66188,0.3837 1.20866,0.92088 0.54677,0.53718 0.94006,1.17987 0.39329,0.63311 0.60433,1.36214 0.22062,0.71943 0.22062,1.48683 0,0.49881 -0.0192,0.81537 -0.01,0.31655 -0.14389,0.5084 -0.13429,0.18226 -0.45084,0.259 -0.30696,0.0671 -0.91129,0.0671 l -6.9066,0 q 0.0959,0.61392 0.3837,1.0264 0.29737,0.41248 0.68107,0.66188 0.3837,0.23981 0.81536,0.34533 0.43166,0.10552 0.81536,0.10552 0.34533,0 0.70985,-0.0671 0.36451,-0.0767 0.70025,-0.19185 0.34533,-0.1247 0.62351,-0.27818 0.28778,-0.16307 0.46044,-0.33574 0.15348,-0.1247 0.259,-0.18225 0.11511,-0.0671 0.23981,-0.0671 0.1247,0 0.24941,0.0863 0.13429,0.0863 0.29736,0.2494 l 1.01681,1.1511 q 0.10552,0.12471 0.13429,0.23022 0.0288,0.0959 0.0288,0.20145 0,0.19185 -0.10552,0.33573 -0.10551,0.1343 -0.2494,0.23982 z m -4.61399,-7.99055 q -0.37411,0 -0.72903,0.15348 -0.34533,0.14388 -0.65229,0.39329 -0.30696,0.2494 -0.55637,0.56596 -0.23981,0.31655 -0.39329,0.64269 l 4.90177,0 q -0.20145,-0.3741 -0.44126,-0.69066 -0.23022,-0.31655 -0.53718,-0.55636 -0.29737,-0.23981 -0.69066,-0.37411 -0.3837,-0.13429 -0.90169,-0.13429 z"
         style="font-style:normal;font-variant:normal;font-weight:normal;font-stretch:normal;font-family:COCOGOOSE;-inkscape-font-specification:COCOGOOSE;fill:#ffffff"
         id="path3759" />
      <path
         d="m 124.18446,962.95837 q 0,-0.19185 0.10552,-0.30696 0.10552,-0.11511 0.31655,-0.11511 l 2.53242,0 q 0.16307,0 0.29737,0.11511 0.14389,0.11511 0.14389,0.30696 l 0,2.32139 q 0,0.17266 -0.11511,0.30696 -0.10552,0.13429 -0.32615,0.13429 l -2.53242,0 q -0.42207,0 -0.42207,-0.44125 l 0,-2.32139 z m 0,7.62604 q 0,-0.19185 0.10552,-0.30696 0.10552,-0.11511 0.31655,-0.11511 l 2.53242,0 q 0.16307,0 0.29737,0.11511 0.14389,0.11511 0.14389,0.30696 l 0,2.32138 q 0,0.17267 -0.11511,0.30696 -0.10552,0.1343 -0.32615,0.1343 l -2.53242,0 q -0.42207,0 -0.42207,-0.44126 l 0,-2.32138 z"
         style="font-style:normal;font-variant:normal;font-weight:normal;font-stretch:normal;font-family:COCOGOOSE;-inkscape-font-specification:COCOGOOSE;fill:#ffffff"
         id="path3761" />
      <path
         d="m 136.37832,959.52426 q 0.01,-0.16307 0.11511,-0.28778 0.11511,-0.13429 0.29737,-0.13429 l 2.84897,0 q 0.14389,0 0.29737,0.1247 0.15348,0.11511 0.15348,0.29737 l 0,4.54684 4.76747,0 0,-4.54684 q 0,-0.17267 0.11511,-0.29737 0.1247,-0.1247 0.31655,-0.1247 l 2.8106,0 q 0.19185,0 0.33574,0.0959 0.14389,0.0959 0.14389,0.30696 l 0,13.41991 q 0,0.21103 -0.1247,0.31655 -0.12471,0.10552 -0.32615,0.10552 l -2.83938,0 q -0.19185,0 -0.31655,-0.10552 -0.11511,-0.10552 -0.11511,-0.31655 l 0,-5.44854 -4.76747,0 0,5.44854 q 0,0.20144 -0.13429,0.31655 -0.12471,0.10552 -0.34533,0.10552 l -2.8202,0 q -0.40288,0 -0.41248,-0.37411 l 0,-13.44868 z"
         style="font-style:normal;font-variant:normal;font-weight:normal;font-stretch:normal;font-family:COCOGOOSE;-inkscape-font-specification:COCOGOOSE;fill:#ffffff"
         id="path3763" />
      <path
         d="m 163.84703,972.6372 q 0,0.16307 -0.0575,0.31655 -0.0576,0.14389 -0.19185,0.23022 -0.10552,0.10552 -0.24941,0.1343 -0.14389,0.0288 -0.2494,0.0288 l -1.88973,0 q -0.20144,0 -0.32614,-0.048 -0.1247,-0.0575 -0.20144,-0.15348 -0.0767,-0.0959 -0.1343,-0.23022 -0.048,-0.14388 -0.10552,-0.30696 l -0.27818,-0.71943 q -0.259,0.25899 -0.56596,0.55636 -0.30696,0.28778 -0.68106,0.53718 -0.36452,0.24941 -0.79618,0.41248 -0.43166,0.17266 -0.92088,0.17266 -0.87292,0 -1.67869,-0.22062 -0.79617,-0.22063 -1.49643,-0.62352 -0.69066,-0.41247 -1.25661,-0.97843 -0.56596,-0.57555 -0.97844,-1.2758 -0.40288,-0.70026 -0.62351,-1.50602 -0.22063,-0.81537 -0.22063,-1.69788 0,-1.33335 0.48922,-2.47486 0.48922,-1.1511 1.33336,-1.99524 0.84414,-0.85373 1.98564,-1.33336 1.14151,-0.48921 2.44609,-0.48921 0.59474,0 1.09355,0.18225 0.49881,0.17267 0.90169,0.46044 0.41248,0.28778 0.73862,0.65229 0.33574,0.36452 0.59474,0.73863 l 0.3741,-1.1607 q 0.0959,-0.23981 0.15348,-0.3837 0.0671,-0.15348 0.1343,-0.22062 0.0767,-0.0767 0.18226,-0.0959 0.10551,-0.0288 0.29736,-0.0288 l 1.42929,0 q 0.10551,0 0.2494,0.0288 0.14389,0.0288 0.24941,0.1343 0.13429,0.10551 0.19185,0.23981 0.0575,0.13429 0.0575,0.30696 l 0,10.81074 z m -9.44861,-5.3718 q 0,0.63311 0.19185,1.18947 0.20144,0.54678 0.56596,0.94966 0.36451,0.40288 0.87292,0.6427 0.51799,0.23022 1.1415,0.23022 0.6427,0 1.18947,-0.23022 0.55637,-0.23982 0.95925,-0.6427 0.41248,-0.40288 0.6427,-0.94966 0.23022,-0.55636 0.23022,-1.18947 0,-0.61392 -0.23022,-1.17028 -0.23022,-0.55637 -0.6427,-0.97844 -0.40288,-0.42207 -0.95925,-0.66188 -0.54677,-0.2494 -1.18947,-0.2494 -0.62351,0 -1.1415,0.2494 -0.50841,0.23981 -0.87292,0.66188 -0.36452,0.42207 -0.56596,0.97844 -0.19185,0.55636 -0.19185,1.17028 z"
         style="font-style:normal;font-variant:normal;font-weight:normal;font-stretch:normal;font-family:COCOGOOSE;-inkscape-font-specification:COCOGOOSE;fill:#ffffff"
         id="path3765" />
      <path
         d="m 167.97061,969.55801 q 0.25899,0.259 0.55636,0.44125 0.30696,0.17267 0.58514,0.28778 0.27819,0.10552 0.48922,0.15348 0.21104,0.048 0.28778,0.048 0.18225,0 0.46044,-0.01 0.28777,-0.0192 0.54677,-0.0863 0.259,-0.0767 0.44125,-0.23982 0.19185,-0.16307 0.19185,-0.46044 0,-0.26858 -0.10551,-0.42206 -0.10552,-0.16308 -0.30696,-0.26859 -0.20145,-0.11511 -0.49881,-0.20145 -0.28778,-0.0863 -0.65229,-0.20144 -1.1511,-0.30696 -1.89932,-0.73862 -0.74821,-0.43166 -1.18947,-0.95925 -0.43166,-0.53718 -0.60433,-1.1511 -0.17266,-0.61392 -0.17266,-1.29499 0,-0.79617 0.31655,-1.44846 0.31655,-0.65229 0.9017,-1.11273 0.58514,-0.47004 1.4005,-0.71944 0.81536,-0.259 1.81298,-0.259 0.60433,0 1.13192,0.10552 0.52758,0.0959 1.00721,0.31655 0.47962,0.21104 0.93047,0.55637 0.46044,0.33573 0.91129,0.80577 0.16307,0.19185 0.16307,0.36451 0.01,0.16307 -0.21103,0.35492 -0.37411,0.30696 -0.71944,0.60433 -0.33574,0.29737 -0.70025,0.66188 -0.11511,0.0959 -0.23022,0.1247 -0.11511,0.0192 -0.22063,-0.01 -0.10552,-0.0288 -0.20144,-0.0959 -0.0959,-0.0671 -0.17267,-0.16308 -0.33573,-0.3741 -0.7674,-0.49881 -0.43166,-0.13429 -0.80577,-0.13429 -0.47003,0 -0.74821,0.16307 -0.27818,0.16307 -0.259,0.49881 0.0192,0.24941 0.18226,0.39329 0.17266,0.1343 0.41248,0.22063 0.2494,0.0863 0.51799,0.14389 0.27818,0.048 0.5084,0.11511 0.86333,0.27818 1.58276,0.60433 0.71944,0.32614 1.24703,0.80577 0.52759,0.47003 0.81536,1.13191 0.29737,0.66188 0.29737,1.61154 0,0.94966 -0.3837,1.69787 -0.37411,0.74822 -1.03599,1.25662 -0.66188,0.5084 -1.57317,0.77699 -0.90169,0.26859 -1.94728,0.26859 -0.59473,0 -1.20865,-0.10552 -0.61392,-0.10551 -1.18947,-0.33573 -0.57555,-0.23982 -1.09355,-0.60433 -0.51799,-0.37411 -0.92087,-0.9017 -0.10552,-0.13429 -0.16308,-0.27818 -0.048,-0.15348 -0.048,-0.29737 0.01,-0.14388 0.0576,-0.25899 0.0575,-0.12471 0.17266,-0.21104 l 1.23743,-1.23743 q 0.23022,-0.19185 0.40289,-0.13429 0.18225,0.0575 0.46044,0.32614 z"
         style="font-style:normal;font-variant:normal;font-weight:normal;font-stretch:normal;font-family:COCOGOOSE;-inkscape-font-specification:COCOGOOSE;fill:#ffffff"
         id="path3767" />
      <path
         d="m 180.92287,962.44038 q 0.18226,-0.26859 0.44126,-0.52759 0.259,-0.26859 0.60433,-0.47003 0.35492,-0.21104 0.79617,-0.33574 0.45085,-0.13429 1.01681,-0.13429 1.09354,0 1.94728,0.42207 0.86332,0.42207 1.45805,1.1511 0.60433,0.72903 0.91129,1.70746 0.31655,0.96884 0.31655,2.07198 l 0,6.28308 q 0,0.36452 -0.16307,0.55637 -0.15348,0.18226 -0.49881,0.18226 l -2.21586,0 q -0.41248,0 -0.56596,-0.1343 -0.15348,-0.14389 -0.15348,-0.54677 l 0,-6.34064 q 0,-0.41248 -0.16307,-0.7674 -0.15348,-0.35492 -0.42207,-0.61392 -0.26859,-0.26859 -0.63311,-0.41248 -0.35492,-0.15348 -0.75781,-0.15348 -0.34533,0 -0.68106,0.14389 -0.32615,0.13429 -0.59474,0.39329 -0.259,0.24941 -0.44125,0.60433 -0.17267,0.35492 -0.20145,0.78658 l 0,6.33105 q 0,0.16307 -0.0671,0.32615 -0.0576,0.16307 -0.18226,0.2494 -0.1247,0.0767 -0.23981,0.10552 -0.10552,0.0288 -0.24941,0.0288 l -2.1679,0 q -0.41248,0 -0.59474,-0.20145 -0.18225,-0.20144 -0.18225,-0.53718 l 0,-7.80829 0,-0.0671 0,-2.85856 0,-0.048 0,-3.55882 q 0,-0.32614 0.18225,-0.52758 0.18226,-0.20145 0.59474,-0.20145 l 2.1679,0 q 0.22063,0 0.48922,0.15348 0.1247,0.0863 0.18226,0.24941 0.0671,0.16307 0.0671,0.30696 l 0,4.19192 z"
         style="font-style:normal;font-variant:normal;font-weight:normal;font-stretch:normal;font-family:COCOGOOSE;-inkscape-font-specification:COCOGOOSE;fill:#ffffff"
         id="path3769" />
      <path
         d="m 200.93522,971.88899 q -0.84414,0.77699 -1.89931,1.21824 -1.05518,0.43167 -2.23506,0.43167 -1.31417,0 -2.48445,-0.47963 -1.17029,-0.47962 -2.0528,-1.32376 -0.88251,-0.85374 -1.4005,-2.00484 -0.51799,-1.15109 -0.51799,-2.50364 0,-0.84414 0.20144,-1.63072 0.21103,-0.79618 0.58514,-1.48684 0.3837,-0.69066 0.92088,-1.26621 0.54677,-0.58514 1.21825,-0.99762 0.67147,-0.41247 1.45806,-0.64269 0.78658,-0.23022 1.6595,-0.23022 0.79617,0 1.54439,0.21103 0.74821,0.21104 1.4005,0.59474 0.66189,0.3837 1.20866,0.92088 0.54677,0.53718 0.94006,1.17987 0.3933,0.63311 0.60433,1.36214 0.22063,0.71943 0.22063,1.48683 0,0.49881 -0.0192,0.81537 -0.01,0.31655 -0.14388,0.5084 -0.1343,0.18226 -0.45085,0.259 -0.30696,0.0671 -0.91129,0.0671 l -6.9066,0 q 0.0959,0.61392 0.3837,1.0264 0.29737,0.41248 0.68107,0.66188 0.3837,0.23981 0.81536,0.34533 0.43167,0.10552 0.81536,0.10552 0.34533,0 0.70985,-0.0671 0.36451,-0.0767 0.70025,-0.19185 0.34533,-0.1247 0.62351,-0.27818 0.28778,-0.16307 0.46044,-0.33574 0.15348,-0.1247 0.259,-0.18225 0.11511,-0.0671 0.23981,-0.0671 0.12471,0 0.24941,0.0863 0.13429,0.0863 0.29737,0.2494 l 1.0168,1.1511 q 0.10552,0.12471 0.1343,0.23022 0.0288,0.0959 0.0288,0.20145 0,0.19185 -0.10551,0.33573 -0.10552,0.1343 -0.24941,0.23982 z m -4.61399,-7.99055 q -0.37411,0 -0.72903,0.15348 -0.34533,0.14388 -0.65229,0.39329 -0.30696,0.2494 -0.55636,0.56596 -0.23982,0.31655 -0.3933,0.64269 l 4.90177,0 q -0.20144,-0.3741 -0.44126,-0.69066 -0.23022,-0.31655 -0.53718,-0.55636 -0.29736,-0.23981 -0.69066,-0.37411 -0.3837,-0.13429 -0.90169,-0.13429 z"
         style="font-style:normal;font-variant:normal;font-weight:normal;font-stretch:normal;font-family:COCOGOOSE;-inkscape-font-specification:COCOGOOSE;fill:#ffffff"
         id="path3771" />
      <path
         d="m 204.33066,961.87442 q 0,-0.16307 0.0671,-0.30696 0.0767,-0.15348 0.18226,-0.23981 0.24941,-0.16307 0.518,-0.16307 l 1.44846,0 q 0.18226,0 0.28778,0.0671 0.10552,0.0671 0.17266,0.17267 0.0767,0.10552 0.12471,0.23981 0.0575,0.1343 0.13429,0.26859 0.0192,0.0384 0.0767,0.19185 0.0576,0.14389 0.1247,0.32615 0.0671,0.17266 0.12471,0.33573 0.0671,0.15348 0.0863,0.20145 0.28777,-0.31656 0.54677,-0.66189 0.26859,-0.35492 0.56596,-0.65229 0.29737,-0.29736 0.66188,-0.48921 0.36451,-0.19185 0.86332,-0.19185 0.518,0 0.92088,0.0767 0.41248,0.0767 0.777,0.23022 0.36451,0.14388 0.71943,0.3741 0.36452,0.23022 0.78659,0.53718 0.66188,0.35493 0.2494,1.05518 l -0.87291,1.48683 q -0.19185,0.28778 -0.47004,0.35493 -0.27818,0.0671 -0.60432,-0.0863 -0.41248,-0.40288 -0.84414,-0.59473 -0.42207,-0.20144 -0.96885,-0.20144 -0.3741,0 -0.66188,0.10551 -0.27818,0.10552 -0.5084,0.29737 -0.23022,0.19185 -0.43166,0.46044 -0.20144,0.26859 -0.40289,0.59474 l 0,6.94496 q 0,0.36452 -0.18225,0.55637 -0.17267,0.18226 -0.58515,0.18226 l -2.15831,0 q -0.74821,0 -0.74821,-0.73863 l 0,-10.734 z"
         style="font-style:normal;font-variant:normal;font-weight:normal;font-stretch:normal;font-family:COCOGOOSE;-inkscape-font-specification:COCOGOOSE;fill:#ffffff"
         id="path3773" />
    </g>
    <g
       style="font-style:normal;font-weight:normal;font-size:12.87350941px;line-height:125%;font-family:sans-serif;letter-spacing:0px;word-spacing:0px;fill:#000000;fill-opacity:1;stroke:none;stroke-width:1px;stroke-linecap:butt;stroke-linejoin:miter;stroke-opacity:1"
       id="text4433-8">
      <path
         d="m 98.154376,1006.7459 q 0,-0.1351 0.0708,-0.2124 0.0708,-0.084 0.212413,-0.084 l 4.113087,0 q 0.44414,0 0.83678,0.1223 0.39264,0.1223 0.72091,0.3412 0.32828,0.2124 0.59219,0.5149 0.2639,0.2961 0.44413,0.6437 0.18667,0.3476 0.28322,0.7338 0.0966,0.3798 0.0966,0.7724 0,0.5793 -0.21241,1.1329 -0.20598,0.5535 -0.59218,0.9848 -0.38621,0.4313 -0.9269,0.7016 -0.54068,0.2639 -1.19723,0.2703 l -1.95034,0 0,3.0639 q 0,0.2768 -0.29609,0.2768 l -1.911717,0 q -0.128735,0 -0.205976,-0.064 -0.07724,-0.071 -0.07724,-0.2125 l 0,-8.9857 z m 4.846874,2.8193 q 0,-0.1931 -0.0708,-0.3862 -0.0644,-0.1931 -0.19311,-0.3411 -0.12873,-0.1545 -0.3154,-0.2511 -0.18023,-0.096 -0.41195,-0.096 l -1.36459,0 0,2.1499 1.36459,0 q 0.23172,0 0.41839,-0.09 0.18667,-0.097 0.30896,-0.2446 0.12874,-0.1481 0.19311,-0.3412 0.0708,-0.1931 0.0708,-0.3991 z"
         style="font-style:normal;font-variant:normal;font-weight:normal;font-stretch:normal;font-family:COCOGOOSE;-inkscape-font-specification:COCOGOOSE;fill:#ffffff"
         id="path3730" />
      <path
         d="m 114.8487,1015.5321 q 0,0.1094 -0.0386,0.2124 -0.0386,0.097 -0.12873,0.1545 -0.0708,0.071 -0.16736,0.09 -0.0966,0.019 -0.16735,0.019 l -1.26805,0 q -0.13517,0 -0.21885,-0.032 -0.0837,-0.039 -0.13517,-0.1029 -0.0515,-0.064 -0.0901,-0.1545 -0.0322,-0.097 -0.0708,-0.206 l -0.18666,-0.4828 q -0.17379,0.1738 -0.37977,0.3734 -0.20598,0.1931 -0.45701,0.3604 -0.2446,0.1674 -0.53425,0.2768 -0.28965,0.1159 -0.61793,0.1159 -0.58574,0 -1.12643,-0.1481 -0.53425,-0.148 -1.00413,-0.4184 -0.46345,-0.2767 -0.84322,-0.6565 -0.37977,-0.3862 -0.65655,-0.8561 -0.27034,-0.4699 -0.41839,-1.0106 -0.14804,-0.5471 -0.14804,-1.1393 0,-0.8947 0.32827,-1.6607 0.32828,-0.7724 0.89471,-1.3388 0.56643,-0.5729 1.33241,-0.8947 0.76597,-0.3283 1.64137,-0.3283 0.39908,0 0.73379,0.1223 0.33471,0.1159 0.60506,0.309 0.27678,0.1931 0.49563,0.4377 0.22528,0.2446 0.39907,0.4956 l 0.25104,-0.7788 q 0.0644,-0.161 0.10299,-0.2575 0.0451,-0.103 0.0901,-0.1481 0.0515,-0.052 0.1223,-0.064 0.0708,-0.019 0.19954,-0.019 l 0.95908,0 q 0.0708,0 0.16735,0.019 0.0965,0.019 0.16736,0.09 0.0901,0.071 0.12873,0.1609 0.0386,0.09 0.0386,0.206 l 0,7.2542 z m -6.3402,-3.6046 q 0,0.4248 0.12873,0.7982 0.13518,0.3669 0.37977,0.6372 0.2446,0.2704 0.58575,0.4313 0.34758,0.1545 0.76597,0.1545 0.43126,0 0.79816,-0.1545 0.37333,-0.1609 0.64367,-0.4313 0.27678,-0.2703 0.43127,-0.6372 0.15448,-0.3734 0.15448,-0.7982 0,-0.4119 -0.15448,-0.7853 -0.15449,-0.3733 -0.43127,-0.6565 -0.27034,-0.2832 -0.64367,-0.4441 -0.3669,-0.1674 -0.79816,-0.1674 -0.41839,0 -0.76597,0.1674 -0.34115,0.1609 -0.58575,0.4441 -0.24459,0.2832 -0.37977,0.6565 -0.12873,0.3734 -0.12873,0.7853 z"
         style="font-style:normal;font-variant:normal;font-weight:normal;font-stretch:normal;font-family:COCOGOOSE;-inkscape-font-specification:COCOGOOSE;fill:#ffffff"
         id="path3732" />
      <path
         d="m 115.89709,1008.4517 q -0.10299,-0.2575 -0.006,-0.4377 0.10299,-0.1867 0.44414,-0.1867 l 1.58988,0 q 0.16091,0 0.2639,0.103 0.10299,0.096 0.15449,0.2446 l 1.8216,5.1816 1.78298,-5.1816 q 0.0708,-0.206 0.18023,-0.2768 0.10942,-0.071 0.30252,-0.071 l 1.65425,0 q 0.18023,0 0.28322,0.051 0.10299,0.045 0.14161,0.1287 0.0451,0.077 0.0322,0.1803 -0.0129,0.096 -0.0515,0.1931 -0.2446,0.605 -0.53425,1.3259 -0.28966,0.7145 -0.60506,1.4934 -0.30896,0.7724 -0.6308,1.577 -0.32184,0.7981 -0.6308,1.5705 -0.30253,0.7725 -0.58575,1.4869 -0.28322,0.7081 -0.52138,1.3003 -0.23172,0.5986 -0.40551,1.0491 -0.17379,0.4506 -0.26391,0.6952 l 0.0193,-0.032 q -0.0451,0.1738 -0.16092,0.2768 -0.11586,0.1094 -0.28321,0.1094 l -1.48689,0 q -0.28966,0 -0.39908,-0.1158 -0.10299,-0.1094 -0.10299,-0.3283 0,-0.084 0.0193,-0.1287 0.0258,-0.045 0.0386,-0.058 l 1.01057,-2.6262 -3.07033,-7.5245 z"
         style="font-style:normal;font-variant:normal;font-weight:normal;font-stretch:normal;font-family:COCOGOOSE;-inkscape-font-specification:COCOGOOSE;fill:#ffffff"
         id="path3734" />
      <path
         d="m 124.81622,1011.9275 q 0,-0.5922 0.14804,-1.1393 0.15448,-0.5471 0.42483,-1.0106 0.27678,-0.4698 0.65655,-0.8496 0.3862,-0.3862 0.85609,-0.6566 0.46988,-0.2703 1.01057,-0.4183 0.54712,-0.1481 1.1393,-0.1481 0.8754,0 1.64137,0.3283 0.77241,0.3218 1.33885,0.8947 0.57287,0.5664 0.90114,1.3388 0.33472,0.766 0.33472,1.6607 0,0.5922 -0.15449,1.1393 -0.14804,0.5407 -0.42482,1.0106 -0.27035,0.4699 -0.65655,0.8561 -0.37977,0.3798 -0.84965,0.6565 -0.46989,0.2704 -1.01057,0.4184 -0.53425,0.1481 -1.12,0.1481 -0.59218,0 -1.1393,-0.1481 -0.54069,-0.148 -1.01057,-0.4184 -0.46989,-0.2767 -0.85609,-0.6565 -0.37977,-0.3862 -0.65655,-0.8561 -0.27035,-0.4699 -0.42483,-1.0106 -0.14804,-0.5471 -0.14804,-1.1393 z m 2.34941,0 q 0,0.4248 0.12874,0.7982 0.13517,0.3669 0.37333,0.6372 0.2446,0.2704 0.58574,0.4313 0.34759,0.1545 0.77885,0.1545 0.41839,0 0.7531,-0.1545 0.34115,-0.1609 0.57287,-0.4313 0.23816,-0.2703 0.36046,-0.6372 0.12874,-0.3734 0.12874,-0.7982 0,-0.4119 -0.12874,-0.7853 -0.1223,-0.3733 -0.36046,-0.6565 -0.23172,-0.2832 -0.57287,-0.4441 -0.33471,-0.1674 -0.7531,-0.1674 -0.43126,0 -0.77885,0.1674 -0.34114,0.1609 -0.58574,0.4441 -0.23816,0.2832 -0.37333,0.6565 -0.12874,0.3734 -0.12874,0.7853 z"
         style="font-style:normal;font-variant:normal;font-weight:normal;font-stretch:normal;font-family:COCOGOOSE;-inkscape-font-specification:COCOGOOSE;fill:#ffffff"
         id="path3736" />
      <path
         d="m 142.13531,1015.899 q -0.0837,0.071 -0.18023,0.09 -0.0901,0.019 -0.17379,0.019 l -0.97195,0 q -0.11586,0 -0.19954,-0.039 -0.0837,-0.045 -0.14161,-0.1159 -0.0579,-0.071 -0.0965,-0.1609 -0.0386,-0.09 -0.0644,-0.1866 l -0.19954,-0.8239 q -0.0966,0.1995 -0.28321,0.457 -0.18023,0.251 -0.46345,0.4763 -0.28322,0.2188 -0.67586,0.3733 -0.39264,0.1481 -0.90114,0.1481 -0.73379,0 -1.33241,-0.2833 -0.59862,-0.2832 -1.02345,-0.7724 -0.41839,-0.4892 -0.65011,-1.1393 -0.23172,-0.6565 -0.23172,-1.3968 l 0,-4.216 q 0,-0.2446 0.10299,-0.3669 0.10942,-0.1288 0.34114,-0.1288 l 1.48689,0 q 0.27679,0 0.37977,0.097 0.10299,0.09 0.10299,0.3605 l 0,4.1903 q 0,0.2768 0.1223,0.5278 0.12873,0.2446 0.33471,0.4377 0.20598,0.1867 0.46345,0.2961 0.2639,0.1094 0.53425,0.1094 0.23172,0 0.47632,-0.1094 0.25103,-0.1094 0.45701,-0.2897 0.21241,-0.1866 0.34758,-0.4312 0.13517,-0.2511 0.13517,-0.5278 l 0,-4.1839 q 0,-0.1095 0.0386,-0.2189 0.0451,-0.1094 0.12874,-0.1673 0.0837,-0.052 0.15448,-0.071 0.0772,-0.019 0.17379,-0.019 l 1.45471,0 q 0.27678,0 0.39908,0.1352 0.1223,0.1352 0.1223,0.3605 l 0,7.2027 q 0,0.1223 -0.0579,0.2253 -0.0515,0.103 -0.14805,0.1609 l 0.0386,-0.019 z"
         style="font-style:normal;font-variant:normal;font-weight:normal;font-stretch:normal;font-family:COCOGOOSE;-inkscape-font-specification:COCOGOOSE;fill:#ffffff"
         id="path3738" />
      <path
         d="m 144.34513,1006.5593 q 0,-0.1996 0.12873,-0.2961 0.13518,-0.103 0.37977,-0.1931 l 1.46115,-0.5085 q 0.0322,-0.01 0.0579,-0.01 0.0322,0 0.0579,0 0.23816,0 0.3154,0.1416 0.0837,0.1352 0.0837,0.3605 l -0.006,2.0276 1.07494,0 q 0.20597,0 0.33471,0.1223 0.12873,0.1223 0.12873,0.3669 l 0,1.2423 q 0,0.2703 -0.12873,0.399 -0.12874,0.1223 -0.33471,0.1223 l -1.07494,0 0.006,5.1752 q 0,0.2446 -0.14161,0.3733 -0.14161,0.1223 -0.39265,0.1223 l -1.4547,0 q -0.49563,0 -0.49563,-0.4956 l -0.006,-5.1752 -0.46988,0 q -0.49563,0 -0.49563,-0.5213 l 0,-1.2423 q 0,-0.4892 0.49563,-0.4892 l 0.46988,0 0.006,-1.5255 z"
         style="font-style:normal;font-variant:normal;font-weight:normal;font-stretch:normal;font-family:COCOGOOSE;-inkscape-font-specification:COCOGOOSE;fill:#ffffff"
         id="path3740" />
      <path
         d="m 149.48408,1009.0374 q 0,-0.1287 0.0708,-0.206 0.0708,-0.077 0.21241,-0.077 l 1.69931,0 q 0.10942,0 0.19954,0.077 0.0965,0.077 0.0965,0.206 l 0,1.5577 q 0,0.1159 -0.0772,0.206 -0.0708,0.09 -0.21885,0.09 l -1.69931,0 q -0.28321,0 -0.28321,-0.2961 l 0,-1.5577 z m 0,5.1172 q 0,-0.1287 0.0708,-0.2059 0.0708,-0.077 0.21241,-0.077 l 1.69931,0 q 0.10942,0 0.19954,0.077 0.0965,0.077 0.0965,0.2059 l 0,1.5577 q 0,0.1159 -0.0772,0.206 -0.0708,0.09 -0.21885,0.09 l -1.69931,0 q -0.28321,0 -0.28321,-0.2961 l 0,-1.5577 z"
         style="font-style:normal;font-variant:normal;font-weight:normal;font-stretch:normal;font-family:COCOGOOSE;-inkscape-font-specification:COCOGOOSE;fill:#ffffff"
         id="path3742" />
      <path
         d="m 158.77996,1012.9252 q 0.10942,0.09 0.27678,0.2446 0.17379,0.1481 0.39264,0.2961 0.32827,0.2189 0.65011,0.3412 0.32184,0.1223 0.67586,0.1223 0.32827,0 0.54712,-0.071 0.22529,-0.077 0.35402,-0.1995 0.12874,-0.1223 0.18023,-0.2832 0.0579,-0.1609 0.0579,-0.3412 0,-0.1995 -0.15448,-0.354 -0.14804,-0.1609 -0.36689,-0.2832 -0.21885,-0.1223 -0.45701,-0.206 -0.23816,-0.09 -0.41195,-0.148 -0.77241,-0.2704 -1.35172,-0.5793 -0.57931,-0.3154 -0.96552,-0.6952 -0.3862,-0.3862 -0.5793,-0.8432 -0.19311,-0.4635 -0.19311,-1.0299 0,-0.4956 0.16736,-0.914 0.16735,-0.4184 0.47632,-0.7467 0.30896,-0.3282 0.7531,-0.5535 0.45057,-0.2318 1.01057,-0.3412 l 0,-0.8947 q 0,-0.1159 0.0708,-0.1995 0.0708,-0.084 0.21242,-0.084 l 1.21011,0 q 0.0966,0 0.19954,0.077 0.10942,0.077 0.10942,0.206 l 0,0.8625 q 0.36046,0.064 0.70161,0.1867 0.34758,0.1159 0.68873,0.3025 0.21885,0.1288 0.41195,0.2704 0.19954,0.1351 0.34759,0.2639 0.14804,0.1287 0.23172,0.2446 0.0901,0.1158 0.0901,0.1995 0,0.084 -0.0451,0.1545 -0.0386,0.071 -0.1223,0.1609 l -0.98482,1.0492 q -0.10943,0.1094 -0.21885,0.1094 -0.0901,0 -0.16736,-0.052 -0.0708,-0.052 -0.16092,-0.1287 l -0.0579,-0.052 q -0.12873,-0.1094 -0.28965,-0.2253 -0.15449,-0.1158 -0.33471,-0.206 -0.18023,-0.096 -0.37977,-0.1544 -0.19954,-0.064 -0.40552,-0.064 -0.21241,0 -0.39908,0.039 -0.18666,0.032 -0.32827,0.1094 -0.14161,0.077 -0.22529,0.206 -0.0837,0.1223 -0.0837,0.3025 0,0.1803 0.0901,0.3154 0.0901,0.1288 0.27034,0.2446 0.18023,0.1095 0.44414,0.2125 0.27034,0.096 0.62436,0.2124 0.6823,0.2253 1.25517,0.4763 0.57931,0.2446 0.9977,0.5857 0.41839,0.3347 0.65011,0.8046 0.23816,0.4699 0.23816,1.1393 0,0.6051 -0.21241,1.1136 -0.21242,0.5021 -0.59218,0.8947 -0.37977,0.3926 -0.90115,0.6565 -0.51494,0.2575 -1.13287,0.3669 l 0,0.9205 q 0,0.2832 -0.30896,0.2832 l -1.21011,0 q -0.28322,0 -0.28322,-0.2832 l 0,-0.9398 q -0.5085,-0.1094 -0.98482,-0.3347 -0.47632,-0.2253 -0.90115,-0.5342 -0.25747,-0.1867 -0.4377,-0.3669 -0.17379,-0.1803 -0.27678,-0.2897 l -0.0193,-0.019 q -0.006,-0.013 -0.0129,-0.013 -0.006,-0.01 -0.0129,-0.013 -0.006,-0.013 -0.0129,-0.013 -0.006,-0.01 -0.0129,-0.013 -0.14805,-0.1609 -0.14805,-0.2575 0,-0.1094 0.14805,-0.2445 l 1.11355,-1.0621 q 0.13518,-0.097 0.21885,-0.097 0.0579,0 0.1223,0.039 0.0644,0.039 0.15449,0.1158 z"
         style="font-style:normal;font-variant:normal;font-weight:normal;font-stretch:normal;font-family:COCOGOOSE;-inkscape-font-specification:COCOGOOSE;fill:#ffffff"
         id="path3744" />
      <path
         d="m 165.75196,1014.1546 q 0,-0.1287 0.0708,-0.2059 0.0708,-0.077 0.21241,-0.077 l 1.6993,0 q 0.10943,0 0.19954,0.077 0.0966,0.077 0.0966,0.2059 l 0,1.5577 q 0,0.1159 -0.0772,0.206 -0.0708,0.09 -0.21885,0.09 l -1.6993,0 q -0.28322,0 -0.28322,-0.2961 l 0,-1.5577 z"
         style="font-style:normal;font-variant:normal;font-weight:normal;font-stretch:normal;font-family:COCOGOOSE;-inkscape-font-specification:COCOGOOSE;fill:#ffffff"
         id="path3746" />
      <path
         d="m 169.294,1013.3372 q 0.006,-0.1609 0.20597,-0.1803 l 1.55126,-0.3733 q 0.0193,-0.01 0.0708,-0.01 0.0708,0 0.0966,0.032 0.0257,0.032 0.0708,0.077 0.006,0.1674 0.11586,0.3669 0.11586,0.1931 0.28322,0.3669 0.17379,0.1738 0.3862,0.2896 0.21242,0.1159 0.42483,0.1159 0.21885,0 0.43126,-0.064 0.21885,-0.064 0.38621,-0.1995 0.16735,-0.1416 0.27034,-0.3605 0.10299,-0.2252 0.10299,-0.5407 0,-0.2574 -0.10943,-0.4827 -0.10298,-0.2317 -0.28965,-0.3991 -0.18023,-0.1738 -0.41839,-0.2703 -0.23816,-0.097 -0.5085,-0.097 -0.0901,0 -0.16736,0.013 -0.0708,0.013 -0.12873,0.032 -0.25747,0.039 -0.4892,0.077 -0.22528,0.039 -0.51494,0.019 l -1.11999,0 q -0.16736,0 -0.26391,-0.071 -0.0966,-0.071 -0.10942,-0.2768 0.11586,-1.1779 0.23172,-2.3236 0.11586,-1.1458 0.22529,-2.3173 0,-0.3282 0.30896,-0.3282 l 4.28688,0 q 0.0129,0 0.0257,0.01 0.0129,0 0.0322,0 l 0.51494,0 q 0.30896,0 0.30896,0.3218 0,0.3862 -0.006,0.766 0,0.3733 0,0.7596 0,0.1287 -0.0837,0.2252 -0.0837,0.097 -0.23816,0.097 l -3.16688,0 -0.0966,1.0427 q 0.18023,-0.032 0.37977,-0.045 0.19954,-0.019 0.37977,-0.019 0.74023,0 1.33885,0.2768 0.60505,0.2703 1.02988,0.7209 0.43126,0.4441 0.66298,1.0234 0.23173,0.5793 0.23173,1.1973 0,0.708 -0.28322,1.3195 -0.28322,0.605 -0.7531,1.0556 -0.46988,0.4506 -1.08781,0.7081 -0.61793,0.251 -1.28092,0.251 l 0,-0.01 q -0.60505,0 -1.12643,-0.1996 -0.52138,-0.206 -0.93333,-0.5535 -0.40551,-0.3476 -0.69517,-0.8111 -0.28965,-0.4634 -0.4377,-0.9848 -0.0193,-0.064 -0.0322,-0.1287 -0.0129,-0.064 -0.0129,-0.1223 z"
         style="font-style:normal;font-variant:normal;font-weight:normal;font-stretch:normal;font-family:COCOGOOSE;-inkscape-font-specification:COCOGOOSE;fill:#ffffff"
         id="path3748" />
      <path
         d="m 179.70826,1011.2324 q 0,0.5406 0.18666,1.0105 0.1931,0.4635 0.52782,0.8111 0.33471,0.3475 0.78528,0.5471 0.45701,0.1995 0.99126,0.1995 0.52781,0 0.98482,-0.1995 0.46345,-0.1996 0.79816,-0.5471 0.33471,-0.3476 0.52782,-0.8111 0.1931,-0.4699 0.1931,-1.0105 0,-0.5343 -0.1931,-1.0042 -0.19311,-0.4763 -0.52782,-0.8239 -0.33471,-0.354 -0.79816,-0.5535 -0.45701,-0.206 -0.98482,-0.206 -0.53425,0 -0.99126,0.206 -0.45057,0.1995 -0.78528,0.5535 -0.33472,0.3476 -0.52782,0.8239 -0.18666,0.4699 -0.18666,1.0042 z m -2.4331,0.01 q 0,-0.6759 0.1738,-1.3067 0.17379,-0.6308 0.49563,-1.1779 0.32183,-0.5471 0.76597,-0.9977 0.45057,-0.4506 0.9977,-0.766 0.54712,-0.3218 1.17149,-0.4956 0.6308,-0.1802 1.31309,-0.1802 0.67586,0 1.30666,0.1802 0.63081,0.1738 1.17793,0.4956 0.54713,0.3154 0.99126,0.766 0.45057,0.4506 0.76598,0.9977 0.32183,0.5471 0.49563,1.1779 0.18022,0.6308 0.18022,1.3067 0,0.6823 -0.18022,1.3131 -0.1738,0.6244 -0.49563,1.1715 -0.31541,0.5407 -0.76598,0.9912 -0.44413,0.4442 -0.99126,0.766 -0.54712,0.3218 -1.17793,0.4956 -0.6308,0.1738 -1.30666,0.1738 -0.68229,0 -1.31309,-0.1738 -0.62437,-0.1738 -1.17149,-0.4956 -0.54713,-0.3218 -0.9977,-0.766 -0.44414,-0.4505 -0.76597,-0.9912 -0.32184,-0.5471 -0.49563,-1.1715 -0.1738,-0.6308 -0.1738,-1.3131 z"
         style="font-style:normal;font-variant:normal;font-weight:normal;font-stretch:normal;font-family:COCOGOOSE;-inkscape-font-specification:COCOGOOSE;fill:#ffffff"
         id="path3750" />
    </g>
    <g
       id="Key-Screens"
       transform="matrix(1.6294115,0,0,1.6294115,50.483333,828.91634)"
       style="fill:none;fill-rule:evenodd;stroke:none;stroke-width:1">
      <g
         transform="translate(-40,-33)"
         id="2.01-Home---Signed-in"
         style="fill-rule:nonzero">
        <g
           id="**-Global-navigation">
          <g
             id="Logo">
            <g
               id="g4872"
               transform="translate(43,33)">
              <g
                 transform="translate(30,0)"
                 id="Scratchs"
                 style="fill:url(#linearGradient4998)">
                <path
                   id="XMLID_38_"
                   d="m 13.614822,11.117072 -0.128039,0.10514 c 0.384117,-0.378504 0.853594,-0.714953 1.323071,-1.051401 -0.661536,0.231308 -1.365751,0.483644 -1.899247,0.883177 -0.512156,0.399533 -0.810914,0.925234 -0.576176,1.703271 -0.661535,-0.399533 -1.792547,0.231309 -1.643168,0.378505 -0.06402,0.273364 -0.128039,0.525701 -0.213398,0.778037 0.06402,-0.168224 0.128039,-0.336448 0.192058,-0.504673 -0.06402,0.168225 -0.128039,0.336449 -0.192058,0.504673 -0.277418,0.778038 -0.7468949,1.450935 -1.2803911,2.123832 -0.5334962,0.651869 -1.2163713,1.261682 -1.8779065,1.892523 -0.3627774,0.357477 -0.9389533,1.07243 -1.536469,1.787383 -0.1493789,0.189253 -0.2987578,0.357477 -0.4481367,0.546729 -0.1280391,0.189253 -0.277418,0.357477 -0.4054571,0.525701 -0.2560782,0.336449 -0.4908165,0.609813 -0.6615353,0.799066 -0.1066992,0.10514 -0.1920586,0.231308 -0.2987578,0.336448 0.1920586,-0.168224 0.1920586,-0.168224 0.3841172,-0.357476 -0.1066992,0.672897 -0.1707188,1.261682 -0.2987578,1.829439 0.1493789,-0.02103 0.277418,0.02103 0.5334961,-0.08411 l -0.2133984,0.21028 c 0.1920586,0.399533 -0.06402,0.904206 -0.06402,1.219626 -0.1280391,-0.147196 -0.2560781,0.04206 -0.3627774,0.189253 l 0.1493789,0 c -0.3841172,0.609813 -0.5975157,1.429906 -0.8962735,1.997663 -0.04268,0.08411 -0.1280391,0.10514 -0.1920586,0.126168 L 2.9022187,27.687168 C 2.7315,27.539971 2.5394414,28.0867 2.5181015,27.750248 c 0.06402,0.546729 -0.2347383,0.904205 -0.1707188,1.429906 -0.5761758,1.450935 -0.8749337,3.11215 -1.1736915,4.710281 l 0.06402,-0.02103 c -0.1066992,0.567757 -0.06402,1.093458 -0.34143754,1.703271 -0.0426797,0.504673 -0.23473831,1.156542 -0.21339847,1.366822 -0.21339846,0.504673 -0.277418,0.714953 -0.53349616,1.198598 0.0426797,-0.06308 -0.0213398,0.06308 -0.08535939,0.168225 -0.02133985,0.02103 -0.02133985,0.04206 -0.04267969,0.06308 C 0.02133985,38.390437 0,38.411465 0,38.411465 c 0,0.02103 0,0.02103 0.02133985,-0.04206 0.21339846,-0.315421 0.21339846,-0.336449 0.40545708,-0.588785 l -0.0213398,0 C 0.83225402,37.170811 1.2590509,36.582025 1.7071877,35.972212 1.9205862,35.67782 2.1339847,35.383427 2.3473831,35.089035 2.5821214,34.794642 2.7955199,34.50025 3.0302582,34.205857 3.478395,33.364736 4.1185904,32.523614 4.6307467,31.682493 c 0.554836,-0.904206 1.0243126,-1.93458 1.3230705,-2.796729 0.04268,-0.210281 0.2987579,-0.273365 0.5121563,-0.357477 0.3627774,-0.735981 1.0029728,-1.598131 1.3657502,-2.46028 0,0.02103 -0.02134,0.02103 -0.02134,0.04206 0.2133984,-0.441589 0.6615352,-0.630841 0.8962735,-1.051402 -0.064019,-0.04206 -0.02134,-0.10514 -0.04268,-0.147196 0.1707188,0.04206 0.4054571,-0.630841 0.6188556,-1.366823 0.1920586,-0.735981 0.4267969,-1.471962 0.554836,-1.471962 0.02134,-0.04206 0.02134,-0.105141 0.04268,-0.147197 0.3414382,-0.378504 0.8109142,-0.714953 1.2377112,-1.030373 0.426797,-0.336449 0.832254,-0.630842 1.045653,-1.030374 -0.02134,-0.252337 -0.02134,-0.504673 -0.08536,-0.75701 0.213399,-0.04206 -0.02134,-0.231308 0.128039,-0.378504 0.832254,0 0.746895,-0.399533 0.405457,-0.336449 0.06402,-0.189252 0.170719,-0.357477 0.277418,-0.525701 0.1067,-0.168224 0.213399,-0.31542 0.320098,-0.462617 0.04268,-0.168224 0.106699,-0.31542 0.149379,-0.504673 0.04268,-0.147196 0.149379,-0.147196 0.320098,-0.126168 0.128039,-0.357476 0.192058,-0.168224 0.448137,-0.441589 0.234738,0.06308 0.234738,-1.009345 0.362777,-1.030373 l 0,0.06308 c 0.277418,-0.336449 0.768234,-0.315421 1.002973,-0.651869 0.746894,-0.904206 1.34441,-2.060748 1.984605,-2.964954 -0.128039,-0.126168 -0.106699,0.231309 -0.277418,0.08411 0.384118,-0.504673 0.896274,-0.946262 1.237712,-1.492991 0.08536,-0.08411 0.213398,-0.168224 0.277417,-0.189252 0.149379,-0.147197 0.02134,-0.147197 0.1067,-0.273365 l 0.08536,0.063084 c 0.04268,-0.2523364 0.256078,-0.2102804 0.320098,-0.4205607 -0.02134,-0.042056 0.02134,-0.1051402 0.04268,-0.1682243 0.06402,0.063084 0.1067,-0.2102804 0.170719,-0.1471963 l 0,0 c 0.02134,-0.042056 0.04268,-0.063084 0.06402,-0.1051402 0,-0.042056 0.06402,-0.2943925 0.128039,-0.546729 0.06402,-0.2523364 0.149379,-0.4836448 0.170719,-0.5257009 l 0.02134,-0.021028 c 0.06402,-0.1051402 0.06402,-0.1892524 0.02134,-0.1261683 l 0.08536,-0.1261682 0,0.021028 0.08536,-0.1261682 c 0.02134,-0.021028 0.04268,-0.021028 0.04268,0.021028 0.02134,-0.084112 0.08536,-0.1682243 0.128039,-0.2523365 -0.149379,0.1892523 -0.341438,0.3995327 -0.533496,0.546729 0.04268,-0.1051402 0.170718,-0.2313084 0.234738,-0.3154206 0.106699,-0.084112 0.277418,-0.2943925 0.405457,-0.4415888 0.02134,-0.042056 0.02134,-0.1051402 0.08536,-0.1682243 0.04268,-0.021028 0.06402,-0.1051401 0.12804,-0.1682243 -0.04268,0.1051402 -0.1067,0.1682243 -0.149379,0.2733645 0.04268,0.021028 0.149379,-0.1892523 0.192058,-0.2733645 0.02134,-0.042056 0.128039,-0.2102803 0.192059,-0.3154205 -0.02134,0.063084 0.06402,-0.084112 0.106699,-0.1471963 0.04268,-0.084112 0.06402,-0.1261682 0.04268,-0.1051402 0,-0.021028 -0.192059,0.2943926 -0.128039,0.1682243 0.02134,-0.021028 0.106699,-0.1682243 0.149379,-0.2313084 0,0 -0.04268,0.042056 0,0 0.06402,-0.084112 0.106699,-0.1471962 0.149379,-0.2102804 -0.02134,0.021028 -0.04268,0.042056 -0.04268,0.084112 0.04268,-0.063084 -0.06402,0.084112 -0.149379,0.2523365 -0.08536,0.1471962 -0.149379,0.3154205 -0.106699,0.2313084 -0.02134,0.021028 0.06402,-0.1682243 0.149379,-0.3154206 0.08536,-0.1682243 0.192058,-0.3154206 0.170719,-0.2733645 -0.04268,0.063084 0.04268,-0.042056 -0.02134,0.021028 l -0.04268,0.084112 c -0.06402,0.084112 -0.08536,0.1261682 -0.08536,0.084112 0.06402,-0.084112 -0.02134,0.042056 -0.08536,0.1471963 -0.06402,0.1261682 -0.128039,0.2523365 -0.08536,0.1892523 l -0.04268,0.042056 c 0.02134,-0.063084 0.128039,-0.2102803 0.170719,-0.2733645 0,0 0.04268,-0.084112 0.08536,-0.1471962 l 0.02134,-0.021028 c 0.04268,-0.063084 0.106699,-0.1471962 0.08536,-0.1051402 -0.12804,0.1892524 -0.1067,0.1261683 -0.04268,0.063084 0.04268,-0.063084 0.106699,-0.1051402 -0.04268,0.042056 0.128039,-0.1261682 -0.04268,0.042056 -0.170719,0.1892524 -0.02134,0 -0.08536,0.063084 -0.192058,0.1471962 -0.08536,0.084112 -0.04268,0.063084 -0.06402,0.084112 -0.04268,0.042056 -0.149379,0.1261682 -0.149379,0.1051402 -0.04268,0.084112 -0.106699,0.1051402 -0.192058,0.1682243 -0.06402,0.084112 0.02134,0 -0.02134,0.063084 -0.1067,0.1051402 -0.256078,0.2523364 -0.341438,0.3154205 -0.04268,0.021028 -0.192058,0.063084 -0.149379,-0.042056 0.170719,-0.1471963 0,0.1051402 0.149379,-0.063084 -0.106699,0.021028 0.128039,-0.1471962 0.149379,-0.2102803 -0.06402,0.021028 -0.192059,0.1261682 -0.277418,0.2102803 l 0.02134,0 c -0.08536,0.084112 -0.234738,0.2313085 -0.341438,0.2943926 0,-0.042056 -0.04268,-0.021028 0,-0.084112 l -0.128039,0.1051402 c 0,0.021028 -0.02134,0.042056 0.02134,0.021028 -0.04268,0.063084 -0.106699,0.1051402 -0.149379,0.1261683 -0.02134,0 -0.149379,0.1471962 -0.256078,0.3154205 -0.106699,0.1682243 -0.213398,0.3364486 -0.213398,0.3154206 -0.08536,0.084112 -0.149379,0.042056 -0.192059,0.1682243 0,0.021028 0.170719,-0.1892523 0.320098,-0.3785047 0.149379,-0.1892523 0.298758,-0.3574766 0.256078,-0.3154205 -0.04268,0.021028 -0.256078,0.2523364 -0.448137,0.5046729 -0.192058,0.2523364 -0.362777,0.5046729 -0.426797,0.4836448 -0.06402,0.063084 -0.106699,0.1261683 -0.06402,0.1682243 -0.1067,0.084112 -0.04268,-0.1051402 -0.149379,-0.063084 0,0 0.02134,0.021028 0,0.042056 l -0.1067,0.021028 c -0.08536,0.2102804 -0.405457,0.3364486 -0.469476,0.5887851 0,-0.084112 -0.04268,-0.2102804 0.04268,-0.3574767 l 0.04268,0 c 0,-0.021028 0.08536,-0.1261682 0.04268,-0.1471962 -0.128039,0.063084 -0.213398,0.1471962 -0.277418,0.2943925 -0.02134,0 -0.06402,0.021028 -0.08536,0.021028 0,0 0.02134,0 0.02134,0.021028 -0.06402,0 -0.06402,0 -0.06402,-0.021028 0,0 0,0 0,-0.021028 -0.192059,-0.063084 -0.298758,0.4415888 -0.554836,0.546729 -0.04268,0.063084 0.02134,0.021028 -0.02134,0.1261682 -0.234738,0.1261678 -0.426797,0.2102798 -0.661535,0.3574768 0,0.126168 0.02134,0.147196 0.170718,0.147196 l -0.170718,0.126168 c -0.06402,-0.294392 -0.448137,0.10514 -0.512157,-0.21028 -0.08536,0 -0.192058,0.08411 -0.234738,0.189252 0.04268,0.04206 0.106699,0.126168 0,0.231309 -0.213398,0.08411 -0.149379,0.06308 -0.341437,0.126168 -0.1067,-0.04206 -0.08536,-0.10514 -0.149379,-0.147197 -0.1067,0.252337 -0.320098,0.02103 -0.490817,0.189253 -0.08536,0.126168 -0.298758,0.336448 -0.170719,0.441589 -0.192058,-0.02103 -0.298758,-0.105141 -0.384117,-0.210281 z"
                   inkscape:connector-curvature="0"
                   style="fill:url(#linearGradient4992)" />
                <path
                   id="XMLID_35_"
                   d="m 26.969298,8.3775125 -0.170719,0.1471962 c 0.469477,-0.5467289 1.024313,-1.0724299 1.579149,-1.5771028 -0.768234,0.4415888 -1.600489,0.9252337 -2.198004,1.5140187 -0.618856,0.5887851 -0.981633,1.2827103 -0.810914,2.1658884 -0.682875,-0.336449 -2.027286,0.651869 -1.877907,0.799065 -0.08536,0.336449 -0.192058,0.651869 -0.320098,0.96729 0.08536,-0.210281 0.192059,-0.420561 0.277418,-0.65187 -0.08536,0.210281 -0.170718,0.441589 -0.277418,0.65187 -0.789574,1.997663 -2.368723,3.700934 -4.011891,5.467289 -0.448137,0.483645 -1.195031,1.471963 -1.963266,2.439253 -0.362777,0.483644 -0.746894,0.988317 -1.066992,1.429906 -0.320098,0.441589 -0.618855,0.820094 -0.853594,1.07243 -0.128039,0.147196 -0.256078,0.315421 -0.362777,0.462617 0.234738,-0.252337 0.234738,-0.252337 0.469476,-0.483645 -0.213398,0.841122 -0.384117,1.598131 -0.597515,2.313084 0.170719,-0.04206 0.277418,0 0.576176,-0.189252 l -0.256079,0.273364 c 0.149379,0.483645 -0.256078,1.135514 -0.277418,1.535047 -0.128039,-0.168224 -0.298757,0.08411 -0.426797,0.294393 l 0.149379,-0.02103 c -0.256078,0.399532 -0.490816,0.862149 -0.704215,1.324766 -0.213398,0.462617 -0.405457,0.925234 -0.597515,1.303738 -0.04268,0.10514 -0.149379,0.147196 -0.213399,0.168224 0,0 -0.06402,0.189253 -0.128039,0.399533 -0.06402,0.189253 -0.128039,0.399533 -0.128039,0.399533 -0.170719,-0.168224 -0.448137,0.525701 -0.405457,0.10514 -0.02134,0.672897 -0.426797,1.17757 -0.426797,1.829439 -0.832254,1.93458 -1.472449,4.07944 -2.0272853,6.161215 l 0.06402,-0.02103 c -0.085359,0.378505 -0.128039,0.735982 -0.2133984,1.093458 -0.085359,0.378505 -0.2133985,0.735982 -0.3841173,1.156542 -0.1066992,0.65187 -0.405457,1.535047 -0.405457,1.787384 -0.277418,0.693925 -0.3627774,0.988317 -0.6828751,1.640186 0.04268,-0.08411 -0.02134,0.08411 -0.1066993,0.210281 -0.02134,0.04206 -0.04268,0.06308 -0.04268,0.10514 0,0.02103 -0.02134,0.06308 -0.02134,0.06308 0,0.02103 0,0.02103 0.02134,-0.06308 0.2560782,-0.420561 0.2560782,-0.462617 0.4908165,-0.820093 l -0.02134,0 c 0.9816329,-1.703271 2.1339849,-3.301402 3.2436569,-4.899533 0.298758,-0.567757 0.640195,-1.156542 1.024312,-1.724299 0.384118,-0.567757 0.768235,-1.135514 1.109672,-1.724299 0.362778,-0.609813 0.725555,-1.282711 1.045653,-1.913552 0.341437,-0.630841 0.640195,-1.261682 0.874934,-1.850467 0.106699,-0.273365 0.384117,-0.378505 0.618855,-0.525701 0.512156,-1.009346 1.36575,-2.186916 1.941926,-3.343458 -0.02134,0.02103 -0.02134,0.04206 -0.04268,0.04206 0.341437,-0.588785 0.832253,-0.883177 1.152351,-1.471963 -0.06402,-0.04206 -0.02134,-0.126168 -0.02134,-0.189252 0.192059,0.04206 0.554836,-0.862149 0.917614,-1.829439 0.362777,-0.946262 0.725555,-1.913551 0.874933,-1.955608 0.02134,-0.06308 0.04268,-0.126168 0.08536,-0.21028 0.896273,-1.093458 2.283363,-1.934579 2.880879,-2.985981 0,-0.315421 0.04268,-0.630841 0,-0.925234 0.234738,-0.10514 0.02134,-0.294392 0.192059,-0.483645 0.938953,-0.168224 0.896273,-0.651869 0.512156,-0.504673 0.213399,-0.504673 0.554836,-0.925233 0.810914,-1.345794 0.08536,-0.21028 0.149379,-0.420561 0.234739,-0.651869 0.06402,-0.189253 0.192058,-0.231309 0.384117,-0.21028 0.192058,-0.462617 0.234738,-0.252337 0.576176,-0.65187 0.234738,0.02103 0.405457,-1.28271 0.533496,-1.366822 l -0.02134,0.08411 c 0.362777,-0.483645 0.896274,-0.567757 1.216371,-1.051402 0.960293,-1.28271 1.771207,-2.880841 2.582122,-4.1214952 -0.128039,-0.1051402 -0.149379,0.3154206 -0.320098,0.1892524 0.490816,-0.7359813 1.088332,-1.3878505 1.557809,-2.1658879 0.106699,-0.1261682 0.256078,-0.2523364 0.320097,-0.2943925 0.170719,-0.2313084 0.04268,-0.1892523 0.149379,-0.3574766 l 0.1067,0.042056 c 0.08536,-0.3154205 0.298757,-0.3364486 0.405457,-0.6098131 -0.02134,-0.042056 0.02134,-0.1261682 0.06402,-0.2313084 0.08536,0.063084 0.149379,-0.2943925 0.192059,-0.2313084 l 0,0 c 0.02134,-0.063084 0.04268,-0.1051402 0.08536,-0.1471962 0.02134,-0.063084 0.08536,-0.3785047 0.192059,-0.6939253 0.08536,-0.3154205 0.192058,-0.609813 0.213398,-0.6728972 l 0.04268,-0.042056 c 0.08536,-0.1471963 0.08536,-0.2313084 0.02134,-0.1682243 l 0.106699,-0.1682243 0,0.021028 0.106699,-0.1682243 c 0.02134,-0.021028 0.06402,-0.042056 0.06402,0.021028 0.04268,-0.1051401 0.08536,-0.2313084 0.149379,-0.3364486 -0.170719,0.2733645 -0.405457,0.5887851 -0.640196,0.8200935 0.04268,-0.1261682 0.213399,-0.3154206 0.277419,-0.4415888 0.128039,-0.1261682 0.320097,-0.4205607 0.490816,-0.6728972 0.02134,-0.063084 0.02134,-0.1261682 0.106699,-0.2313084 0.06402,-0.042056 0.08536,-0.1471963 0.149379,-0.2313084 -0.06402,0.1261682 -0.128039,0.2523364 -0.192059,0.3574766 0.04268,0 0.170719,-0.2733645 0.234739,-0.3785046 0.02134,-0.042056 0.149379,-0.27336453 0.213398,-0.44158883 -0.02134,0.0841121 0.06402,-0.10514018 0.128039,-0.21028037 0.04268,-0.10514019 0.08536,-0.1682243 0.06402,-0.12616822 0,-0.0420561 -0.213399,0.39953271 -0.149379,0.25233644 0.02134,-0.021028 0.128039,-0.23130841 0.192059,-0.33644859 0,0 -0.04268,0.0630841 0,0 0.06402,-0.10514019 0.128039,-0.21028038 0.170718,-0.31542056 -0.02134,0.02102803 -0.04268,0.06308411 -0.06402,0.10514018 0.04268,-0.08411215 -0.06402,0.12616823 -0.170719,0.3364486 -0.106699,0.21028037 -0.170719,0.42056075 -0.128039,0.31542056 -0.02134,0.021028 0.08536,-0.21028037 0.192059,-0.42056075 0.106699,-0.21028037 0.213398,-0.42056074 0.192058,-0.37850467 -0.04268,0.08411215 0.04268,-0.06308411 -0.02134,0.02102804 l -0.06402,0.10514018 c -0.06402,0.12616823 -0.106699,0.1682243 -0.08536,0.12616823 0.06402,-0.10514019 -0.02134,0.0420561 -0.106699,0.21028037 -0.08536,0.1682243 -0.149379,0.3364486 -0.106699,0.23130841 l -0.04268,0.0841122 c 0.04268,-0.0841122 0.149379,-0.29439252 0.192059,-0.37850467 0,0 0.04268,-0.10514019 0.106699,-0.21028037 l 0.02134,-0.021028 c 0.04268,-0.08411215 0.128039,-0.21028037 0.08536,-0.1682243 -0.149379,0.27336449 -0.106699,0.1682243 -0.06402,0.08411215 0.04268,-0.08411215 0.128039,-0.1682243 -0.06402,0.06308411 0.149379,-0.18925233 -0.04268,0.0630841 -0.192058,0.27336449 -0.02134,0.021028 -0.08536,0.10514018 -0.213399,0.25233645 -0.08536,0.12616822 -0.04268,0.0841122 -0.06402,0.10514018 -0.06402,0.0630841 -0.170719,0.18925234 -0.170719,0.1682243 -0.06402,0.10514024 -0.128039,0.14719624 -0.213399,0.27336454 -0.06402,0.1051401 0.02134,0 -0.04268,0.084112 -0.128039,0.1471963 -0.298758,0.3785047 -0.405457,0.4836449 -0.06402,0.042056 -0.213399,0.1471962 -0.170719,0 0.192059,-0.2313084 -0.02134,0.1261682 0.170719,-0.1051402 -0.12804,0.063084 0.170718,-0.2313084 0.170718,-0.2943925 -0.08536,0.063084 -0.213398,0.2102803 -0.320097,0.3364486 l 0.02134,-0.021028 c -0.08536,0.1261682 -0.277417,0.3574767 -0.405456,0.4415888 0,-0.042056 -0.06402,0 0,-0.084112 l -0.14938,0.1471962 c 0,0.021028 -0.02134,0.042056 0.02134,0.021028 -0.04268,0.084112 -0.128039,0.1471962 -0.192058,0.1892523 -0.02134,0 -0.170719,0.2313084 -0.320098,0.4415888 -0.149379,0.2313084 -0.256078,0.4626168 -0.256078,0.4415888 -0.08536,0.1051402 -0.170719,0.1051402 -0.213399,0.2313084 0,0.021028 0.192059,-0.2733645 0.384118,-0.546729 0.192058,-0.2733645 0.362777,-0.5257009 0.298757,-0.4415888 -0.06402,0.042056 -0.298757,0.3785047 -0.533496,0.7149533 C 32.688377,3.604148 32.474979,3.9616246 32.410959,3.9826527 32.346939,4.0667648 32.26158,4.171905 32.3256,4.192933 32.197561,4.3191012 32.28292,4.0877928 32.154881,4.171905 c 0,0 0.02134,0 0,0.042056 l -0.128039,0.063084 c -0.106699,0.2733645 -0.469477,0.5257009 -0.576176,0.8411215 0,-0.1051402 -0.02134,-0.2523365 0.06402,-0.4415888 l 0.04268,0 c 0,-0.042056 0.08536,-0.1682243 0.04268,-0.1892523 -0.149379,0.1261682 -0.256078,0.2313084 -0.320098,0.4205607 -0.04268,0.021028 -0.08536,0.042056 -0.106699,0.042056 0,0 0.02134,0 0.02134,0.021028 -0.06402,0.021028 -0.06402,0.021028 -0.08536,-0.021028 l 0,-0.021028 c -0.213398,-0.021028 -0.384117,0.6098131 -0.682875,0.8200935 -0.04268,0.084112 0.02134,0.021028 -0.02134,0.1471963 -0.277417,0.2102803 -0.490816,0.3574766 -0.768234,0.588785 0,0.1471963 0.02134,0.1682243 0.192059,0.1261682 L 29.63678,6.8004095 C 29.5941,6.4639609 29.103284,7.0317179 29.081944,6.6742412 c -0.106699,0.021028 -0.213399,0.1471963 -0.277418,0.2733645 0.04268,0.042056 0.106699,0.1261682 -0.02134,0.2733645 C 28.527108,7.3681665 28.612467,7.3471384 28.377729,7.4522786 28.27103,7.4312506 28.292369,7.3471384 28.22835,7.3261104 28.100311,7.641531 27.865573,7.4312506 27.673514,7.683587 27.566815,7.8518113 27.310737,8.1462039 27.438776,8.2723721 27.161358,8.5667646 27.054658,8.4826525 26.969299,8.3775123 Z"
                   inkscape:connector-curvature="0"
                   style="fill:url(#linearGradient4994)" />
                <path
                   id="XMLID_32_"
                   d="m 36.730144,11.24324 -0.149379,0.105141 c 0.405457,-0.378505 0.896274,-0.735982 1.36575,-1.07243 -0.661535,0.231308 -1.40843,0.504673 -1.941926,0.904205 -0.533496,0.399533 -0.853594,0.925234 -0.640195,1.724299 -0.640196,-0.399532 -1.813887,0.231309 -1.685848,0.378505 -0.06402,0.273365 -0.149379,0.525701 -0.234738,0.778037 0.08536,-0.168224 0.149379,-0.336448 0.213398,-0.504672 -0.06402,0.168224 -0.128039,0.336448 -0.213398,0.504672 -0.149379,0.399533 -0.341438,0.778038 -0.576176,1.135514 -0.234739,0.357477 -0.490817,0.693926 -0.789575,1.030374 -0.576175,0.651869 -1.259051,1.282711 -1.941926,1.913552 -0.362777,0.378504 -1.002972,1.07243 -1.600488,1.829439 -0.618856,0.735981 -1.195031,1.514019 -1.579149,1.892523 -0.106699,0.10514 -0.213398,0.231309 -0.298758,0.357477 0.192059,-0.189252 0.192059,-0.189252 0.384118,-0.357477 -0.128039,0.672897 -0.192059,1.303739 -0.341438,1.871496 0.149379,-0.02103 0.277418,0.02103 0.533496,-0.105141 l -0.213398,0.210281 c 0.192058,0.399532 -0.106699,0.925233 -0.106699,1.240654 -0.12804,-0.147196 -0.256079,0.04206 -0.384118,0.189252 l 0.149379,0 c -0.405457,0.609813 -0.640195,1.450935 -0.938953,2.03972 -0.04268,0.08411 -0.128039,0.126168 -0.192059,0.126168 0,0 -0.04268,0.168225 -0.06402,0.315421 -0.04268,0.168224 -0.06402,0.31542 -0.06402,0.31542 -0.170719,-0.147196 -0.384117,0.399533 -0.384117,0.06308 0.04268,0.546729 -0.277418,0.925234 -0.213398,1.450935 -0.554836,1.514019 -0.981633,3.175234 -1.259051,4.836449 l 0.06402,-0.02103 c -0.106699,0.567757 -0.08536,1.114486 -0.362777,1.766355 -0.04268,0.504673 -0.256078,1.17757 -0.234739,1.38785 -0.213398,0.525701 -0.277418,0.75701 -0.533496,1.240654 0.04268,-0.06308 -0.02134,0.06309 -0.08536,0.168225 -0.02134,0.02103 -0.02134,0.04206 -0.04268,0.06308 0,0.02103 -0.02134,0.04206 -0.02134,0.06308 0,0.02103 0,0.02103 0.02134,-0.04206 0.213399,-0.315421 0.213399,-0.336449 0.405457,-0.609813 l -0.02134,0 c 0.213399,-0.315421 0.426797,-0.630841 0.640196,-0.946262 0.213398,-0.31542 0.448137,-0.609813 0.682875,-0.925234 0.234738,-0.294392 0.448137,-0.609813 0.682875,-0.904205 0.234738,-0.294393 0.469477,-0.609813 0.682875,-0.904206 0.106699,-0.21028 0.234738,-0.441589 0.362777,-0.651869 0.12804,-0.21028 0.277418,-0.420561 0.426798,-0.651869 0.298757,-0.420561 0.597515,-0.86215 0.853593,-1.303738 0.277418,-0.462617 0.533496,-0.96729 0.768235,-1.471963 0.234738,-0.483645 0.448137,-0.96729 0.618855,-1.408879 0.06402,-0.21028 0.320098,-0.273364 0.533496,-0.378504 0.192059,-0.378505 0.448137,-0.799066 0.704215,-1.219626 0.277419,-0.420561 0.533497,-0.86215 0.725555,-1.303739 0,0.02103 -0.02134,0.02103 -0.04268,0.04206 0.234738,-0.462616 0.682875,-0.630841 0.917613,-1.07243 -0.06402,-0.04206 -0.02134,-0.10514 -0.04268,-0.147196 0.170719,0.04206 0.426797,-0.651869 0.661535,-1.38785 0.234739,-0.735982 0.469477,-1.492991 0.618856,-1.514019 0.02134,-0.06308 0.02134,-0.10514 0.06402,-0.168224 0.725554,-0.799066 1.920586,-1.303739 2.368723,-2.102804 -0.02134,-0.252336 -0.02134,-0.525701 -0.08536,-0.778037 0.213399,-0.04206 0,-0.231309 0.149379,-0.378505 0.853594,0 0.768235,-0.399533 0.426797,-0.336449 0.149379,-0.399532 0.448137,-0.693925 0.618856,-0.988317 0.06402,-0.168225 0.106699,-0.336449 0.170718,-0.504673 0.04268,-0.147197 0.170719,-0.147197 0.320098,-0.126169 0.149379,-0.357476 0.213399,-0.168224 0.469477,-0.441588 0.106699,0.02103 0.170718,-0.231309 0.234738,-0.483645 0.06402,-0.273365 0.106699,-0.546729 0.170719,-0.567757 l -0.02134,0.06308 c 0.298758,-0.336449 0.768234,-0.336449 1.024313,-0.672897 0.789574,-0.904206 1.429769,-2.102804 2.112644,-3.00701 -0.106699,-0.126168 -0.106699,0.231309 -0.277418,0.105141 0.405458,-0.525701 0.917614,-0.96729 1.301731,-1.514019 0.08536,-0.08411 0.213398,-0.168224 0.277418,-0.189252 0.149379,-0.147197 0.02134,-0.147197 0.128039,-0.2733649 l 0.08536,0.063084 c 0.06402,-0.2523365 0.256078,-0.2102804 0.341437,-0.4415888 -0.02134,-0.042056 0.02134,-0.1051402 0.06402,-0.1682243 0.06402,0.063084 0.106699,-0.2102804 0.170718,-0.1471963 l 0,0 c 0.02134,-0.042056 0.04268,-0.084112 0.08536,-0.1051402 0,-0.042056 0.08536,-0.3154205 0.149379,-0.5467289 0.06402,-0.2523365 0.170718,-0.4836449 0.170718,-0.525701 l 0.02134,-0.021028 c 0.06402,-0.1051402 0.06402,-0.1892523 0.02134,-0.1261682 l 0.08536,-0.1261683 0,0.021028 0.08536,-0.1261682 c 0.02134,-0.021028 0.06402,-0.021028 0.04268,0.021028 0.04268,-0.084112 0.08536,-0.1892523 0.128039,-0.2523365 -0.149379,0.1892524 -0.362778,0.3995328 -0.554836,0.5677571 0.04268,-0.1051402 0.192058,-0.2313085 0.234738,-0.3154206 0.106699,-0.084112 0.277418,-0.2943925 0.426797,-0.4626168 0.02134,-0.042056 0.02134,-0.1051402 0.08536,-0.1682243 0.04268,-0.021028 0.06402,-0.1051402 0.128039,-0.1682243 -0.04268,0.1051402 -0.106699,0.1892523 -0.170718,0.2733645 0.04268,0.021028 0.149379,-0.2102804 0.213398,-0.2733645 0.02134,-0.042056 0.128039,-0.2102804 0.192059,-0.3154206 -0.02134,0.063084 0.06402,-0.084112 0.106699,-0.1471962 0.04268,-0.084112 0.06402,-0.1261683 0.04268,-0.1051402 0,-0.042056 -0.192059,0.2943925 -0.12804,0.1682243 0.02134,-0.021028 0.1067,-0.1682243 0.170719,-0.2523365 0,0 -0.04268,0.042056 0,0 0.06402,-0.084112 0.1067,-0.1471962 0.149379,-0.2313084 -0.02134,0.021028 -0.04268,0.042056 -0.04268,0.084112 0.04268,-0.063084 -0.06402,0.1051401 -0.149379,0.2523364 -0.08536,0.1471963 -0.149379,0.3154206 -0.12804,0.2523365 -0.02134,0.021028 0.06402,-0.1682243 0.170719,-0.3154206 0.08536,-0.1682243 0.192059,-0.3154206 0.170719,-0.2733645 -0.04268,0.063084 0.04268,-0.042056 -0.02134,0.021028 l -0.06402,0.084112 c -0.06402,0.084112 -0.106699,0.1261682 -0.08536,0.084112 0.06402,-0.084112 -0.02134,0.042056 -0.08536,0.1682244 -0.06402,0.1261682 -0.149379,0.2523364 -0.106699,0.1892523 l -0.04268,0.063084 c 0.04268,-0.063084 0.128039,-0.2313084 0.170719,-0.2733645 0,0 0.04268,-0.084112 0.08536,-0.1471963 l 0.02134,-0.021028 c 0.04268,-0.063084 0.106699,-0.1682243 0.08536,-0.1261682 -0.128039,0.1892523 -0.106699,0.1261682 -0.04268,0.063084 0.04268,-0.063084 0.106699,-0.1051402 -0.06402,0.042056 0.128039,-0.1261683 -0.04268,0.042056 -0.170719,0.1892523 -0.02134,0 -0.08536,0.063084 -0.192058,0.1682243 -0.08536,0.084112 -0.04268,0.063084 -0.06402,0.084112 -0.04268,0.042056 -0.149379,0.1261682 -0.149379,0.1051401 -0.04268,0.084112 -0.128039,0.1051402 -0.192058,0.1892524 -0.06402,0.084112 0.02134,0 -0.02134,0.063084 -0.106699,0.1051402 -0.256078,0.2523364 -0.341438,0.3364486 -0.04268,0.021028 -0.192058,0.063084 -0.149379,-0.042056 0.170719,-0.1471963 -0.02134,0.1051402 0.149379,-0.063084 -0.128039,0.021028 0.149379,-0.1471963 0.149379,-0.2102804 -0.06402,0.042056 -0.192058,0.1261682 -0.277418,0.2313084 l 0.02134,-0.021028 c -0.08536,0.084112 -0.234738,0.2523364 -0.362777,0.2943925 0,-0.042056 -0.06402,-0.021028 0,-0.084112 l -0.128039,0.1051402 c 0,0.021028 -0.02134,0.042056 0.02134,0.021028 -0.04268,0.063084 -0.106699,0.1051402 -0.170718,0.1261682 -0.02134,0 -0.149379,0.1471963 -0.277418,0.3154206 -0.128039,0.1682243 -0.234739,0.3364486 -0.234739,0.3154206 -0.08536,0.084112 -0.149379,0.042056 -0.192058,0.1682242 0,0.021028 0.170718,-0.1892523 0.341437,-0.3995327 0.170719,-0.1892523 0.320098,-0.3785046 0.256078,-0.3154205 -0.04268,0.021028 -0.256078,0.2523364 -0.469476,0.5046729 -0.192059,0.2523364 -0.384117,0.5046729 -0.448137,0.5046729 -0.06402,0.063084 -0.128039,0.1471962 -0.06402,0.1682243 -0.128039,0.084112 -0.04268,-0.1051402 -0.149378,-0.063084 0,0 0.02134,0.021028 0,0.042056 l -0.12804,0.021028 c -0.106699,0.2102803 -0.405457,0.3574766 -0.490816,0.588785 0,-0.084112 -0.02134,-0.2313084 0.04268,-0.3574766 l 0.04268,0 c 0,-0.021028 0.08536,-0.1261682 0.04268,-0.1682243 -0.128039,0.063084 -0.213398,0.1471962 -0.277418,0.2943925 -0.04268,0 -0.06402,0.021028 -0.106699,0.021028 0,0 0.02134,0 0.02134,0.021028 -0.06402,0 -0.06402,0 -0.06402,-0.021028 0,0 0,0 0,-0.021028 -0.192059,-0.063084 -0.320098,0.4415888 -0.597516,0.567757 -0.04268,0.063084 0.02134,0.021028 -0.02134,0.1261682 -0.256079,0.1261679 -0.426797,0.2102809 -0.661536,0.3574769 0,0.126168 0.02134,0.147196 0.170719,0.147196 l -0.170719,0.126168 c -0.04268,-0.294392 -0.469476,0.10514 -0.512156,-0.21028 -0.08536,0 -0.192059,0.08411 -0.256078,0.189252 0.04268,0.04206 0.106699,0.126168 0,0.231309 -0.213399,0.08411 -0.149379,0.06308 -0.341438,0.126168 -0.106699,-0.04206 -0.08536,-0.10514 -0.128039,-0.147196 -0.106699,0.252336 -0.320097,0.02103 -0.490816,0.189252 -0.08536,0.126168 -0.320098,0.336449 -0.192059,0.462617 -0.06402,0 -0.170719,-0.08411 -0.256078,-0.189253 z"
                   inkscape:connector-curvature="0"
                   style="fill:url(#linearGradient4996)" />
              </g>
              <g
                 transform="translate(0,15)"
                 id="Word">
                <g
                   id="XMLID_69_">
                  <use
                     id="use4880"
                     xlink:href="#path-2"
                     style="fill:#cfcfcf;fill-rule:evenodd"
                     x="0"
                     y="0"
                     width="100%"
                     height="100%" />
                  <use
                     id="use4882"
                     xlink:href="#path-2"
                     mask="url(#mask-3)"
                     style="fill:#ffffff;stroke:#fcffff;stroke-width:0;stroke-miterlimit:4;stroke-dasharray:none;stroke-opacity:1"
                     x="0"
                     y="0"
                     width="100%"
                     height="100%" />
                </g>
                <g
                   id="XMLID_66_">
                  <use
                     id="use4885"
                     xlink:href="#path-4"
                     style="fill:#cfcfcf;fill-rule:evenodd"
                     x="0"
                     y="0"
                     width="100%"
                     height="100%" />
                  <use
                     id="use4887"
                     xlink:href="#path-4"
                     mask="url(#mask-5)"
                     style="fill:#ffffff;stroke:none;stroke-width:0;stroke-miterlimit:4;stroke-dasharray:none"
                     x="0"
                     y="0"
                     width="100%"
                     height="100%" />
                </g>
                <g
                   id="XMLID_60_">
                  <use
                     id="use4890"
                     xlink:href="#path-6"
                     style="fill:#cfcfcf;fill-rule:evenodd"
                     x="0"
                     y="0"
                     width="100%"
                     height="100%" />
                  <use
                     id="use4892"
                     xlink:href="#path-6"
                     mask="url(#mask-7)"
                     style="fill:#ffffff;stroke:#b7b7ff;stroke-width:0;stroke-miterlimit:4;stroke-dasharray:none;stroke-opacity:1"
                     x="0"
                     y="0"
                     width="100%"
                     height="100%" />
                </g>
                <g
                   id="XMLID_70_">
                  <use
                     id="use4895"
                     xlink:href="#path-8"
                     style="fill:#cfcfcf;fill-rule:evenodd"
                     x="0"
                     y="0"
                     width="100%"
                     height="100%" />
                  <use
                     id="use4897"
                     xlink:href="#path-8"
                     mask="url(#mask-9)"
                     style="fill:#ffffff;stroke:#3a3870;stroke-width:0;stroke-miterlimit:4;stroke-dasharray:none"
                     x="0"
                     y="0"
                     width="100%"
                     height="100%" />
                </g>
                <g
                   id="XMLID_63_">
                  <use
                     id="use4900"
                     xlink:href="#path-10"
                     style="fill:#cfcfcf;fill-rule:evenodd"
                     x="0"
                     y="0"
                     width="100%"
                     height="100%" />
                  <use
                     id="use4902"
                     xlink:href="#path-10"
                     mask="url(#mask-11)"
                     style="fill:#ffffff;stroke:none;stroke-width:0;stroke-miterlimit:4;stroke-dasharray:none"
                     x="0"
                     y="0"
                     width="100%"
                     height="100%" />
                </g>
                <g
                   id="XMLID_52_">
                  <use
                     id="use4905"
                     xlink:href="#path-12"
                     style="fill:#cfcfcf;fill-rule:evenodd"
                     x="0"
                     y="0"
                     width="100%"
                     height="100%" />
                  <use
                     id="use4907"
                     xlink:href="#path-12"
                     mask="url(#mask-13)"
                     style="fill:#ffffff;stroke:none;stroke-width:0;stroke-miterlimit:4;stroke-dasharray:none"
                     x="0"
                     y="0"
                     width="100%"
                     height="100%" />
                </g>
                <g
                   id="XMLID_49_">
                  <use
                     id="use4910"
                     xlink:href="#path-14"
                     style="fill:#cfcfcf;fill-rule:evenodd"
                     x="0"
                     y="0"
                     width="100%"
                     height="100%" />
                  <use
                     id="use4912"
                     xlink:href="#path-14"
                     mask="url(#mask-15)"
                     style="fill:#ffffff;fill-opacity:1;stroke:#ffffff;stroke-width:0;stroke-miterlimit:4;stroke-dasharray:none;stroke-opacity:1"
                     x="0"
                     y="0"
                     width="100%"
                     height="100%" />
                </g>
                <g
                   id="XMLID_56_">
                  <use
                     id="use4915"
                     xlink:href="#path-16"
                     style="fill:#cfcfcf;fill-rule:evenodd"
                     x="0"
                     y="0"
                     width="100%"
                     height="100%" />
                  <use
                     id="use4917"
                     xlink:href="#path-16"
                     mask="url(#mask-17)"
                     style="fill:#ffffff;stroke:none;stroke-width:0;stroke-miterlimit:4;stroke-dasharray:none"
                     x="0"
                     y="0"
                     width="100%"
                     height="100%" />
                </g>
              </g>
            </g>
          </g>
        </g>
      </g>
    </g>
  </g>
</svg>
